<svg xmlns="http://www.w3.org/2000/svg" viewBox="0 0 398.86 151.28"><defs><style>.cls-1{fill:#024788;}</style></defs><title>allwinner</title><g id="Layer_2" data-name="Layer 2"><g id="Layer_1-2" data-name="Layer 1"><path class="cls-1" d="M151.33,110.39c-1.11,1.3-2.13,2.68-3.33,3.88-17.37,17.42-38.23,28.24-62.1,34.12A87.59,87.59,0,0,1,65,151.28c-16.14,0-30.52-5.38-43.54-14.39-9-6.22-14.57-15.2-18.41-25.45a47.8,47.8,0,0,1-2.51-24,76.38,76.38,0,0,1,5.6-19c11.93-27.67,33.08-46,60.1-58.26A121.52,121.52,0,0,1,99.14.77a76.26,76.26,0,0,1,38.18,4.39c11.54,4.36,21.18,11,28.3,21.12.92,1.31,1.61,2.78,2.43,4.21-4.86,2.27-7.48,2-10.57-1.15-11-11.23-24.67-16.44-39.95-16.63-40.71-.52-71.7,17.2-92.7,51.84-8,13.19-11.07,28-6.91,43.17,5,18.41,18,29.19,36.15,33.52,26.85,6.41,51.45-.18,74.08-15,6.36-4.15,11.88-9.57,17.81-14.39,1.29-1,2.67-2,4-3Z"/><path class="cls-1" d="M67.42,95.63c1.4-2.57,2.71-5.2,4.22-7.71Q83.55,68,95.54,48.21c4.72-7.82,11-12.82,20.79-11.72a51.86,51.86,0,0,0,7.48,0c3.37-.12,4.78,1.35,4.72,4.77-.13,7.81,0,15.63,0,23.44,0,8.81,0,17.62,0,26.43,0,5.36-.57,5.86-6.06,6h-2c-8.9,0-9,0-9.48-8.9-.15-2.85-1.33-3.88-4-3.77a14.22,14.22,0,0,1-3,0c-7.48-1.28-12.86,1-15.49,8.57-1.13,3.26-3.73,4.31-7.13,4.16-4.42-.2-8.85,0-13.27,0Zm33-23.28a79.58,79.58,0,0,0,8.24-.1c.87-.09,2.29-1.23,2.32-1.94.2-5,.1-9.91.1-14.86l-1.18-.11Z"/><path class="cls-1" d="M290.85,80.39c-1.26,3.72-2.46,7.46-3.81,11.14-.83,2.26-1.19,5.2-4.58,5a7.31,7.31,0,0,1-6.78-5c-.71-1.86-1.05-3.85-1.64-5.75-.48-1.53-1.08-3-1.63-4.52l-1.08-.16c-1.37,3.78-2.81,7.53-4.08,11.34-.67,2-1.43,3.94-3.85,3.9a13.79,13.79,0,0,1-6-1.12c-.52-.27.12-3.33.67-5,3.13-9.28,6.31-18.54,9.68-27.72.61-1.65,2.14-4.07,3.33-4.11a7.08,7.08,0,0,1,5.39,2.64c1.76,2.7,2.6,6,3.76,9.08a15.55,15.55,0,0,0,2.34,4.78c.7-1.89,1.44-3.76,2.09-5.67a63,63,0,0,1,2.2-6.6c.79-1.69,2.19-4.41,3.25-4.38a9.77,9.77,0,0,1,5.9,2.88c1.3,1.26,1.74,3.48,2.39,5.33.92,2.61,1.68,5.28,2.79,8.83A36.12,36.12,0,0,0,303,71.82c1.34-3.57,2.54-7.2,3.93-10.76,1.18-3,6.76-4.69,9.11-2.64a3.42,3.42,0,0,1,.67,3q-5.37,16.05-11,32c-1.15,3.23-3.33,4.18-6.24,2.39a12.65,12.65,0,0,1-4.63-5.4c-1.39-3.14-2-6.62-2.89-10Z"/><path class="cls-1" d="M206,77,218.25,60.3l1.48.23,3.09,15.93.93.07c1.65-4.61,3.25-9.24,5-13.82s2.47-4.93,6.93-4.6c3.45.25,4,1,3,4.46-2.37,7.42-4.87,14.81-7.3,22.21-1,3.15-1.93,6.36-3.11,9.45-1.39,3.62-3.33,4.59-6.47,2.42-2.42-1.68-4.26-4.4-5.88-7-1.08-1.71-1.32-4-2.23-6.86l-7.39,8.32c-3.13,3.52-6.88,5.64-11.77,5.46-2.42-.09-3.85-.7-3.11-3.57,2.64-10.28,5.12-20.61,7.84-30.87a5.54,5.54,0,0,1,8.05-3.77c.88.43,1.62,2.42,1.42,3.52-.66,3.75-1.78,7.42-2.68,11.13-.31,1.25-.47,2.54-.7,3.81Z"/><path class="cls-1" d="M361.18,84.5c-.91,2.36-1.91,4.68-2.71,7.08-2.07,6.24-4.27,7.22-11.07,4.55a10.48,10.48,0,0,1,.27-2.26c3.4-10.07,6.94-20.09,10.24-30.19C359.1,60,361,58,365.05,58.39c3.13.26,6.36-.25,9.44.23,6.82,1,10,5.75,7.75,12.19a27.15,27.15,0,0,1-6.13,9.35c-1.94,2-2.51,3.62-1.5,6.08s1.88,5,2.77,7.48c.79,2.22.08,3.44-2.35,3.81-6.23,1-8-.06-9.86-6-.73-2.32-1.54-4.61-2.31-6.92ZM372.8,69.23c-6-2-7.36-1-7.11,4.66C369.11,74.18,371.72,73.34,372.8,69.23Z"/><path class="cls-1" d="M331.51,72.48c3.34,0,6.28-.09,9.22,0,4,.15,4.42.74,3.46,4.47-1.22,4.7-2,5.34-6.84,5.41-2.16,0-4.32-.07-6.48,0-3.56.16-3.56.2-4.23,5.26,3.37,0,6.64,0,9.92,0,2.67,0,3.53,1.19,2.85,3.8-1.36,5.24-2.29,6-7.94,6-2.49,0-5,.12-7.48-.06-5.92-.41-9.47-4.48-7.94-10.1a161.85,161.85,0,0,1,7.38-21.11,13,13,0,0,1,10.94-7.72,105.47,105.47,0,0,1,12.45-.11c2.75.05,3.23,1.49,2.47,4-1.43,4.76-2.36,5.61-7.27,5.68-2,0-4,0-6,.05S332.06,68.7,331.51,72.48Z"/><path class="cls-1" d="M176.4,87l12.25.58c.63,7-1.46,9.51-7.57,9.54a58.08,58.08,0,0,1-8.45-.29c-5.66-.81-8.14-4.54-6.43-10,2.7-8.53,5.68-17,8.67-25.41,1.08-3.06,6.82-4.91,9.07-2.85.74.68.76,2.75.38,4-2,6.48-4.34,12.88-6.5,19.33C177.31,83.45,177,85,176.4,87Z"/><path class="cls-1" d="M149.53,87.31c3.43,0,6.33-.09,9.22,0,3.58.14,4,.86,3.05,4.23-1.51,5.12-2,5.57-7.22,5.56a60.25,60.25,0,0,1-9.42-.4c-4.67-.75-7.2-4.13-5.89-8.6,2.7-9.21,5.86-18.28,9-27.34.93-2.65,7.33-4,9-1.89.75,1,.55,3.1.11,4.49-2.16,6.78-4.56,13.48-6.85,20.22C150.24,84.5,150,85.44,149.53,87.31Z"/><path class="cls-1" d="M242.15,97.2c-4.86,0-5.45-.71-4-5,3.23-9.77,6.56-19.52,9.84-29.27.76-2.27,1.6-4.23,4.55-4.55,5.7-.61,6.91.71,5.08,6-3.23,9.42-6.5,18.83-9.65,28.28C246.91,95.8,245.28,97.69,242.15,97.2Z"/><path class="cls-1" d="M398.86,60.73c0,3-3.6,6-7.13,5.88a6.06,6.06,0,0,1-5.7-6.32,5.78,5.78,0,0,1,5.88-5.56C395.69,54.71,398.87,57.45,398.86,60.73Z"/></g></g></svg>