<svg xmlns="http://www.w3.org/2000/svg" viewBox="0 0 193.32 193.32"><defs><style>.cls-1{fill:#4d4d4d;}.cls-2{fill:#00a76f;}.cls-3{fill:#fff;}</style></defs><title>amd-circle</title><g id="Layer_2" data-name="Layer 2"><g id="Layer_1-2" data-name="Layer 1"><circle class="cls-1" cx="96.66" cy="96.66" r="96.66"/><path class="cls-2" d="M172.37,114.22a6.4,6.4,0,0,1-.51-.4c-3-2.93-5.89-5.87-8.85-8.79a1.59,1.59,0,0,1-.5-1.23c0-4.79,0-9.58,0-14.37v-1H147.09a1.55,1.55,0,0,1-1.23-.5q-4.63-4.66-9.29-9.29h35.8Z"/><path class="cls-3" d="M93.74,81.12v31.05H86V92.87a6.09,6.09,0,0,0-.49.46L78,102a1.26,1.26,0,0,1-2.18,0l-7-8.1-.89-1v19.3H60.12V81.08c1.58,0,3.14.11,4.67,0a3.65,3.65,0,0,1,3.48,1.58c2.64,3.21,5.43,6.3,8.16,9.44.14.17.29.32.5.54.19-.21.37-.4.54-.6q4.53-5.2,9.06-10.42a1.32,1.32,0,0,1,1.13-.52c1.77,0,3.55,0,5.32,0C93.22,81.08,93.46,81.1,93.74,81.12Z"/><path class="cls-3" d="M99.76,112.2V81.08h.74c4.34,0,8.67,0,13,0a20.09,20.09,0,0,1,9,1.85c5.73,2.86,8.32,7.64,8.35,13.89a14.27,14.27,0,0,1-4.3,10.92,16.09,16.09,0,0,1-9,4.1,34.86,34.86,0,0,1-4.78.38c-4.12.06-8.23,0-12.35,0C100.21,112.24,100,112.22,99.76,112.2Zm7.85-25.52V106.4c2.38,0,4.71.18,7,0A8.31,8.31,0,0,0,122,101a12.09,12.09,0,0,0,.78-5.13c-.19-4.74-2.88-8-7.57-8.78A70.79,70.79,0,0,0,107.61,86.68Z"/><path class="cls-3" d="M56.42,112.24H54c-1.7,0-3.4,0-5.1,0a1,1,0,0,1-1.18-.8c-.62-1.63-1.33-3.22-2-4.84a.72.72,0,0,0-.81-.54q-6.44,0-12.87,0a.7.7,0,0,0-.79.55c-.63,1.71-1.27,3.41-1.94,5.09-.09.22-.38.5-.58.5-2.51,0-5,0-7.54,0-.07,0-.13,0-.25-.09.1-.26.17-.51.27-.75q6-14.77,12-29.55a1.05,1.05,0,0,1,1.18-.78c2.52,0,5,0,7.55,0a.82.82,0,0,1,.89.55q6.69,15,13.41,30.06C56.28,111.83,56.32,112,56.42,112.24ZM38.14,88.53l-4.57,12.08h9.61Z"/><path class="cls-2" d="M160.51,104.54c-.3.32-.45.5-.62.67-3,3-6,6-9,8.94a1.69,1.69,0,0,1-1.07.47c-4.29,0-8.57,0-12.86,0h-.65c0-.28-.05-.52-.05-.75,0-4.25,0-8.5,0-12.75a1.49,1.49,0,0,1,.34-1q4.66-4.69,9.36-9.33c.08-.08.18-.15.38-.32v14Z"/></g></g></svg>