<svg xmlns="http://www.w3.org/2000/svg" viewBox="0 0 193.32 98.65"><defs><style>.cls-1{fill:#4d4d4d;}.cls-2{fill:#00a76f;}.cls-3{fill:#fff;}</style></defs><title>amd-rect</title><g id="Layer_2" data-name="Layer 2"><g id="Layer_1-2" data-name="Layer 1"><rect class="cls-1" width="193.32" height="98.65"/><path class="cls-2" d="M172.37,66.89c-.17-.14-.35-.26-.51-.41-3-2.93-5.89-5.87-8.85-8.79a1.59,1.59,0,0,1-.5-1.23c0-4.79,0-9.58,0-14.37v-1h-1c-4.82,0-9.65,0-14.48,0a1.59,1.59,0,0,1-1.23-.51c-3.09-3.11-6.19-6.19-9.29-9.29h35.8Z"/><path class="cls-3" d="M93.74,33.78V64.83H86V45.53a6.09,6.09,0,0,0-.49.46Q81.77,50.31,78,54.64a1.26,1.26,0,0,1-2.18,0l-7-8.1-.89-1v19.3H60.12V33.74c1.58,0,3.14.12,4.67,0a3.65,3.65,0,0,1,3.48,1.59c2.64,3.2,5.43,6.29,8.16,9.43.14.17.29.32.5.54.19-.21.37-.4.54-.6q4.53-5.2,9.06-10.41a1.3,1.3,0,0,1,1.13-.53c1.77,0,3.55,0,5.32,0C93.22,33.74,93.46,33.77,93.74,33.78Z"/><path class="cls-3" d="M99.76,64.86V33.74h.74c4.34,0,8.67,0,13,0a20.09,20.09,0,0,1,9,1.85c5.73,2.86,8.32,7.64,8.35,13.9a14.3,14.3,0,0,1-4.3,10.92,16.14,16.14,0,0,1-9,4.09,34.88,34.88,0,0,1-4.78.39c-4.12,0-8.23,0-12.35,0C100.21,64.9,100,64.88,99.76,64.86Zm7.85-25.52V59.07c2.38,0,4.71.17,7,0A8.32,8.32,0,0,0,122,53.65a12.09,12.09,0,0,0,.78-5.13c-.19-4.74-2.88-8-7.57-8.77A68.29,68.29,0,0,0,107.61,39.34Z"/><path class="cls-3" d="M56.42,64.9H54c-1.7,0-3.4,0-5.1,0a1,1,0,0,1-1.18-.8c-.62-1.63-1.33-3.22-2-4.84a.74.74,0,0,0-.81-.54H32.05a.71.71,0,0,0-.79.56c-.63,1.7-1.27,3.4-1.94,5.09-.09.21-.38.49-.58.49-2.51,0-5,0-7.54,0-.07,0-.13,0-.25-.09.1-.26.17-.51.27-.75q6-14.77,12-29.55a1.05,1.05,0,0,1,1.18-.78c2.52,0,5,0,7.55,0a.82.82,0,0,1,.89.55q6.69,15,13.41,30.06C56.28,64.49,56.32,64.65,56.42,64.9ZM38.14,41.19,33.57,53.27h9.61Z"/><path class="cls-2" d="M160.51,57.21c-.3.31-.45.49-.62.66-3,3-6,6-9,8.94a1.69,1.69,0,0,1-1.07.47c-4.29,0-8.57,0-12.86,0h-.65c0-.28-.05-.52-.05-.75,0-4.25,0-8.5,0-12.75a1.49,1.49,0,0,1,.34-1q4.66-4.68,9.36-9.33c.08-.08.18-.15.38-.32v14Z"/></g></g></svg>