<svg xmlns="http://www.w3.org/2000/svg" viewBox="0 0 151.41 35.96"><defs><style>.cls-1{fill:#00a76f;}</style></defs><title>amd</title><g id="Layer_2" data-name="Layer 2"><g id="Layer_1-2" data-name="Layer 1"><path class="cls-1" d="M151.41,35.54a5,5,0,0,1-.5-.41c-2.95-2.93-5.89-5.87-8.85-8.78a1.56,1.56,0,0,1-.5-1.23c0-4.79,0-9.58,0-14.37v-1H126.13a1.61,1.61,0,0,1-1.23-.5c-3.08-3.11-6.19-6.2-9.29-9.29h35.8Z"/><path d="M72.79,2.44V33.49H65V14.19c-.22.21-.37.32-.48.45L57.07,23.3a1.26,1.26,0,0,1-2.18,0l-7-8.1-.9-1v19.3H39.16V2.4c1.59,0,3.15.11,4.68,0A3.64,3.64,0,0,1,47.31,4c2.65,3.21,5.43,6.3,8.16,9.44l.5.54c.2-.21.38-.4.55-.6q4.53-5.2,9-10.42a1.34,1.34,0,0,1,1.13-.53c1.78,0,3.55,0,5.33,0C72.27,2.4,72.51,2.42,72.79,2.44Z"/><path d="M78.8,33.52V2.4h.74c4.34,0,8.68,0,13,0a20,20,0,0,1,9,1.85c5.74,2.85,8.32,7.63,8.35,13.89a14.2,14.2,0,0,1-4.3,10.92,16.13,16.13,0,0,1-9,4.1,34.88,34.88,0,0,1-4.79.38c-4.11.05-8.23,0-12.35,0C79.25,33.56,79.06,33.54,78.8,33.52ZM86.66,8V27.72c2.38,0,4.7.18,7,0a8.33,8.33,0,0,0,7.42-5.37,12.11,12.11,0,0,0,.78-5.13c-.2-4.74-2.89-8-7.58-8.78A70.6,70.6,0,0,0,86.66,8Z"/><path d="M35.46,33.56H33c-1.7,0-3.4,0-5.1,0a1,1,0,0,1-1.17-.8c-.63-1.63-1.34-3.22-2-4.84a.75.75,0,0,0-.82-.55q-6.42,0-12.86,0a.72.72,0,0,0-.8.56Q9.37,30.52,8.36,33a.85.85,0,0,1-.57.5c-2.52,0-5,0-7.55,0A1.07,1.07,0,0,1,0,33.46c.09-.26.17-.51.27-.76q6-14.76,12-29.54a1.06,1.06,0,0,1,1.19-.78c2.51,0,5,0,7.54,0a.8.8,0,0,1,.89.55Q28.53,18,35.26,33C35.32,33.14,35.37,33.3,35.46,33.56ZM17.19,9.85,12.61,21.93h9.61Z"/><path class="cls-1" d="M139.55,25.86c-.29.32-.45.5-.62.67-3,3-6,6-9,8.94a1.72,1.72,0,0,1-1.06.47c-4.29,0-8.58,0-12.87,0h-.65c0-.29,0-.52,0-.76q0-6.38,0-12.74a1.5,1.5,0,0,1,.35-1c3.1-3.13,6.23-6.23,9.35-9.33l.38-.33v14Z"/></g></g></svg>