<svg xmlns="http://www.w3.org/2000/svg" viewBox="0 0 999.55 871.94"><defs><style>.cls-1{fill:#32dd84;}.cls-2{fill:#020202;}.cls-3{fill:#010101;}.cls-4{fill:#030303;}</style></defs><title>android-portrait</title><g id="Layer_2" data-name="Layer 2"><g id="Layer_1-2" data-name="Layer 1"><path class="cls-1" d="M183.82,0h8c5.92,2.46,9.76,6.85,12.93,12.41,19.55,34.21,39.33,68.29,59,102.4q11.09,19.19,22.14,38.25a9.55,9.55,0,0,0,1.87-.2c1.25-.45,2.48-1,3.7-1.49,52-23.09,106.42-36.52,163-41.36a535.2,535.2,0,0,1,122.42,3.7,494.58,494.58,0,0,1,130.82,37.57c4.51,2,6.31,1.42,8.74-2.82,25.77-45,51.83-89.86,77.64-134.86C797.4,7.86,801,2.82,807.19,0h8C829,6.42,831.77,15.49,824,28.9q-39.32,68-78.57,136.08c-.64,1.1-1.13,2.28-1.56,3.17,150.86,87.64,234.43,218.61,255.66,391.49H7.31c-1.16,0-2.56.4-3.44-.11-1.22-.7-2.06-2.08-3.07-3.17.46-4,.87-7.93,1.39-11.88,6-46,17.3-90.67,35.47-133.43Q103.39,256.4,249.17,172.6c2.26-1.3,4.46-2.68,6.84-4.1-11.93-20.69-23.64-41-35.35-61.27q-23.31-40.37-46.6-80.75c-6.25-10.91-2.88-20.6,8.6-25.62A6.69,6.69,0,0,0,183.82,0Zm45,377.67a41.86,41.86,0,0,0,83.71.35c.14-22.93-18.87-42.15-41.75-42.21A42,42,0,0,0,228.77,377.67Zm541.78.07a41.7,41.7,0,1,0-41.83,41.78A41.82,41.82,0,0,0,770.55,377.74Z"/><path class="cls-2" d="M0,784.1c1-3.57,2.06-7.12,3-10.7,8.78-32.42,37.2-53.57,70.74-52.15,16.56.71,30.4,7.62,41.79,20.94V724.56h32.26V869c-8,0-15.76.2-23.53-.08-4.62-.16-8.13-4.19-8.43-9-.16-2.65,0-5.32,0-8.2-.59.17-1.15.17-1.38.44-20.28,24.14-59.33,25.8-85.15,6.48C14.41,847.53,5.6,832.54,1.82,814.43A46.35,46.35,0,0,0,0,809.07Zm32.69,12.09c.43,3.63.57,7.31,1.33,10.86,3.59,16.73,13.1,28.7,29.63,33.8,16,5,30.39.83,41.88-11.3,10.68-11.28,14.5-25,12.38-40.45-3.69-26.89-28.47-43.86-54-36.9C45.49,757.22,33,774.94,32.69,796.19Z"/><path class="cls-3" d="M966.7,741.79V652.36h32V869c-7.85,0-15.62.17-23.38-.07a9,9,0,0,1-8.49-8.33c-.26-2.79,0-5.63,0-9-.9.47-1.53.61-1.86,1-21.54,25.12-64.13,25.68-89.81,1.85-21.21-19.67-27.33-44.66-23-72.36,4.43-28,19.87-48.22,47-57.37,24.65-8.3,47.26-3.94,65.72,15.72A16.88,16.88,0,0,0,966.7,741.79Zm-82.61,54.77c0,1.66-.09,3.33,0,5,1.09,18.15,13.5,34.26,30.3,39.39,16.61,5.07,33.92-.58,44.9-14.66,14-18,13.25-44.35-1.8-61.63-14.61-16.78-41-18.86-57.9-4.37C888.55,769.78,883.94,782.22,884.09,796.56Z"/><path class="cls-3" d="M455.41,741.77V652.34h32V869c-8,0-16.09.26-24.16-.11-4.3-.19-7.54-4.41-7.78-9-.15-2.62,0-5.25,0-7.83-.59,0-1-.13-1.17,0-24.67,29.5-77.45,26.4-101.94-10.79-22.29-33.83-14.8-83.19,16.39-106.57,22.92-17.19,54.35-18.26,75.89-2.43C448.28,734.94,451.49,738.28,455.41,741.77Zm-83.14,54.47c.47,3.78.6,7.64,1.45,11.34,3.88,16.84,13.58,28.72,30.52,33.51,16,4.54,30,.11,41.24-11.93,10.33-11.09,14-24.57,12.08-39.61-3.4-27.08-28.44-44.4-54.11-37.34C385,757.28,372.6,775,372.27,796.24Z"/><path class="cls-2" d="M616.17,796.32c.08-42.71,33-75.42,75.74-75.27s76.32,33.4,76.21,75.23c-.1,42.9-33.37,75.69-76.73,75.64C648.38,871.88,616.08,839.41,616.17,796.32Zm75.63,45.79c24,0,43.3-20.31,43.36-45.48.06-25.59-19.15-45.55-43.73-45.44-24.27.1-42.94,19.9-43,45.6C648.35,822,667.63,842.14,691.8,842.11Z"/><path class="cls-3" d="M183.8,724.46h32.27v16.3c.93-.45,1.43-.53,1.65-.83,15.17-19.65,43.07-22.64,62.66-15.35,20.62,7.66,34.19,27.76,34.36,51.43.23,30.79.06,61.58.06,92.85-8.31,0-16.58.4-24.78-.16-4.74-.32-7.4-4.94-7.4-10.88,0-24,0-47.94-.08-71.91a49,49,0,0,0-1.3-11.85c-6.07-23.63-33.05-31.36-51.18-14.66-10.21,9.39-14,21.53-14,35.05,0,24.63,0,49.26,0,74.41-8.48,0-16.9.34-25.27-.14-4.37-.25-6.94-4.37-7-9.53-.07-9.82,0-19.64,0-29.46Z"/><path class="cls-3" d="M523.41,724.46H555.5v21.68c11.36-20.21,28.71-25.91,50.53-22.36v32.59c-5.62-.62-11.25-2-16.78-1.69-17.2,1-30.48,14.39-32.68,33.29-1,8.88-.83,17.92-.89,26.89-.11,17.92,0,35.85,0,54.14-8.31,0-16.26.23-24.18-.08-4.84-.19-7.92-3.93-8-9.13-.13-8.49-.05-17-.05-25.46V724.46Z"/><path class="cls-3" d="M793.25,724.25h32V868.94c-8.07,0-16.39.53-24.56-.32-2.6-.27-4.9-4.16-7.13-6.58-.54-.58-.35-1.91-.35-2.9C793.24,814.42,793.25,769.7,793.25,724.25Z"/><path class="cls-4" d="M830.53,671.91a21.32,21.32,0,1,1-20.85-21.63A21.43,21.43,0,0,1,830.53,671.91Z"/></g></g></svg>