<svg xmlns="http://www.w3.org/2000/svg" viewBox="0 0 1199.01 182.02"><defs><style>.cls-1{fill:#3edb84;}.cls-2{fill:#030303;}.cls-3{fill:#040404;}.cls-4{fill:#020202;}.cls-5{fill:#010101;}</style></defs><title>android-horizontal</title><g id="Layer_2" data-name="Layer 2"><g id="Layer_1-2" data-name="Layer 1"><path class="cls-1" d="M1199,180c-2-.06-4-.16-6-.16H881.19a152.52,152.52,0,0,1,24.45-72.31c14.2-22,33-39.27,56.38-52.35C960.79,53,959.75,51,958.62,49Q947.82,30.26,937,11.55c-1.93-3.3-3.09-6.5.68-9.16,2.94-2.08,6.24-.59,8.77,3.73,7.88,13.45,15.85,26.84,23.47,40.43,1.86,3.32,3.47,3.39,6.65,2.11,42.37-17.1,84.82-17.3,127.19,0,3.49,1.43,5.13,1.05,7-2.27,7.31-13,14.92-25.84,22.41-38.74.59-1,1.16-2,1.78-3,1.93-3,4.72-3.91,7.73-2.2s3.28,4.83,1.6,7.79c-3.67,6.49-7.48,12.91-11.23,19.36L1118.24,55c5.61,3.66,11.21,6.94,16.4,10.76,35.66,26.16,56.67,61.16,63.39,104.72a12.8,12.8,0,0,0,1,2.57Zm-86.18-45.52c7.62.2,13.47-5.19,13.76-12.68a13.26,13.26,0,0,0-26.49-1A13,13,0,0,0,1112.83,134.5Zm-145.61,0a13.08,13.08,0,1,0-13.27-13A12.74,12.74,0,0,0,967.22,134.5Z"/><path class="cls-2" d="M670.45,0c8.13,2.6,13.74,7.42,14.33,16.47A17.35,17.35,0,0,1,671,34.56,17.67,17.67,0,0,1,651.22,24,17.14,17.14,0,0,1,658,2.83L662.46,0Z"/><path class="cls-3" d="M797.62,1.83h26.07V179.55c-6.55,0-13,.27-19.41-.09-4.24-.25-6.37-3.29-6.68-7.4-.17-2.24,0-4.49,0-8-8.14,9.46-17.43,14.89-28.49,16.91-24,4.4-47-7.09-59.18-29.3-17.27-31.59-5.32-72.32,25.75-87.76C756.32,53.64,780,57.84,796,74.57c.29.31.66.56,1.64,1.37ZM764.45,82.31c-20.63,0-35.56,15.86-35.59,37.88s14.9,38,35.5,38,35.64-16,35.67-37.93S785.07,82.33,764.45,82.31Z"/><path class="cls-3" d="M376,76.11V1.86h25.89V179.47c-6.6,0-13.2.31-19.75-.12-4-.25-6-3.33-6.26-7.22-.16-2.25,0-4.53,0-7.95-8.1,9.24-17.32,14.73-28.35,16.79-24.07,4.49-47.4-7.18-59.54-29.59-16.9-31.22-5.08-71.65,25.43-87.17C329.67,55.93,355.72,54.18,376,76.11Zm2,44.26c.09-26.3-21.37-43.57-45.69-36.77-14,3.92-23.41,16.19-25.23,33-1.92,17.64,8,34.32,23.53,39.65C355,164.62,378,147.27,378,120.37Z"/><path class="cls-4" d="M95.66,76.15V61.08h25.82v118.2c-6.45,0-13.06.23-19.65-.09-3.8-.19-5.9-2.86-6.15-6.64-.17-2.44,0-4.9,0-7.66-.77.26-1.33.28-1.57.56-18,21.54-54.38,23.09-77.27-1.32C-9.52,136-4.13,88.27,27.49,67.35,45,55.81,74.16,52.79,95.66,76.15Zm-69,44.3c.09,17.08,9,30.76,23.33,35.75,23.88,8.33,46.68-8.15,47.72-34.48.68-17-8.38-31.87-22.76-37.23C50.26,75.27,26.55,92.92,26.69,120.45Z"/><path class="cls-4" d="M570.53,58.55c35.14,0,62.67,27.13,62.58,61.8C633,154.81,605.57,182,570.77,182c-35.16,0-62.5-27.07-62.45-61.88C508.38,85.44,535.51,58.61,570.53,58.55Zm-35.89,61.83c.07,21.3,15.28,37.17,35.81,37.34s36-16.09,35.95-37.65c-.09-21.3-15.49-37.39-35.78-37.39C550,82.68,534.57,98.88,534.64,120.38Z"/><path class="cls-5" d="M177.86,179.45c-6.39,0-12.22.12-18,0-5.45-.15-8.12-2.65-8.13-7.91q-.08-54.7,0-109.4A4.4,4.4,0,0,1,152.1,61h25.68V76.61c11.52-15.49,26.6-19.83,43.78-17.55,20.53,2.72,34.64,17.5,37.17,38.33a183.05,183.05,0,0,1,.94,20.83c.12,20.19,0,40.39,0,61.05-6.88,0-13.49.36-20-.12-5.27-.38-6.31-4.54-6.3-9.09q.06-26.85,0-53.71c0-3.14-.15-6.29-.44-9.42-1.17-12.92-8.16-22-18.62-24.2A28.38,28.38,0,0,0,183.93,96c-4.3,7.16-6,15.06-6,23.28-.11,18.23,0,36.46-.06,54.7Z"/><path class="cls-4" d="M431.67,60.93h26.5v17.7c9.85-15.55,23.39-21.47,41.36-18V87c-2.64-.49-5.14-1.11-7.67-1.39-17.91-2-31.63,9.19-33.12,28.25-1.06,13.5-.65,27.11-.81,40.68-.09,8.09,0,16.19,0,24.71-6.89,0-13.5.39-20-.13-4.82-.38-6.25-4.18-6.23-8.65.05-13.58,0-27.15,0-40.73V60.93Z"/><path d="M680.21,179.45c-6.12,0-11.94.13-17.75,0-5.31-.16-8-2.82-8-8q-.08-54.6,0-109.21a5.41,5.41,0,0,1,.35-1.16h25.39Z"/></g></g></svg>