<svg xmlns="http://www.w3.org/2000/svg" viewBox="0 0 137.74 59.77"><defs><style>.cls-1{fill:#e0e0e2;}</style></defs><title>Asset 6</title><g id="Layer_2" data-name="Layer 2"><g id="Layer_1-2" data-name="Layer 1"><polygon class="cls-1" points="119.77 25.98 121.59 27.8 109.23 40.16 112.36 43.29 127.85 27.8 119.77 19.73 99.14 40.36 112.16 53.38 115.28 50.25 105.39 40.36 119.77 25.98"/><path class="cls-1" d="M109.94,0,79.41,30.52l0,.06-13.1,13.1-1.81-1.81L86.92,19.5,69.07,1.65,50,20.73,40.22,11,19.86,31.32,23,34.49l17.19-17.2,6.61,6.6-1.76,1.76-4.85-4.84L24.79,36.25l3.11,3.11L40.22,27.05,42,28.77,38.7,32l.09.08L27.7,43.19,16.09,31.57,38.46,9.2,35.35,6.08,9.86,31.57,27.7,49.42,48.27,28.86l0,0L69.07,8,80.64,19.55,58.31,41.87l8,8.05L85.88,30.39h0l24-24L131.38,27.8,114.12,45.06l3.18,3.17L137.74,27.8Z"/><polygon class="cls-1" points="92.45 33.68 97.37 38.6 118.01 17.96 109.94 9.89 100.5 19.32 103.63 22.45 109.94 16.15 111.7 17.91 97.32 32.29 95.58 30.55 96.78 29.35 96.75 29.33 101.86 24.22 98.73 21.09 93.63 26.2 93.61 26.18 66.36 53.44 54.79 41.87 77.12 19.55 69.07 11.5 43.58 36.99 43.62 37.03 27.7 52.94 6.34 31.57 33.59 4.32 30.42 1.15 0 31.57 27.7 59.27 58.12 28.86 58.04 28.77 69.07 17.74 70.83 19.5 48.46 41.87 66.36 59.77 87.51 38.62 107.21 58.33 110.39 55.15 90.69 35.44 92.45 33.68"/></g></g></svg>