<svg xmlns="http://www.w3.org/2000/svg" viewBox="0 0 437.56 160.88"><defs><style>.cls-1{fill:#fff;}.cls-2{fill:#1170a5;}</style></defs><title>audio-logo-white</title><g id="Layer_2" data-name="Layer 2"><g id="Layer_1-2" data-name="Layer 1"><path class="cls-1" d="M206.08,159.23v-5.18h-.18c-2.07,4.23-7.77,6.83-14.08,6.83-14.16,0-24-11.15-24-25.66,0-14.17,10.28-25.57,24-25.57,5.88,0,11.32,2.33,14.08,6.74h.18v-5.1h14.33v47.94Zm0-24A12.17,12.17,0,0,0,193.9,123c-6.57,0-11.75,5.44-11.75,12.35a12,12,0,1,0,23.93-.17Z"/><path class="cls-1" d="M260,159.23v-5.09h-.17c-2.07,4.4-5.87,6.65-12.35,6.65-10.11,0-18.49-6-18.49-19.7v-29.8H243.3v26.87c0,6.3,2.25,9.24,7.69,9.24s8.21-3.63,8.21-9.5V111.29h14.34v47.94Z"/><path class="cls-1" d="M318.45,159.23v-5.18h-.17c-2.68,4.41-7.52,6.74-14.34,6.74-14.51,0-24-11.14-24-25.66,0-14.33,9.76-25.48,23.75-25.48a18.63,18.63,0,0,1,14.08,5.7v-20H332.1v63.92Zm.09-24.18a12.14,12.14,0,0,0-24.28,0c0,7.25,5.1,12.35,12,12.35A12,12,0,0,0,318.54,135.05Z"/><path class="cls-1" d="M340.74,106.2V95.31h14.33V106.2Zm0,53V111.29h14.33v47.94Z"/><path class="cls-1" d="M399.73,159.23v-5.18h-.17c-2.08,4.23-7.78,6.83-14.08,6.83-14.17,0-24-11.15-24-25.66,0-14.17,10.27-25.57,24-25.57,5.87,0,11.31,2.33,14.08,6.74h.17v-5.1h14.34v47.94Zm0-24A12.16,12.16,0,0,0,387.55,123c-6.56,0-11.75,5.44-11.75,12.35a12,12,0,1,0,23.93-.17Z"/><path class="cls-1" d="M423.22,159.23V95.31h14.34v63.92Z"/><path class="cls-2" d="M160.85,128.39H80.44a48,48,0,1,1,47.95-47.95v24.75h13.92V80.44a61.88,61.88,0,1,0-61.87,61.87h80.41Z"/><path class="cls-2" d="M160.85,147H80.44A66.52,66.52,0,1,1,147,80.44v24.75h13.93V80.44a80.44,80.44,0,1,0-80.44,80.44h80.41Z"/><path class="cls-2" d="M160.85,109.83H80.44a29.39,29.39,0,1,1,29.39-29.39v24.75h13.92V80.44a43.31,43.31,0,1,0-43.31,43.31h80.41Z"/></g></g></svg>