<svg xmlns="http://www.w3.org/2000/svg" viewBox="0 0 643.76 236.69"><defs><style>.cls-1{fill:#296992;}</style></defs><title>audial</title><g id="Layer_2" data-name="Layer 2"><g id="Layer_1-2" data-name="Layer 1"><path d="M303.19,234.27v-7.62h-.26c-3.05,6.22-11.43,10-20.71,10-20.84,0-35.33-16.4-35.33-37.75,0-20.84,15.12-37.61,35.33-37.61,8.64,0,16.65,3.43,20.71,9.91h.26v-7.5h21.09v70.53Zm0-35.33A17.9,17.9,0,0,0,285.27,181c-9.66,0-17.28,8-17.28,18.18A17.63,17.63,0,0,0,285.52,217C295.44,217,303.19,209.11,303.19,198.94Z"/><path d="M382.49,234.27v-7.5h-.26c-3.05,6.49-8.64,9.79-18.17,9.79-14.87,0-27.2-8.9-27.2-29V163.74H358v39.52c0,9.28,3.3,13.6,11.31,13.6s12.07-5.34,12.07-14V163.74h21.1v70.53Z"/><path d="M468.52,234.27v-7.62h-.25c-3.94,6.48-11.06,9.91-21.1,9.91-21.35,0-35.33-16.39-35.33-37.74,0-21.1,14.36-37.49,35-37.49,8.13,0,14.74,2.41,20.71,8.38V140.23h21.1v94Zm.13-35.58A17.45,17.45,0,0,0,450.73,181c-9.92,0-17.79,7.38-17.79,17.67,0,10.67,7.49,18.17,17.66,18.17S468.65,209.11,468.65,198.69Z"/><path d="M501.31,156.24v-16H522.4v16Zm0,78V163.74H522.4v70.53Z"/><path d="M588.1,234.27v-7.62h-.25c-3.05,6.22-11.44,10-20.72,10-20.84,0-35.33-16.4-35.33-37.75,0-20.84,15.13-37.61,35.33-37.61,8.65,0,16.65,3.43,20.72,9.91h.25v-7.5h21.1v70.53Zm0-35.33A17.9,17.9,0,0,0,570.18,181c-9.65,0-17.28,8-17.28,18.18A17.63,17.63,0,0,0,570.44,217C580.35,217,588.1,209.11,588.1,198.94Z"/><path d="M622.67,234.27v-94h21.09v94Z"/><path class="cls-1" d="M236.65,188.89H118.34a70.55,70.55,0,1,1,70.55-70.55v36.42h20.49V118.34a91,91,0,1,0-91,91H236.65Z"/><path class="cls-1" d="M236.65,216.2H118.34a97.86,97.86,0,1,1,97.87-97.86v36.42h20.48V118.34A118.35,118.35,0,1,0,118.34,236.69H236.65Z"/><path class="cls-1" d="M236.65,161.58H118.34a43.24,43.24,0,1,1,43.24-43.24v36.42h20.49V118.34a63.73,63.73,0,1,0-63.73,63.73H236.65Z"/></g></g></svg>