<svg xmlns="http://www.w3.org/2000/svg" viewBox="0 0 471.47 55"><defs><style>.cls-1{fill:#fff;}.cls-2{fill:#010101;}</style></defs><title>b-aktiv</title><g id="Layer_2" data-name="Layer 2"><g id="Layer_1-2" data-name="Layer 1"><path class="cls-1" d="M8.92,55C1.39,55,0,53.51,0,47.66V7.34C0,1.49,1.39,0,8.92,0H49.34C69.85,0,74.21,4.66,74.21,12.29c0,6.35-2.87,9.32-11.59,11.4-2.18.49-3.27.49-3.27,2.28v.1c0,1.88,1.09,2,3.27,2.27,7.43,1.09,14.56,3.37,14.56,12.39C77.18,54.1,58.56,55,47.56,55Zm11-34.48c0,2.28.69,3.07,3.46,3l18.73-.69c7.23-.3,12.28-1,12.28-7.53,0-5.95-3.66-7.73-10.8-7.73h-20c-2.77,0-3.66,1.19-3.66,3.47Zm3.46,9.41c-2.77-.1-3.46.69-3.46,3V44c0,2.28.89,3.47,3.66,3.47H44c8.12,0,12.19-2.38,12.19-8.82,0-7-5.65-7.83-13.68-8.13Z"/><path class="cls-2" d="M87.25,41c0,2.17,1.45,2.69,2.9,2l20.64-10.47c1.86-.93,2.18-2.07,2.18-4.25v-1c0-2.18-.32-3.21-2.18-4.25L90.15,12.13c-1.56-.83-2.9-.21-2.9,2Z"/><path class="cls-1" d="M135.14,40.13c-3.27,0-3.47.8-4.86,3.37C124.34,54.8,124.83,55,118.09,55c-4.65,0-6.14-1-4.45-4.16l25-45.68C140.88,1,142.76,0,148.21,0h18c5.45,0,7.33,1.09,9.61,5.15l23.38,42.31c3.27,6,2.08,7.53-7.23,7.53-13.38,0-13.18-.1-18-11.5-1.09-2.57-1.58-3.37-4.85-3.37Zm30-8c2.08,0,2.57-1.39,1.88-2.77L157,9.62c-.89-1.78-2-2.08-4.06-2.08h-1c-2.08,0-3.07.3-4.06,2.08L137.61,29.34c-.79,1.48-.19,2.77,1.88,2.77Z"/><path class="cls-1" d="M226.18,48.46c0,5.84-1.49,6.54-8.62,6.54h-2.38c-7.53,0-8.92-.7-8.92-6.54V6.55C206.26.7,207.65,0,215.18,0h2.38c7.13,0,8.62.69,8.62,6.54V20.32c0,2.28.49,3.47,3.27,3.47H230c3.37,0,4.36-.8,6.34-2.38L257.49,4.17C263-.39,264.62,0,269.87,0c6.44,0,7.33,2.18,4.06,4.46L253.82,19.82a2.69,2.69,0,0,0-1.49,2.68c0,1.19.2,1.58,1.49,2.67l24.67,22.3C283.74,52,283.44,55,270.17,55c-11.3,0-12.19-.1-17.54-5.26L236.38,34c-2.08-2.08-3-2.38-6.34-2.38h-.59c-2.78,0-3.27,1.19-3.27,3.47Z"/><path class="cls-1" d="M308.4,11.8c0-2.28-.89-3.47-3.67-3.47H282.64c-3,0-3.37-.89-3.37-4.26,0-2.77.4-4.06,3.37-4.06h71.43c3,0,3.37,1.29,3.37,4.06,0,3.37-.39,4.26-3.37,4.26H332c-2.78,0-3.67,1.19-3.67,3.47V48.46c0,5.84-1.48,6.54-8.62,6.54h-2.38c-7.52,0-8.91-.7-8.91-6.54Z"/><path class="cls-1" d="M383.09,48.46c0,5.84-1.49,6.54-8.62,6.54h-2.38c-7.53,0-8.91-.7-8.91-6.54V6.55C363.18.7,364.56,0,372.09,0h2.38c7.13,0,8.62.69,8.62,6.54Z"/><path class="cls-1" d="M432,45.29c.79,1.78,2,2.08,4.06,2.08H437c2.08,0,3.27-.2,4.06-2.08L458.58,4.17C459.87,1.2,461.06,0,466,0c4.66,0,6.54,1,4.86,4.16L450.36,49.84c-2,4.26-4.16,5.16-9.61,5.16H422.81c-5.45,0-7.43-1-9.61-5.16L393,7.54C390,1.3,391.6,0,403.39,0c8.33,0,9.51,2.08,11.4,6.24Z"/></g></g></svg>