<svg xmlns="http://www.w3.org/2000/svg" viewBox="0 0 623.16 72.71"><defs><style>.cls-1{fill:#fff;}.cls-2{fill:#00b7b0;}</style></defs><title>b-aktiv-logo</title><g id="Layer_2" data-name="Layer 2"><g id="Layer_1-2" data-name="Layer 1"><g id="Layer_2-2" data-name="Layer 2"><g id="Layer_1-2-2" data-name="Layer 1-2"><path class="cls-1" d="M11.79,72.71C1.84,72.71,0,70.74,0,63V9.71C0,2,1.84,0,11.79,0H65.22c27.1,0,32.87,6.16,32.87,16.25,0,8.39-3.8,12.31-15.32,15.06-2.88.65-4.32.65-4.32,3v.13c0,2.48,1.44,2.64,4.32,3C92.59,38.91,102,41.92,102,53.85c0,17.67-24.61,18.86-39.15,18.86ZM26.33,27.13c0,3,.91,4.06,4.57,4l24.76-.91c9.56-.4,16.23-1.33,16.23-10C71.89,12.37,67.05,10,57.62,10H31.18c-3.66,0-4.84,1.57-4.84,4.58ZM30.9,39.57c-3.66-.13-4.57.91-4.57,4V58.17c0,3,1.18,4.58,4.84,4.58h27c10.73,0,16.11-3.14,16.11-11.65,0-9.26-7.47-10.35-18.08-10.75Z" transform="translate(0 0)"/><path class="cls-2" d="M115.32,54.2c0,2.87,1.92,3.56,3.84,2.65L146.44,43c2.46-1.23,2.88-2.74,2.88-5.62V36.07c0-2.88-.42-4.24-2.88-5.62L119.16,16c-2.07-1.09-3.84-.27-3.84,2.65Z" transform="translate(0 0)"/><path class="cls-1" d="M178.62,53.05c-4.32,0-4.58,1.06-6.42,4.46-7.85,14.93-7.21,15.2-16.11,15.2-6.15,0-8.12-1.32-5.89-5.5L183.25,6.83c3-5.5,5.44-6.82,12.65-6.82h23.79c7.2,0,9.69,1.44,12.7,6.81l30.9,55.92c4.33,7.93,2.75,9.95-9.55,9.95-17.69,0-17.42-.13-23.79-15.2C228.5,54.1,227.86,53,223.53,53Zm39.65-10.57c2.75,0,3.4-1.84,2.49-3.66L207.52,12.73c-1.18-2.36-2.65-2.75-5.37-2.75h-1.32c-2.75,0-4.06.39-5.37,2.75L181.89,38.79c-1,2-.25,3.66,2.48,3.66Z" transform="translate(0 0)"/><path class="cls-1" d="M299,64.06c0,7.72-2,8.65-11.39,8.65h-3.15c-10,0-11.79-.93-11.79-8.65V8.67C272.62.94,274.46,0,284.41,0h3.15C297,0,299,.92,299,8.66V26.87c0,3,.65,4.59,4.33,4.59H304c4.46,0,5.77-1.06,8.38-3.15l28-22.79C347.62-.5,349.76,0,356.7,0c8.51,0,9.69,2.88,5.37,5.9l-26.58,20.3a3.54,3.54,0,0,0-2,3.54c0,1.57.26,2.09,2,3.53l32.6,29.47c6.94,6,6.55,10-11,10-14.94,0-16.11-.13-23.19-7L312.44,45c-2.75-2.75-4-3.15-8.38-3.15h-.78c-3.68,0-4.33,1.58-4.33,4.59Z" transform="translate(0 0)"/><path class="cls-1" d="M407.63,15.61c0-3-1.18-4.59-4.85-4.59h-29.2c-4,0-4.45-1.18-4.45-5.63,0-3.66.52-5.37,4.45-5.37H468c4,0,4.46,1.71,4.46,5.37,0,4.45-.52,5.63-4.46,5.63H438.82c-3.67,0-4.85,1.57-4.85,4.59V64.06c0,7.72-2,8.65-11.39,8.65h-3.15c-9.94,0-11.78-.93-11.78-8.65Z" transform="translate(0 0)"/><path class="cls-1" d="M506.35,64.06c0,7.72-2,8.65-11.39,8.65h-3.15c-9.95,0-11.78-.93-11.78-8.65V8.67C480,.94,481.86,0,491.81,0H495c9.42,0,11.39.91,11.39,8.65Z" transform="translate(0 0)"/><path class="cls-1" d="M571,59.87c1,2.36,2.64,2.75,5.36,2.75h1.25c2.74,0,4.32-.26,5.36-2.75L606.13,5.52C607.83,1.6,609.41,0,615.94,0c6.16,0,8.64,1.32,6.42,5.5l-27.1,60.38c-2.64,5.63-5.49,6.82-12.7,6.82H558.85c-7.2,0-9.82-1.32-12.7-6.82L519.45,10c-4-8.25-1.85-10,13.73-10,11,0,12.57,2.75,15.07,8.25Z" transform="translate(0 0)"/></g></g></g></g></svg>