<svg xmlns="http://www.w3.org/2000/svg" viewBox="0 0 234 151"><defs><style>.cls-1{fill:#222;}.cls-2{fill:none;}</style></defs><title>battery</title><g id="Layer_2" data-name="Layer 2"><g id="Layer_1-2" data-name="Layer 1"><path class="cls-1" d="M101,7.17c-.25-5.89,3-6.56,7.42-6.38,6,.26,12,.28,18,0,4.48-.22,7.58.76,7.67,6.39,7.49,0,14.72.15,21.95,0,4.17-.12,5.84,1.36,5.83,5.67q-.14,66,0,132c0,4.6-1.82,5.94-6.19,5.92q-38.46-.19-76.92,0c-4.64,0-5.91-1.85-5.9-6.19q.15-65.74,0-131.48c0-4.55,1.7-6.12,6.13-6C86,7.34,93.1,7.17,101,7.17ZM81.91,16.5V141.17h71.18V16.5Z"/><path class="cls-1" d="M89,39V22.28h56.7V39Z"/><path class="cls-1" d="M88.92,87.17V70.67h56.72v16.5Z"/><path class="cls-1" d="M145.85,94.75v16.58H89V94.75Z"/><path class="cls-1" d="M89,135.41V118.65h56.7v16.76Z"/><path class="cls-1" d="M89,63V46.47h56.68V63Z"/><rect class="cls-2" width="234" height="151"/></g></g></svg>