<svg xmlns="http://www.w3.org/2000/svg" viewBox="0 0 237.11 237.08"><defs><style>.cls-1{fill:#222;}</style></defs><title>cpu-2</title><g id="Layer_2" data-name="Layer 2"><g id="Layer_1-2" data-name="Layer 1"><path class="cls-1" d="M119.08,0H230.61c6.09,0,6.5.48,6.5,6.56,0,13.78,0,27.55,0,41.33,0,5.57-.31,5.82-5.62,6.75a13.35,13.35,0,0,0-11.27,12.22c-.41,5.67,3.95,11.43,10,13.27,6.88,2.08,6.86,2.08,6.86,9.24q0,69.72,0,139.42c0,.5,0,1,0,1.5-.06,6.36-.38,6.73-6.83,6.73H7.68c-.83,0-1.66,0-2.49,0-4.14-.14-5-.9-5.11-4.94-.11-3.65-.07-7.31-.07-11q0-66.46,0-132.94c0-.83,0-1.67,0-2.49.16-4.07.38-4.4,4.48-5.06a14.16,14.16,0,0,0,10.25-6.34c5-7.78.58-17.73-8.69-19.59-6-1.2-6-1.2-6-7.41Q0,26.92.05,6.51C.06.36.4,0,6.54,0Zm-.37,7.77v0H13.17c-5.27,0-5.29,0-5.31,5.09,0,9.46.15,18.93-.13,28.38C7.61,45.16,8.8,47,12.47,48.65,20.6,52.28,25,59,24.67,68S20.12,83.61,11.59,86.79C8.44,88,7.8,89.64,7.81,92.66q.09,65.46,0,130.92A9.84,9.84,0,0,0,8,227a4,4,0,0,0,2.19,2.05,10.72,10.72,0,0,0,3.46.15q31.35,0,62.72,0,58.74,0,117.48,0a8.41,8.41,0,0,0,6.59-2.69q13.09-13.31,26.4-26.4a8,8,0,0,0,2.51-6.16q-.1-50.28,0-100.56c0-3.56-.7-5.53-4.42-7-9.78-3.86-14.48-14.34-11.72-24.53,1.83-6.75,6.22-11.17,12.5-13.89,1.84-.8,3.66-1.3,3.63-4-.12-11.12-.09-22.24-.07-33.35,0-2.15-1-3-3-2.94-1,0-2,0-3,0Zm110.48,211.7c0-2.15.07-4.31,0-6.45a7,7,0,0,0-.82-2.07,7.59,7.59,0,0,0-1.64,1c-3.43,3.36-6.85,6.72-10.19,10.17-1.93,2-3.68,4.14-5.52,6.22a79.25,79.25,0,0,0,8.52.84C230.77,229.07,229.05,230.73,229.19,219.47Z"/><path class="cls-1" d="M118.47,203.1c-23.4,0-46.8-.24-70.19.13-8.78.13-14.78-5.72-14.42-14.43.36-9,0-17.92.16-26.88.07-4.08-1-6.77-5.22-8.42-5-1.95-7.67-6.25-7.7-11.74-.07-12.94-.08-25.88,0-38.83A11,11,0,0,1,28.53,92.1c4.41-1.64,5.53-4.5,5.49-8.8-.13-15.93-.06-31.86,0-47.79,0-10,4.51-14.27,14.67-14.51a16.68,16.68,0,0,1,13.25,5.48c8.43,8.7,6.19,7.42,17.64,7.44,27.21,0,54.43-.07,81.64.09,4.69,0,8.43-1.07,11.34-4.79.82-1,1.95-1.82,2.79-2.85,5.06-6.17,11.86-6.13,18.69-4.78,5.46,1.08,9,5.84,9.08,11.63.18,9,.08,17.92.09,26.88,0,8.13.07,16.26-.06,24.39-.06,3.59,1.15,6,4.68,7.26,5.7,2.07,8.18,6.58,8.23,12.38.1,12.61,0,25.22,0,37.83a11.82,11.82,0,0,1-7.8,11.65c-4,1.59-5.14,4.13-5.1,8,.1,9.13-.31,18.27.12,27.38.4,8.57-5.82,14.32-14.1,14.21C165.59,202.89,142,203.1,118.47,203.1Zm.5-7.74v0h69.22c6,0,7.19-1.25,7.19-7.36,0-9.3.12-18.6,0-27.89-.09-6.41,2.63-10.9,8.52-13.22,2.88-1.14,4.33-3,4.34-6q0-18.18,0-36.35c0-2.57-1-4.65-3.49-5.51-7.52-2.62-9.58-8.19-9.46-15.61.25-15.6-.06-31.21.17-46.81.11-7.43-3.47-8.16-8.54-7.69a10.88,10.88,0,0,0-5.27,2.32,53.48,53.48,0,0,0-6,5.92A13.71,13.71,0,0,1,165,41.71q-46.57-.09-93.13,0a13.27,13.27,0,0,1-10.21-4.3,82.8,82.8,0,0,0-6.73-6.65c-3.09-2.62-6.82-2.56-10.35-1.19-3.3,1.27-2.85,4.48-2.85,7.3,0,16.1-.07,32.21,0,48.31,0,6.52-2.37,11.22-8.72,13.53-3.06,1.11-4.27,3.4-4.19,6.59.09,3.49,0,7,0,10.46q0,12.21,0,24.41c0,2.82.61,5.28,3.65,6.4,6.86,2.53,9.48,7.6,9.3,14.75-.24,9.12-.12,18.26-.08,27.39,0,5.1,1.36,6.39,6.51,6.62,1.32.06,2.65.05,4,.05Z"/><path class="cls-1" d="M139.37,220.51a3.41,3.41,0,0,1-3.68,3.65,3.63,3.63,0,0,1-3.94-3.49,3.89,3.89,0,0,1,4-4A3.94,3.94,0,0,1,139.37,220.51Z"/><path class="cls-1" d="M220.05,20.87a3.89,3.89,0,0,1-3.73,3.8,4,4,0,0,1-3.86-4.18A3.92,3.92,0,0,1,216.52,17,3.52,3.52,0,0,1,220.05,20.87Z"/><path class="cls-1" d="M186.37,224.07a3.83,3.83,0,0,1-3.75-3.72,4.32,4.32,0,0,1,4.26-3.87,4,4,0,0,1,3.33,4.16A3.33,3.33,0,0,1,186.37,224.07Z"/><path class="cls-1" d="M105.38,220.31a3.82,3.82,0,0,1-4.2,3.78c-2.11-.11-3.33-1.17-3.4-3.36a4.08,4.08,0,0,1,3.88-4.19A3.84,3.84,0,0,1,105.38,220.31Z"/><path class="cls-1" d="M122.37,220.61a3.79,3.79,0,1,1-7.56-.6,3.93,3.93,0,0,1,4.07-3.39A3.84,3.84,0,0,1,122.37,220.61Z"/><path class="cls-1" d="M122.33,24.9a3.65,3.65,0,0,1-3.62,3.81,3.72,3.72,0,0,1-4-3.47,3.93,3.93,0,0,1,3.9-4.13A3.76,3.76,0,0,1,122.33,24.9Z"/><path class="cls-1" d="M24.67,20.85a3.9,3.9,0,0,1-3.73,3.78,3.67,3.67,0,0,1-3.82-4.08,3.78,3.78,0,0,1,7.55.3Z"/><path class="cls-1" d="M88.41,24.91a3.77,3.77,0,0,1-3.75,3.79A3.6,3.6,0,0,1,80.87,25a3.67,3.67,0,0,1,3.7-3.82A3.87,3.87,0,0,1,88.41,24.91Z"/><path class="cls-1" d="M101.58,28.7a3.7,3.7,0,0,1-3.79-3.65,3.77,3.77,0,0,1,4-3.94,4,4,0,0,1,3.57,3.94A3.71,3.71,0,0,1,101.58,28.7Z"/><path class="cls-1" d="M139.31,24.69a3.75,3.75,0,0,1-3.41,4A3.66,3.66,0,0,1,131.75,25a3.85,3.85,0,0,1,3.67-3.83A3.68,3.68,0,0,1,139.31,24.69Z"/><path class="cls-1" d="M152.57,21.15a3.8,3.8,0,0,1,3.73,3.74,3.72,3.72,0,0,1-4.07,3.86,3.8,3.8,0,0,1-3.52-3.95A3.89,3.89,0,0,1,152.57,21.15Z"/><path class="cls-1" d="M28.74,165.36a3.67,3.67,0,0,1-3.81,3.72,3.81,3.81,0,0,1-3.72-3.86,3.74,3.74,0,0,1,3.85-3.69A3.62,3.62,0,0,1,28.74,165.36Z"/><path class="cls-1" d="M212.23,161.53a3.78,3.78,0,0,1,3.73,3.74,3.94,3.94,0,0,1-4.15,3.86,3.79,3.79,0,0,1-3.43-4A3.64,3.64,0,0,1,212.23,161.53Z"/><path class="cls-1" d="M28.74,182.41A3.66,3.66,0,0,1,25,186a3.92,3.92,0,0,1-3.78-4.2,3.83,3.83,0,0,1,4.08-3.37A3.73,3.73,0,0,1,28.74,182.41Z"/><path class="cls-1" d="M212.1,186.07a3.71,3.71,0,0,1-3.71-3.72,3.64,3.64,0,0,1,3.54-3.85,3.87,3.87,0,0,1,4,4A3.82,3.82,0,0,1,212.1,186.07Z"/><path class="cls-1" d="M62.69,212.08a3.71,3.71,0,0,1-3.77,3.76,4.23,4.23,0,0,1-3.78-3.93,3.86,3.86,0,0,1,4-3.62A3.33,3.33,0,0,1,62.69,212.08Z"/><path class="cls-1" d="M79.67,211.75a3.83,3.83,0,0,1-3.35,4.1,4.2,4.2,0,0,1-4.21-3.9,3.83,3.83,0,0,1,3.78-3.69A3.31,3.31,0,0,1,79.67,211.75Z"/><path class="cls-1" d="M106.11,211.82a3.93,3.93,0,0,1,4.45-3.56c2.15.21,3.29,1.77,3.06,4.18a3.53,3.53,0,0,1-4,3.4A4.06,4.06,0,0,1,106.11,211.82Z"/><path class="cls-1" d="M67.54,216.53a4.33,4.33,0,0,1,3.89,3.86,3.76,3.76,0,0,1-3.86,3.7,3.31,3.31,0,0,1-3.69-3.68A3.75,3.75,0,0,1,67.54,216.53Z"/><path class="cls-1" d="M177.85,208.31a4,4,0,0,1,4.14,3.45,4.3,4.3,0,0,1-3.64,4.07,3.71,3.71,0,0,1-3.92-3.59A3.35,3.35,0,0,1,177.85,208.31Z"/><path class="cls-1" d="M20.76,212.4A4,4,0,0,1,24.71,216a3.83,3.83,0,0,1-3.92,4,3.68,3.68,0,0,1-3.66-3.78A3.75,3.75,0,0,1,20.76,212.4Z"/><path class="cls-1" d="M76.24,12.94a3.3,3.3,0,0,1,3.41,3.88,3.79,3.79,0,0,1-3.93,3.56,4.29,4.29,0,0,1-3.6-4A3.94,3.94,0,0,1,76.24,12.94Z"/><path class="cls-1" d="M144.22,215.89A3.76,3.76,0,0,1,140.5,212a3.34,3.34,0,0,1,3.61-3.77A3.92,3.92,0,0,1,148,212,4.11,4.11,0,0,1,144.22,215.89Z"/><path class="cls-1" d="M165,212.09a4,4,0,0,1-3.87,3.77,3.75,3.75,0,0,1-3.62-3.92,3.34,3.34,0,0,1,3.71-3.66A3.88,3.88,0,0,1,165,212.09Z"/><path class="cls-1" d="M161.07,13a3.9,3.9,0,0,1,4,3.59,4.3,4.3,0,0,1-3.8,3.91,3.89,3.89,0,0,1-3.79-3.79A3.25,3.25,0,0,1,161.07,13Z"/><path class="cls-1" d="M54.49,220.56a3.9,3.9,0,0,1-4,3.53,3.29,3.29,0,0,1-3.54-3.75,3.85,3.85,0,0,1,3.82-3.71A4.29,4.29,0,0,1,54.49,220.56Z"/><path class="cls-1" d="M88.41,220.6a3.76,3.76,0,0,1-4,3.49,3.37,3.37,0,0,1-3.55-3.83,3.87,3.87,0,0,1,3.92-3.67A4.2,4.2,0,0,1,88.41,220.6Z"/><path class="cls-1" d="M92.94,208.24A3.36,3.36,0,0,1,96.63,212,3.7,3.7,0,0,1,93,215.86,4.15,4.15,0,0,1,89.12,212,3.89,3.89,0,0,1,92.94,208.24Z"/><path class="cls-1" d="M152.58,224.09a3.71,3.71,0,0,1-3.84-3.68,4.08,4.08,0,0,1,3.84-3.81,3.91,3.91,0,0,1,3.7,3.89C156.34,222.81,155,224.16,152.58,224.09Z"/><path class="cls-1" d="M173.25,220.65a3.33,3.33,0,0,1-3.89,3.43,3.75,3.75,0,0,1-3.66-3.84,4.18,4.18,0,0,1,4-3.62A3.91,3.91,0,0,1,173.25,220.65Z"/><path class="cls-1" d="M127.15,208.3a3.56,3.56,0,0,1,3.71,3.75,4,4,0,0,1-3.8,3.84c-2.1,0-3.57-1.57-3.56-3.88S124.86,208.26,127.15,208.3Z"/><path class="cls-1" d="M96.64,16.54A3.87,3.87,0,0,1,93,20.4a4.36,4.36,0,0,1-3.82-3.82A3.83,3.83,0,0,1,93,12.92,3.28,3.28,0,0,1,96.64,16.54Z"/><path class="cls-1" d="M220.59,194.57a4.35,4.35,0,0,1-4-3.66,3.81,3.81,0,0,1,3.78-3.68,3.28,3.28,0,0,1,3.75,3.5A3.64,3.64,0,0,1,220.59,194.57Z"/><path class="cls-1" d="M148,16.22c0,1.92-2.18,4.31-4.09,4.17a3.42,3.42,0,0,1-3.38-3.53c-.17-2.35,1.07-3.82,3.34-3.95A3.73,3.73,0,0,1,148,16.22Z"/><path class="cls-1" d="M109.86,20.29c-1.91-.13-3.85-2.12-3.77-3.87a3.92,3.92,0,0,1,4-3.53,3.35,3.35,0,0,1,3.54,3.75A3.63,3.63,0,0,1,109.86,20.29Z"/><path class="cls-1" d="M16.29,186.93a4.2,4.2,0,0,1,4.05,3.56,4.13,4.13,0,0,1-3.53,4,3.82,3.82,0,0,1-.52-7.61Z"/><path class="cls-1" d="M220.7,177.61a4.48,4.48,0,0,1-4-3.86c-.06-1.9,1.83-3.51,4-3.45s3.59,1.51,3.42,3.9C224,176.41,222.65,177.37,220.7,177.61Z"/><path class="cls-1" d="M130.85,16.25a3.82,3.82,0,0,1-7.63.53,3.83,3.83,0,0,1,7.63-.53Z"/><path class="cls-1" d="M16.54,177.33A3.3,3.3,0,0,1,13,173.61c.1-2.18,1.29-3.24,3.44-3.26a3.89,3.89,0,0,1,4,3.5A3.59,3.59,0,0,1,16.54,177.33Z"/><path class="cls-1" d="M84.41,59.43c2.33,0,3.6,1.44,4.09,4.67.58,3.76.58,3.76,4.78,3.7,3.91,0,3.91,0,4.39-3.62,0-.33,0-.66.06-1,.15-2.38,1.54-3.77,3.78-3.82s3.49,1.53,3.9,3.75c.26,1.42.23,3.59,1.07,4,1.45.77,3.48.53,5.28.61a2.43,2.43,0,0,0,2.86-2.63,17,17,0,0,1,.18-2.48c.37-2.2,1.89-3,3.94-3A3.35,3.35,0,0,1,122.39,63c.19,1.44.1,3.48,1,4.11,1.14.84,3.1.62,4.71.77,2.5.24,3.51-.89,3.69-3.44a6.15,6.15,0,0,1,1.94-4.18c2.47-1.77,5.15.14,5.76,3.59.24,1.32.81,3.52,1.53,3.64a18.82,18.82,0,0,0,6.76-.31c.48-.1.77-2,.85-3.1.17-2.47,1.06-4.17,3.78-4.31,2.53-.13,3.73,1,4,4.48.16,2.35.9,3.43,3.32,4a11.64,11.64,0,0,1,9.12,8.92c.59,2.52,1.59,3.79,4.29,3.62,2.45-.15,4.24.8,4.34,3.6.09,2.48-1.16,3.61-4.49,4.15-3.65.58-3.69.64-3.66,4.86,0,3.79,0,3.79,3.71,4.32,3.38.48,4.58,1.56,4.42,4.08-.17,2.73-2,3.45-4.38,3.71-3.73.39-3.72.51-3.75,4.2,0,4.34,0,4.36,4.07,5,3.13.48,4.53,1.88,3.91,4.43C177,120.2,176,121.74,175,122c-3,.68-6,.18-5.95,5.13.09,4.59,2.76,4.28,5.7,4.9,1,.23,2.21,1.95,2.5,3.17.56,2.38-.84,3.63-3.67,4.19-1.37.27-3.63.55-3.84,1.3a18,18,0,0,0-.21,6.35c0,.52,1.06,1.16,1.75,1.37.93.28,2,.11,3,.3a3.55,3.55,0,0,1,3.12,3.87c0,2.1-1,3.78-3.2,3.62-3.55-.27-4.86,1.39-5.71,4.57-1.17,4.34-4.44,7-8.72,8.07-2.31.57-3.29,1.49-3.44,3.94-.22,3.59-1.32,4.63-3.83,4.58s-3.33-1.13-3.9-4.73c-.52-3.35-.61-3.42-4.6-3.41s-4.15.1-4.53,3.49c-.2,1.87-.2,3.69-2.4,4.44-2.81.94-4.66-.5-5.4-4-.28-1.3-.88-3.36-1.7-3.56a14,14,0,0,0-6.33.12c-.63.15-1,2.22-1.15,3.45-.25,2-.72,3.58-2.93,4.07-2.77.61-4.22-.71-4.86-4-.25-1.31-.89-3.44-1.63-3.57a20.79,20.79,0,0,0-6.75.33c-.4.07-.62,1.72-.77,2.66-.56,3.62-1.4,4.71-3.82,4.76s-3.46-1.05-4-4.56-.51-3.57-4.44-3.57c-4.12,0-4.12,0-4.75,3.78-.13.8-.08,2-.58,2.32a9.28,9.28,0,0,1-4.18,1.88c-1.94.13-3-1.46-2.9-3.31.21-3.23-1.13-4.65-4.27-5.39-4.41-1-7.1-4.29-8.24-8.53-.66-2.43-1.52-3.82-4.26-3.65-2.46.15-4.22-.85-4.35-3.62-.12-2.52,1.06-3.61,4.45-4.13,3.65-.56,3.74-.68,3.69-4.84-.05-3.86-.07-3.89-3.67-4.36s-4.58-1.38-4.47-4,1.84-3.57,4.29-3.82c1.21-.12,3.26-.63,3.36-1.24a17.2,17.2,0,0,0-.08-6.82c-.16-.66-2.56-.87-4-1.13-3.11-.58-4.76-3.21-3.17-5.7.66-1,2.36-1.42,3.62-2s3.42-.84,3.63-1.64a18.59,18.59,0,0,0,0-6.36c0-.45-1.24-.94-2-1.12-1.11-.27-2.6.11-3.37-.49-1.18-.92-2.63-2.47-2.59-3.7S61.34,99,62.4,97.82c.17-.19.63-.1,1-.15,4.57-.77,4.42-.77,4.54-5,.09-2.9-.75-4.12-3.88-4.27-3.76-.17-5.84-3.57-3.85-5.9.89-1,2.82-1.55,4.32-1.66,2.17-.17,3.17-.9,3.68-3.11,1.11-4.93,4.24-8.33,9.2-9.43,2.74-.6,3.38-1.91,3.46-4.43C80.93,60.76,82.26,59.43,84.41,59.43Zm-8.64,58.76c0,11.95,0,23.9,0,35.85,0,5.54,1.56,7.22,7,7.23q35.83.07,71.68,0c5.07,0,6.87-1.83,6.88-6.94q0-35.84,0-71.68c0-5.28-1.69-7-6.8-7q-36.09,0-72.19,0c-4.88,0-6.54,1.69-6.55,6.62C75.75,94.3,75.77,106.25,75.77,118.19Z"/><path class="cls-1" d="M118.19,122.7h18.42a15.45,15.45,0,0,1,3,.16c2.73.54,4,2,3.91,4.33s-1.71,3.47-3.82,3.86a19.09,19.09,0,0,1-3.47.19c-11.78,0-23.57,0-35.35,0a11.51,11.51,0,0,1-4.83-.72c-1.15-.56-2.56-2.16-2.5-3.23A5.47,5.47,0,0,1,96,123.5c1.3-.78,3.18-.74,4.81-.76C106.58,122.66,112.38,122.71,118.19,122.7Z"/><path class="cls-1" d="M118.69,114.25c-2.65,0-5.31.13-8,0S106,112.1,106,110s2.07-4.08,4.79-4.16c5.3-.17,10.6-.14,15.9,0a4.41,4.41,0,0,1,4.46,3.94c.32,2-1.83,4.18-4.5,4.4s-5.3,0-8,0Z"/><path class="cls-1" d="M118.55,144.45a3.87,3.87,0,1,1-.12,7.74,4,4,0,0,1-3.78-4.31A3.42,3.42,0,0,1,118.55,144.45Z"/><path class="cls-1" d="M139.37,148a4,4,0,0,1-3.86,4.17,3.9,3.9,0,0,1-3.87-3.65,4,4,0,0,1,3.93-4.11A3.56,3.56,0,0,1,139.37,148Z"/><path class="cls-1" d="M101.73,84.83a3.85,3.85,0,1,1-.54,7.68,3.85,3.85,0,0,1,.54-7.68Z"/><path class="cls-1" d="M122.41,88.53a3.81,3.81,0,0,1-3.59,4,3.87,3.87,0,1,1-.31-7.73A3.92,3.92,0,0,1,122.41,88.53Z"/><path class="cls-1" d="M139.36,88.8a3.72,3.72,0,0,1-3.73,3.72,3.81,3.81,0,0,1-4-4,4,4,0,0,1,4.26-3.78A3.93,3.93,0,0,1,139.36,88.8Z"/><path class="cls-1" d="M105.45,148.22a3.93,3.93,0,0,1-3.61,4,3.82,3.82,0,0,1-4.07-4,3.71,3.71,0,0,1,3.84-3.69A3.79,3.79,0,0,1,105.45,148.22Z"/></g></g></svg>