<svg xmlns="http://www.w3.org/2000/svg" viewBox="0 0 121.51 131.04"><defs><style>.cls-1{fill:#222;}</style></defs><title>deliver</title><g id="Layer_2" data-name="Layer 2"><g id="Layer_1-2" data-name="Layer 1"><path class="cls-1" d="M1.22,99c19.63,10.58,39.35,21.26,58.59,31.75.74.41,1.15.37,2.12-.15C79.54,121,100,109.91,120.18,99.07a2.08,2.08,0,0,0,1.33-2.32c-.06-7.86-.05-15.81,0-23.5V58.09c0-8,0-16.17,0-24.25,0-.92-.15-1.2-.86-1.58C101.7,22.05,81.8,11.28,61.5.24A1.5,1.5,0,0,0,60.77,0,1.72,1.72,0,0,0,60,.28C39.07,11.62,19.73,22.09.81,32.29c-.65.36-.79.61-.79,1.42,0,24.6,0,44.72,0,63.3A1.85,1.85,0,0,0,1.22,99Zm114.68-59,.14,1.84c0,.19,0,.37,0,.53v.1c0,.44.08.81.08,1.18v14q0,17.55,0,35.11a3.68,3.68,0,0,1-2.06,3.64C102.08,103,89.84,109.58,78,116L67,121.9c-.32.17-.65.32-1,.51l-2.26,1.08-.16-1.81c0-.24,0-.45-.06-.66l.24-.09-.25,0c0-.46-.09-.86-.09-1.29V105.93c0-11.34,0-23.07,0-34.6A4.42,4.42,0,0,1,65.94,67c11.6-6.24,23.38-12.64,34.76-18.83l11.58-6.29c.4-.22.81-.42,1.27-.64ZM91.42,22.65h0c5.46,2.87,11,5.86,16.29,8.76l3.56,1.94a2.75,2.75,0,0,1,.62.5c.07.08.15.15.24.24l1.26,1.19L76.81,55.13c-4.56,2.48-9.28,5-14,7.52a5.05,5.05,0,0,1-2.23.52A3.61,3.61,0,0,1,59,62.81c-5.25-2.75-10.54-5.64-15.66-8.43L39.5,52.3a5.29,5.29,0,0,1-.63-.44l-.33-.25L37,50.44,57.81,39.12c9.82-5.34,19.94-10.85,29.92-16.22A4.31,4.31,0,0,1,91.42,22.65ZM9.5,33.94l.49-.35a9,9,0,0,1,1-.67l1.79-1c15.08-8.18,30.67-16.63,46-24.9a4.15,4.15,0,0,1,3.5-.21c5.21,2.7,10.44,5.49,15.5,8.2l6.4,3.41L81.42,20.1c-.5.3-.92.55-1.34.78L68.75,27.07C57.12,33.42,45.09,40,33.27,46.49a4.71,4.71,0,0,1-2.26.66,4.54,4.54,0,0,1-2.26-.67c-4.66-2.59-9.23-5.06-14.07-7.68L7.86,35.1ZM5.35,55.79V42.87a3.65,3.65,0,0,1,.08-.67c0-.17.06-.3.08-.47L5.79,40l5,2.66,6.65,3.6,12.81,7L55.76,67.08a3.63,3.63,0,0,1,2.38,3.46c0,12.37,0,24.95,0,37.12v12.83a5.5,5.5,0,0,1-.08.86c0,.14,0,.29-.06.46l-.21,1.71-1.56-.73-.61-.28c-.44-.2-.81-.36-1.16-.56L7.62,96.6A3.56,3.56,0,0,1,5.3,93.23C5.35,80.75,5.35,68.06,5.35,55.79Z"/></g></g></svg>