<svg xmlns="http://www.w3.org/2000/svg" viewBox="0 0 122.95 128.06"><defs><style>.cls-1{fill:#222;}</style></defs><title>develop</title><g id="Layer_2" data-name="Layer 2"><g id="Layer_1-2" data-name="Layer 1"><path class="cls-1" d="M53.64,80.21l-4.59.67c0,1.39.1,2.73,0,4a13.31,13.31,0,0,1-.77,3.88,6.19,6.19,0,0,1-6.86,3.86,6.93,6.93,0,0,1-5.28-6.13c-.15-1.84,0-3.69,0-5.62-1.46-.23-2.73-.41-4-.63-.83-.15-.88.39-1,1Q28.68,92.14,26.22,103c-.62,2.81-1.2,5.63-1.89,8.43A16.6,16.6,0,0,1,23.2,114a10.73,10.73,0,0,0-.62,1.39q-1.53,5.4-3,10.81c-.28,1-.76,1.76-1.87,1.82s-1.6-.65-2-1.54c-2.18-4.86-4.44-9.68-6.52-14.59a6.5,6.5,0,0,1-.31-3.63c2.26-10.63,4.62-21.24,7-31.85a1.56,1.56,0,0,0-1-2.08A56.37,56.37,0,0,1,1.33,64.6a7.79,7.79,0,0,1-.89-.93,1.73,1.73,0,0,1,.14-2.45A1.77,1.77,0,0,1,3,61.05,11.35,11.35,0,0,1,4.18,62.1a54.84,54.84,0,0,0,11.55,8.41c.36.2.74.37,1.26.63.61-2.73,1.2-5.31,1.77-7.9,1.54-7,3.09-13.93,4.58-20.9a4.24,4.24,0,0,0-.13-2.12,20.3,20.3,0,0,1,7.16-23.13,2,2,0,0,0,.87-1.83c0-3.06,0-6.11,0-9.17,0-3.71,2.35-6.07,6-6.08s7.06,0,10.59,0a5.64,5.64,0,0,1,6,5.89q0,4.72,0,9.43a1.88,1.88,0,0,0,.83,1.72,20.33,20.33,0,0,1,7.18,23.24,3.59,3.59,0,0,0-.15,1.86q3.08,14.18,6.21,28.33a5.05,5.05,0,0,0,.26.62c.44-.22.85-.4,1.24-.62a56.38,56.38,0,0,0,12-8.86,2.74,2.74,0,0,1,1.74-.87,2.16,2.16,0,0,1,1.64,1.08,2.38,2.38,0,0,1-.42,2.06,30.12,30.12,0,0,1-4.39,4c-3.23,2.27-6.55,4.42-9.92,6.48a1.57,1.57,0,0,0-.9,2c2.37,10.61,4.73,21.22,7,31.86a6.72,6.72,0,0,1-.32,3.74c-2,4.83-4.26,9.58-6.43,14.35a3.8,3.8,0,0,1-.72,1.2c-1.1,1.07-2.67.51-3.14-1.13-1-3.64-2-7.28-3-10.93a2.61,2.61,0,0,0-.12-.5c-3-5.11-3.1-11-4.54-16.55-1.48-5.69-2.61-11.47-3.9-17.22C53.86,80.9,53.76,80.62,53.64,80.21Zm5.53-46.78a16.65,16.65,0,1,0-16.61,16.7A16.69,16.69,0,0,0,59.17,33.43ZM19.72,76.73c-.09.3-.17.53-.23.77q-1.62,7.31-3.22,14.6-1.85,8.31-3.67,16.62c-.38,1.74.1,2.49,1.83,2.88,1.13.25,2.26.52,3.4.76,1.76.37,2.43,0,2.84-1.84Q23.09,99.78,25.49,89c.71-3.18,1.41-6.36,2.13-9.57Zm37.77,2.7c0,.31.07.6.13.88q1.08,4.92,2.19,9.82,2.31,10.31,4.62,20.62c.34,1.48,1,1.93,2.51,1.65,1.14-.23,2.26-.5,3.4-.76,2.12-.47,2.5-1.07,2-3.15L66.8,83.06c-.47-2.11-1-4.22-1.44-6.34ZM36.08,77.06c0-1.76-.12-3.35,0-4.92a6.83,6.83,0,0,1,6-6.17,6.43,6.43,0,0,1,6.45,4.58A14.87,14.87,0,0,1,49,74c.08,1,0,1.94,0,3.09l3.83-.58C51.13,68.63,49.41,61,47.67,53.17a18.72,18.72,0,0,1-10.31,0c-1.75,7.8-3.46,15.45-5.2,23.26Zm20.53-1.28c2.45-.87,4.69-1.7,7-2.47.83-.29.94-.7.75-1.54C63,66,61.75,60.21,60.48,54.42c-.6-2.7-1.19-5.41-1.81-8.19-.24.12-.38.15-.45.23a22.38,22.38,0,0,1-6.36,5.17,1.31,1.31,0,0,0-.37,1.12c.59,2.86,1.23,5.71,1.87,8.56C54.41,66,55.48,70.75,56.61,75.78ZM26.31,46.52c-.39,1.74-.82,3.69-1.25,5.64Q22.89,62,20.75,71.9c-.08.35,0,1,.17,1.09,2.45,1,4.93,1.85,7.52,2.8,1.79-8,3.51-15.64,5.19-23.3a1.14,1.14,0,0,0-.45-.88C30.94,49.92,28.67,48.26,26.31,46.52ZM50,14.1c0-2.73,0-5.56,0-8.4a1.73,1.73,0,0,0-1.86-1.88c-3.78,0-7.57,0-11.35,0a1.64,1.64,0,0,0-1.76,1.69c-.06,2.92,0,5.84,0,8.61a52.45,52.45,0,0,1,7.4-1A56.09,56.09,0,0,1,50,14.1Zm-4.7,65.26V76.52c0-.94,0-1.89,0-2.83,0-2.24-1.22-3.91-2.74-4s-2.83,1.66-2.85,4c0,3.79-.08,7.57,0,11.35a6,6,0,0,0,1,3,2.06,2.06,0,0,0,3.57,0,7,7,0,0,0,1-3.1C45.44,83.06,45.33,81.21,45.33,79.36ZM17,120.08l.32,0,1-3.73-3.31-.69Zm50.66,0,.32,0c.62-1.42,1.25-2.83,2-4.47l-3.34.75Z"/><path class="cls-1" d="M51.05,33.51a8.53,8.53,0,1,1-8.46-8.58A8.52,8.52,0,0,1,51.05,33.51Zm-8.57,4.73a4.72,4.72,0,0,0,4.8-4.69,4.76,4.76,0,1,0-9.51-.08A4.71,4.71,0,0,0,42.48,38.24Z"/><path class="cls-1" d="M96.22,99.29c0,.38,0,.76,0,1.14a16.28,16.28,0,0,0,.79,6.45c2.79,6.94,6.69,13.33,10.77,19.81a2.08,2.08,0,0,0,1.79,1,2.2,2.2,0,0,0,1.87-1A153.29,153.29,0,0,0,121.28,109a18,18,0,0,0,1.67-7.84c-.07-6.19-.06-12.48,0-18.57q0-3.39,0-6.8v-7.2c0-7.42,0-14.84,0-22.26a10.25,10.25,0,0,0-3-7.62l-.45-.38a10.54,10.54,0,0,0-1-.81,15.46,15.46,0,0,0-8.78-2.82A17.24,17.24,0,0,0,103.51,36a11,11,0,0,0-7.34,10.83c.09,11.81.08,23.81.06,35.43Q96.22,90.76,96.22,99.29Zm13.72,21.33h-.75l-6.11-10.92.4-.67.29.09a17.05,17.05,0,0,0,11.62,0l.23-.08.51.56Zm-7.11-79.11a11.34,11.34,0,0,1,13.61.14,4.76,4.76,0,0,1,.32,7.39,11.12,11.12,0,0,1-14.3.05,4.79,4.79,0,0,1,.37-7.58ZM101,54.06c5.82,2.86,11.32,2.84,16.81-.06l.53-.28,0,1c0,.24,0,.45,0,.66q0,21.35,0,42.69c0,3.73-1.5,5.81-5,7a12.76,12.76,0,0,1-4,.68,10.56,10.56,0,0,1-6.51-2.25,4.9,4.9,0,0,1-2.09-4c0-.25,0-.49,0-.73s0-.52,0-.78V89.36q0-17,0-34a1.69,1.69,0,0,0-.14-.52,3,3,0,0,1-.11-.32l-.25-.82Z"/></g></g></svg>