<svg xmlns="http://www.w3.org/2000/svg" viewBox="0 0 583.38 58.03"><defs><style>.cls-1{fill:#fafcfc;}</style></defs><title>enitity-2</title><g id="Layer_2" data-name="Layer 2"><g id="Layer_1-2" data-name="Layer 1"><path class="cls-1" d="M341.91,58H307.72a30.23,30.23,0,0,1-4.26-.14c-2.45-.34-4.17-2-3.78-4.31a7,7,0,0,1,3.3-4.2c1.41-.79,3.45-.59,5.22-.6,8-.05,16,0,24-.05,4.61,0,4.88-.29,4.91-4.85.07-9.61-.07-19.22.07-28.83.05-3.3-1.23-4.33-4.41-4.28-8.54.15-17.09.07-25.64,0-5.08,0-7.72-1.68-7.69-4.69S302,1.4,307.13,1.4q34.72,0,69.45,0c5.15,0,7.63,1.6,7.68,4.71s-2.59,4.67-7.66,4.69c-8.55,0-17.1.11-25.64,0-3.17,0-4.47,1-4.42,4.27.15,9.79.13,19.58,0,29.37,0,3.23,1.24,4.42,4.42,4.38,8.19-.12,16.38-.06,24.57,0,1.77,0,3.81-.19,5.23.6a6.88,6.88,0,0,1,3.32,4.16c.36,2.24-1.24,4-3.74,4.36a31.82,31.82,0,0,1-4.26.13Z"/><path class="cls-1" d="M99.36,29.63c0-7.12-.07-14.24,0-21.35.09-6.83,3.4-8.67,9.22-5q29.21,18.2,58.34,36.53c1.05.66,2.06,1.41,3.16,2,1.37.72,2.82,1.31,4.23,2a34.31,34.31,0,0,0,.77-5c.07-9.61,0-19.22,0-28.83a30.2,30.2,0,0,1,.11-4.26c.38-2.63,2-4.25,4.67-4.22,2.48,0,3.83,1.72,4.3,4a19.08,19.08,0,0,1,.25,3.71q0,20.28,0,40.57v.53c0,2.7,0,5.52-2.79,7-2.65,1.43-4.79-.29-6.88-1.59-6.5-4-13-8.13-19.43-12.2q-19.87-12.49-39.76-25A29.87,29.87,0,0,0,111,15.87a2.33,2.33,0,0,0-2,1,13.45,13.45,0,0,0-.17,3.71q0,13.88,0,27.76c0,1.25.07,2.5,0,3.74-.26,3.58-1.83,5.55-4.43,5.68-2.84.14-4.81-1.91-4.88-5.75-.15-7.47-.05-14.95-.05-22.42Z"/><path class="cls-1" d="M441.37,1.39c11.21,0,22.41,0,33.62,0,1.77,0,3.76-.19,5.23.55s3,2.54,3,3.81c-.08,1.56-1.51,3.46-2.9,4.44-1.13.79-3.07.57-4.65.58-8.54,0-17.08,0-25.62,0-4.31,0-4.38.1-4.4,4.51,0,11.74,0,23.47,0,35.21,0,5.38-1.36,7.44-4.68,7.38s-4.59-2.25-4.62-7.64c-.05-11.38,0-22.76,0-34.14,0-5.28-.06-5.31-5.3-5.33-7.82,0-15.65,0-23.48,0-1.06,0-2.14,0-3.2,0-3.51-.28-5.5-1.9-5.6-4.51s2.12-4.68,5.85-4.83,7.47,0,11.21,0Z"/><path class="cls-1" d="M241.24,1.25h32.58c1.07,0,2.14,0,3.21,0,4.31.13,6.48,1.73,6.43,4.7s-2.27,4.57-6.61,4.61c-8.9.08-17.8,0-26.71,0-4.32,0-4.39.11-4.41,4.54,0,11,0,22.07,0,33.1,0,1.25,0,2.5,0,3.74-.2,3.62-1.67,5.56-4.29,5.76-2.77.2-4.88-1.91-4.93-5.74-.15-10.85-.07-21.71-.08-32.57,0-1.24,0-2.49,0-3.73-.09-5-.1-5.07-5.06-5.11-7.66,0-15.31,0-23,0h-1.6c-5.56,0-8.09-1.59-8-4.85s2.39-4.48,7.74-4.49Q223.88,1.23,241.24,1.25Z"/><path class="cls-1" d="M537.69,41.9c2.31-7.19-2.23-11.77-9.42-15.62-8-4.27-15.45-9.49-23.13-14.31a29.91,29.91,0,0,1-3.08-2.11C500,8.18,499.3,6,500.82,3.75a4.23,4.23,0,0,1,6-1.53c1.41.75,2.78,1.58,4.14,2.43,9,5.66,18.17,11.2,27.07,17.07,3.15,2.08,5.44,2.07,8.57-.08,8.78-6.07,17.82-11.76,26.76-17.59a24.87,24.87,0,0,1,3.2-1.92c2.42-1.12,4.56-.68,6,1.66a4.11,4.11,0,0,1-1,5.73,35,35,0,0,1-3.9,2.8c-9.08,5.95-18.11,12-27.29,17.76-2.58,1.62-3.63,3.47-3.48,6.49.22,4.44.06,8.9,0,13.35a28.44,28.44,0,0,1-.06,3.2c-.37,3.18-2,4.88-4.64,4.8-3.11-.1-4.41-2.16-4.59-4.89C537.53,49.84,537.69,46.63,537.69,41.9Z"/><path class="cls-1" d="M40.5,57.88c-11,0-22,0-33.07,0C2.27,57.86-.1,56.29,0,53.1s2.3-4.54,7.16-4.55q33.87,0,67.73,0c.54,0,1.07,0,1.6,0,3.55.35,5.49,2,5.59,4.57.1,2.83-2,4.68-5.85,4.71C64.32,57.93,52.41,57.88,40.5,57.88Z"/><path class="cls-1" d="M41.5,33.42q-17.05,0-34.11,0c-5,0-7.15-1.27-7.35-4.24-.22-3.25,2.13-5,7.24-5q33.86-.09,67.7,0a15,15,0,0,1,2.12.11c2.68.41,4.83,1.52,5,4.59.11,2.66-2,4.54-5.39,4.56-11.72.09-23.45,0-35.18,0Z"/><path class="cls-1" d="M41,9C29.8,9,18.59,9,7.38,9,2.41,9,.18,7.63,0,4.74-.15,1.58,2.22,0,7.45,0Q41.07,0,74.69,0c5,0,7.24,1.4,7.38,4.25C82.23,7.45,79.92,9,74.63,9,63.42,9,52.21,9,41,9Z"/></g></g></svg>