<svg xmlns="http://www.w3.org/2000/svg" viewBox="0 0 782.09 120.31"><defs><style>.cls-1{fill:#fff;}</style></defs><title>entity-logo</title><g id="Layer_2" data-name="Layer 2"><g id="Layer_1-2" data-name="Layer 1"><path class="cls-1" d="M232.59,65H153.22a5,5,0,0,1,0-10h79.37a5,5,0,1,1,0,10Z"/><path class="cls-1" d="M232.59,91.51H153.22a5,5,0,0,1,0-10h79.37a5,5,0,0,1,0,10Z"/><path class="cls-1" d="M261.39,91.51a5,5,0,0,1-5-5V35A5,5,0,0,1,264,30.75l74.57,46.73V35a5,5,0,0,1,10,0V86.51A5,5,0,0,1,341,90.75L266.39,44V86.51A5,5,0,0,1,261.39,91.51Z"/><path class="cls-1" d="M451.41,40H369.19a5,5,0,0,1,0-10h82.22a5,5,0,1,1,0,10Z"/><path class="cls-1" d="M410.3,91.51a5,5,0,0,1-5-5V35a5,5,0,0,1,10,0V86.51A5,5,0,0,1,410.3,91.51Z"/><path class="cls-1" d="M560.86,40.25H478.63a5,5,0,0,1,0-10h82.23a5,5,0,0,1,0,10Z"/><path class="cls-1" d="M519.75,91.78a5,5,0,0,1-5-5V35.25a5,5,0,0,1,10,0V86.78A5,5,0,0,1,519.75,91.78Z"/><path class="cls-1" d="M560.86,91.78H478.63a5,5,0,0,1,0-10h82.23a5,5,0,0,1,0,10Z"/><path class="cls-1" d="M668.61,40.25H586.39a5,5,0,0,1,0-10h82.22a5,5,0,0,1,0,10Z"/><path class="cls-1" d="M627.5,91.78a5,5,0,0,1-5-5V35.25a5,5,0,0,1,10,0V86.78A5,5,0,0,1,627.5,91.78Z"/><path class="cls-1" d="M737.58,91.78a5,5,0,0,1-5-5v-23l-38.76-24.3A5,5,0,1,1,699.13,31l41.11,25.76A5,5,0,0,1,742.58,61V86.78A5,5,0,0,1,737.58,91.78Z"/><path class="cls-1" d="M737.58,66a5,5,0,0,1-2.73-9.19l39.51-25.76a5,5,0,1,1,5.46,8.37L740.31,65.21A5,5,0,0,1,737.58,66Z"/><path class="cls-1" d="M232.59,38.53H153.22a5,5,0,0,1,0-10h79.37a5,5,0,0,1,0,10Z"/><path class="cls-1" d="M79.84,57.65H40.46a2.5,2.5,0,0,0,0,5H79.84a2.5,2.5,0,0,0,0-5Z"/><path class="cls-1" d="M79.84,66.91H40.46a2.5,2.5,0,0,0,0,5H79.84a2.5,2.5,0,0,0,0-5Z"/><path class="cls-1" d="M38,50.9a2.5,2.5,0,0,0,2.5,2.5H79.84a2.5,2.5,0,0,0,0-5H40.46A2.5,2.5,0,0,0,38,50.9Z"/><path class="cls-1" d="M60.15,0a60.16,60.16,0,1,0,60.16,60.15A60.21,60.21,0,0,0,60.15,0Zm55.16,60.15A55.16,55.16,0,1,1,60.15,5,55.22,55.22,0,0,1,115.31,60.15Z"/><path class="cls-1" d="M60.15,10.33a9.71,9.71,0,0,0-6.91,2.85L13.18,53.24a9.81,9.81,0,0,0,0,13.83l40.06,40.06a9.81,9.81,0,0,0,13.83,0l40.05-40.06a9.79,9.79,0,0,0,0-13.83L67.07,13.18A9.72,9.72,0,0,0,60.15,10.33Zm43.44,46.45a4.78,4.78,0,0,1,0,6.75L63.53,103.59a4.79,4.79,0,0,1-6.75,0L16.72,63.53a4.78,4.78,0,0,1,0-6.75L56.78,16.72a4.79,4.79,0,0,1,6.75,0Z"/></g></g></svg>