<svg xmlns="http://www.w3.org/2000/svg" viewBox="0 0 633.88 221.78"><defs><style>.cls-1{fill:#fafcfc;}</style></defs><title>entity</title><g id="Layer_2" data-name="Layer 2"><g id="Layer_1-2" data-name="Layer 1"><path class="cls-1" d="M84.37,195H5a5,5,0,0,1,0-10H84.37a5,5,0,0,1,0,10Z"/><path class="cls-1" d="M84.37,221.51H5a5,5,0,0,1,0-10H84.37a5,5,0,0,1,0,10Z"/><path class="cls-1" d="M113.17,221.51a5,5,0,0,1-5-5V165a5,5,0,0,1,7.66-4.23l74.56,46.73V165a5,5,0,0,1,10,0v51.53a5,5,0,0,1-7.65,4.24L118.17,174v42.49A5,5,0,0,1,113.17,221.51Z"/><path class="cls-1" d="M303.19,170H221a5,5,0,0,1,0-10h82.22a5,5,0,0,1,0,10Z"/><path class="cls-1" d="M262.08,221.51a5,5,0,0,1-5-5V165a5,5,0,1,1,10,0v51.53A5,5,0,0,1,262.08,221.51Z"/><path class="cls-1" d="M412.64,170.25H330.42a5,5,0,0,1,0-10h82.22a5,5,0,0,1,0,10Z"/><path class="cls-1" d="M371.53,221.78a5,5,0,0,1-5-5V165.25a5,5,0,0,1,10,0v51.53A5,5,0,0,1,371.53,221.78Z"/><path class="cls-1" d="M412.64,221.78H330.42a5,5,0,0,1,0-10h82.22a5,5,0,0,1,0,10Z"/><path class="cls-1" d="M520.39,170.25H438.17a5,5,0,0,1,0-10h82.22a5,5,0,0,1,0,10Z"/><path class="cls-1" d="M479.28,221.78a5,5,0,0,1-5-5V165.25a5,5,0,0,1,10,0v51.53A5,5,0,0,1,479.28,221.78Z"/><path class="cls-1" d="M589.36,221.78a5,5,0,0,1-5-5v-23l-38.76-24.3a5,5,0,1,1,5.31-8.47L592,186.78a5,5,0,0,1,2.34,4.24v25.76A5,5,0,0,1,589.36,221.78Z"/><path class="cls-1" d="M589.37,196a5,5,0,0,1-2.74-9.19l39.51-25.76a5,5,0,1,1,5.47,8.37L592.1,195.21A5,5,0,0,1,589.37,196Z"/><path class="cls-1" d="M84.37,168.53H5a5,5,0,0,1,0-10H84.37a5,5,0,0,1,0,10Z"/><path class="cls-1" d="M336.63,60.65H297.25a1.5,1.5,0,0,1,0-3h39.38a1.5,1.5,0,0,1,0,3Z"/><path class="cls-1" d="M336.63,69.91H297.25a1.5,1.5,0,0,1,0-3h39.38a1.5,1.5,0,0,1,0,3Z"/><path class="cls-1" d="M336.63,51.4H297.25a1.5,1.5,0,0,1,0-3h39.38a1.5,1.5,0,0,1,0,3Z"/><path class="cls-1" d="M316.94,3a56.16,56.16,0,1,1-56.16,56.15A56.22,56.22,0,0,1,316.94,3m0-3a59.16,59.16,0,1,0,59.15,59.15A59.16,59.16,0,0,0,316.94,0Z"/><path class="cls-1" d="M316.94,13.33A5.73,5.73,0,0,1,321,15l40.06,40.06a5.79,5.79,0,0,1,0,8.17L321,103.3a5.81,5.81,0,0,1-8.17,0L272.8,63.24a5.77,5.77,0,0,1,0-8.17L312.85,15a5.77,5.77,0,0,1,4.09-1.68m0-3a8.75,8.75,0,0,0-6.21,2.56L270.67,53a8.81,8.81,0,0,0,0,12.41l40.06,40.06a8.8,8.8,0,0,0,12.41,0L363.2,65.36a8.81,8.81,0,0,0,0-12.41L323.14,12.89a8.71,8.71,0,0,0-6.2-2.56Z"/></g></g></svg>