<svg xmlns="http://www.w3.org/2000/svg" viewBox="0 0 175.52 180.23"><defs><style>.cls-1{fill:#222;}</style></defs><title>fingerprint</title><g id="Layer_2" data-name="Layer 2"><g id="Layer_1-2" data-name="Layer 1"><path class="cls-1" d="M25.78,78.22A61.53,61.53,0,0,1,31.09,53.8c.83-1.95,2.38-2.78,4-2.17,1.85.69,2.4,2.15,1.71,4.34-1.45,4.62-3.21,9.19-4.18,13.91-.77,3.72-.56,7.64-.77,11.48a1.86,1.86,0,0,0,1.91,2.13,3.36,3.36,0,0,0,2.47-1.1,6,6,0,0,0,.88-3.2c.34-13.61,5.38-25.27,14.49-35.25A31.92,31.92,0,0,1,54.84,41a3.05,3.05,0,0,1,4.13.12,2.79,2.79,0,0,1,0,4.07c-2.34,2.64-4.94,5.08-7,7.89a43.45,43.45,0,0,0-8.64,25.76,12,12,0,0,1-2.33,7.44,8.91,8.91,0,0,1-9.54,2.89,8.34,8.34,0,0,1-5.59-8.15Z"/><path class="cls-1" d="M102.43,91.58c-1.69,5.27-3.1,10.65-5.13,15.78a69.23,69.23,0,0,1-16.72,24.53,73.86,73.86,0,0,1-30.44,17.77c-3,.89-4.65.32-5.24-1.63s.49-3.44,3.59-4.33a66.26,66.26,0,0,0,47-50.42c.21-1,.35-2,.65-3a2.76,2.76,0,0,1,3.28-2.19,3,3,0,0,1,2.5,3.27Z"/><path class="cls-1" d="M32.13,116.47H31c-2.16,0-3.51-1.14-3.54-2.86s1.45-3,3.54-3.2a50.31,50.31,0,0,0,6.73-.84C51.65,106.28,60.8,94.38,61.09,80c.21-10.76,5-19.1,14.63-24.34a3.24,3.24,0,0,1,4,.24c1.64,1.5,1.15,4-1.13,5.09-4.52,2.19-8,5.46-9.67,10.16a25.23,25.23,0,0,0-1.78,8.61c.08,16.32-12,32.07-29.61,36.05-1.77.4-3.61.51-5.42.75Z"/><path class="cls-1" d="M102.65,78.71c0,2.29-1.34,3.83-3,3.89s-2.75-1.15-3-3c-.7-5.49-2.72-7.79-7.64-8.68a8,8,0,0,0-9.06,4.86,14.67,14.67,0,0,0-1,5,47.12,47.12,0,0,1-12.59,31.43,37.77,37.77,0,0,1-3.47,3.46,3,3,0,0,1-4.23,0c-1.16-1.29-1.08-2.77.2-4.25A103.35,103.35,0,0,0,66,102.81a38.57,38.57,0,0,0,6.79-21.7c.07-4.58,1-9,4.37-12.36,4.33-4.31,9.66-4.81,15.29-3.4,5.18,1.29,8,4.94,9.47,9.87C102.28,76.48,102.46,77.8,102.65,78.71Z"/><path class="cls-1" d="M150.41,78.53c0,.63,0,1.26,0,1.89-.08,2.1-1.08,3.27-2.83,3.37a3.35,3.35,0,0,1-3.19-3.34c-.16-2.19-.17-4.41-.41-6.59a57.39,57.39,0,0,0-39.22-48.31c-1.6-.52-2.91-1.37-3-3.21a3,3,0,0,1,4.06-2.87,60.41,60.41,0,0,1,21,11.4,65,65,0,0,1,20.18,29A59.87,59.87,0,0,1,150.41,78.53Z"/><path class="cls-1" d="M89.19,52.85c11.66.57,21.37,8.15,24.83,19.83,1.4,4.73,1.06,9.51.7,14.26a74.66,74.66,0,0,1-4.11,20,8.67,8.67,0,0,1-.47,1.23,2.88,2.88,0,0,1-3.47,1.61,2.56,2.56,0,0,1-2-3,28.2,28.2,0,0,1,1.06-4.21,84.29,84.29,0,0,0,3.17-19.74c.2-4.72-.26-9.16-2.42-13.38-3-5.84-7.88-9-14.23-10.11a33.75,33.75,0,0,0-3.76-.4c-2.13-.14-3.46-1.27-3.41-3s1.49-3,3.47-3.07Z"/><path class="cls-1" d="M88.51,137.33a13.62,13.62,0,0,1,9.16,3.54,61.21,61.21,0,0,0,17.41,10.49,16,16,0,0,1,2.06.95,3,3,0,0,1,1.56,4,2.87,2.87,0,0,1-4,1.46A121.78,121.78,0,0,1,103,152.05a90.51,90.51,0,0,1-9.67-6.91c-3.26-2.51-5.45-2.67-9-.45q-9,5.72-18.08,11.34a22.27,22.27,0,0,1-3.46,1.52c-2.09.83-3.65.32-4.47-1.4s0-3.14,2.11-4.18C63.68,150.34,67,148.86,70,147c3.51-2.11,6.86-4.48,10.21-6.84A15.43,15.43,0,0,1,88.51,137.33Z"/><path class="cls-1" d="M87.22,16.86c1,0,2,0,3,0a3,3,0,1,1,0,6c-3,.14-5.93.09-8.87.4A53.81,53.81,0,0,0,53.75,34.53a59.79,59.79,0,0,0-10.85,11c-1.33,1.73-3.16,2.08-4.59.95s-1.46-3-.13-4.7A62.9,62.9,0,0,1,74.12,18.46c4.26-1,8.69-1.35,13-2Z"/><path class="cls-1" d="M88.3,29.28c13.34.26,25,4.65,34.67,14.06a3.26,3.26,0,0,1,1,3.9c-.81,1.92-2.9,2.2-4.71.8a120.53,120.53,0,0,0-10.17-7.51c-5.48-3.34-11.65-4.75-18-5.1a45.4,45.4,0,0,0-20.55,3.34c-2.2.93-3.94.31-4.62-1.44S66,34,68.33,33.12A51.63,51.63,0,0,1,88.3,29.28Z"/><path class="cls-1" d="M96.55,47.74a94.67,94.67,0,0,0-9.76-.91c-8.94.07-17,2.77-23,9.65-2.6,3-4.43,6.68-6.36,10.2C56.14,69,54.81,70,53,69.22s-2.26-2.56-1.23-4.89c5.84-13.2,15.88-21,30.18-23.24A38.69,38.69,0,0,1,97.1,42c2,.48,3,1.87,2.74,3.5S98.42,47.93,96.55,47.74Z"/><path class="cls-1" d="M147.15,94.86c-8-.7-15.72-6.77-15.33-15.21.35-7.69-1.85-14.82-5.6-21.49a6.93,6.93,0,0,1-.67-1.56,2.92,2.92,0,0,1,1.72-3.73A2.74,2.74,0,0,1,131,54.24a66,66,0,0,1,3.58,7.5c2.13,5.49,3.63,11.17,3.36,17.13-.31,6.73,3.09,9,9,9.58.89.09,2.12.32,2.49.92A4,4,0,0,1,150,92.6C149.54,93.59,148.15,94.13,147.15,94.86Z"/><path class="cls-1" d="M37,139.9a3.33,3.33,0,0,1-3.46-3,2.94,2.94,0,0,1,2.76-3,56.92,56.92,0,0,0,23.48-8.44c4.45-2.87,8.14-6.56,11.82-10.28,1.59-1.62,3.07-1.74,4.48-.5s1.64,2.55.33,4a81.82,81.82,0,0,1-7.79,7.68,60,60,0,0,1-31,13.46Z"/><path class="cls-1" d="M54.54,82c0,10.56-6.5,18.82-16.46,20.91a15,15,0,0,1-10.55-2,2.89,2.89,0,0,1-1.29-3.88,3.09,3.09,0,0,1,4.18-1.42c8,3.38,16.38-1.33,17.72-10,.23-1.48.23-3,.41-4.5.11-.93.06-2.14.61-2.69A5.3,5.3,0,0,1,52.3,77c1.3-.08,2.09,1,2.22,2.39A25.81,25.81,0,0,1,54.54,82Z"/><path class="cls-1" d="M145,128.2a47.24,47.24,0,0,1-29-11.45c-.67-.58-1.39-1.1-2-1.71-1.6-1.57-1.77-3.47-.49-4.87s3-1.15,4.68.41a40.86,40.86,0,0,0,23.24,11.3c1.55.2,3.14.16,4.71.29a9.14,9.14,0,0,1,2.39.41,2.66,2.66,0,0,1,1.81,3.16,2.69,2.69,0,0,1-2.69,2.45C146.79,128.25,145.9,128.2,145,128.2Z"/><path class="cls-1" d="M146.18,116.09c-9.78-.71-18.9-3.07-26-10.4a18.66,18.66,0,0,1-2.59-3.47,2.58,2.58,0,0,1,.89-3.79,2.85,2.85,0,0,1,3.94.47,48.89,48.89,0,0,0,3.32,3.84c5.65,5.15,12.59,6.87,20,7.29,1,0,2,0,3,.11a2.92,2.92,0,0,1,2.79,3.37c-.12,1.71-1.05,2.5-3.07,2.58C147.69,116.11,146.93,116.09,146.18,116.09Z"/><path class="cls-1" d="M125.67,78.86A3.39,3.39,0,0,1,123,82.27a3,3,0,0,1-3.34-2.63c-.32-1.73-.35-3.5-.63-5.24-1.14-7-3.91-13.12-9.14-18a9.57,9.57,0,0,1-1.38-1.54,2.93,2.93,0,0,1,.42-4.21,2.68,2.68,0,0,1,4,.24,75,75,0,0,1,6.86,8.48A40.78,40.78,0,0,1,125.67,78.86Z"/><path class="cls-1" d="M90.92,82.2a59.21,59.21,0,0,1-6.53,25c-1.13,2.18-2.7,2.83-4.42,1.93-1.53-.79-2-2.66-1-4.63A51.65,51.65,0,0,0,84.2,88.81c.39-2.61.44-5.27.71-7.89a9.07,9.07,0,0,1,.7-2.89c.64-1.34,2-1.48,3.27-1.24a2.34,2.34,0,0,1,2,2.39C91,80.18,90.92,81.19,90.92,82.2Z"/><path class="cls-1" d="M129,149.75c-3.19-1.14-6.41-2.2-9.56-3.43A68.59,68.59,0,0,1,103.24,137c-1.73-1.3-2.21-3.34-1.17-4.76s3.05-1.39,4.74-.11a67,67,0,0,0,22.7,11.3c2.09.57,2.91,1.76,2.67,3.51C132,148.45,130.75,149.42,129,149.75Z"/><path class="cls-1" d="M145.53,104.34c-6.49.23-11.9-2.4-16.61-6.58a43.79,43.79,0,0,1-5.3-5.83c-1.44-1.85-1.13-3.8.4-4.82s3.16-.6,4.51,1.35c2.85,4.09,6.3,7.52,11.15,8.91,2.66.77,5.56.69,8.37.91,2,.16,3.25,1,3.47,2.53a2.92,2.92,0,0,1-3,3.52C147.55,104.39,146.54,104.34,145.53,104.34Z"/><path class="cls-1" d="M89.26,151.9c5.25-.17,9.39,2.35,13.53,4.74a2.58,2.58,0,0,1,1,3.65,2.65,2.65,0,0,1-3.5,1.44,50.49,50.49,0,0,1-5.65-2.6c-4.08-2.11-8-1.48-12,.33-1.83.84-3.63,1.76-5.5,2.51a2.84,2.84,0,0,1-3.92-1.59,2.51,2.51,0,0,1,1.22-3.54C79.09,154.23,83.83,151.68,89.26,151.9Z"/><path class="cls-1" d="M32.61,128.18c-.82,0-1.64,0-2.45,0a2.62,2.62,0,0,1-2.65-2.47,2.83,2.83,0,0,1,1.9-3.14,4.34,4.34,0,0,1,1.65-.36c6,.13,11.69-1.47,17.21-3.76a3.26,3.26,0,0,1,2.64.13,3.49,3.49,0,0,1,1.55,2.52,3.76,3.76,0,0,1-1.83,2.73c-4.32,1.5-8.72,2.77-13.14,4a32.56,32.56,0,0,1-4.86.55Z"/><path class="cls-1" d="M94.47,133.14c-1-.66-2.15-1.06-2.56-1.85a3.51,3.51,0,0,1,0-2.94c2.74-4.66,5.64-9.22,8.52-13.79a3.31,3.31,0,0,1,4.32-1.15,2.87,2.87,0,0,1,.95,4c-2.83,4.74-5.81,9.41-8.83,14C96.46,132.14,95.45,132.48,94.47,133.14Z"/><path class="cls-1" d="M123.48,129.84c0,2.79-2.21,4.47-4.08,3.36-3.93-2.34-7.68-5-11.39-7.67-1.19-.86-1-2.83,0-3.93a3,3,0,0,1,4.11-.35c2.17,1.5,4.26,3.12,6.44,4.61,1,.71,2.27,1.14,3.24,1.92A10.85,10.85,0,0,1,123.48,129.84Z"/><path class="cls-1" d="M140,140c-3.38-.75-6.78-1.42-10.14-2.26a3.14,3.14,0,0,1-2.42-4.06c.44-1.55,2-2.25,4-1.82,3.15.68,6.29,1.36,9.44,2a3,3,0,0,1,2.62,3.33A3.69,3.69,0,0,1,140,140Z"/><path class="cls-1" d="M27.64,0c8.07,0,16.14.07,24.21,0,2.32,0,3.27.72,3.09,3.09a39.53,39.53,0,0,0,0,5.86c.16,2.25-.75,3-3,3-12.06-.08-24.12,0-36.18,0-3.91,0-3.91,0-3.91,3.87q0,18,0,36c0,3.1-.13,3.21-3.12,3.23-2.12,0-4.24,0-6.36,0C.76,55,0,54.34,0,52.65q0-25.2,0-50.39C0,.29,1.12,0,2.71,0,11,.06,19.33,0,27.64,0Z"/><path class="cls-1" d="M27.4,180.19c-8.15,0-16.3-.05-24.44,0-2.26,0-3-.78-2.95-3q.09-22.5,0-45c0-2.38.82-3.22,3.13-3.05a39.53,39.53,0,0,0,5.86,0c2.31-.17,2.93.86,2.92,3-.08,10.84,0,21.69,0,32.53,0,3.62,0,3.62,3.67,3.62H51.73c3.06,0,3.16.11,3.18,3.16,0,2-.09,3.92,0,5.87.13,2.14-.74,2.86-2.85,2.84C43.87,180.15,35.63,180.19,27.4,180.19Z"/><path class="cls-1" d="M147.88,0c-8.07,0-16.14.07-24.2,0-2.33,0-3.28.72-3.1,3.09a39.53,39.53,0,0,1,0,5.86c-.15,2.25.75,3,3,3,12.06-.08,24.12,0,36.18,0,3.91,0,3.91,0,3.92,3.87q0,18,0,36c0,3.1.12,3.21,3.11,3.23,2.12,0,4.24,0,6.36,0,1.63.05,2.36-.6,2.36-2.29q0-25.2,0-50.39c0-2-1.09-2.23-2.67-2.23C164.5.06,156.19,0,147.88,0Z"/><path class="cls-1" d="M148.12,180.19c8.15,0,16.3-.05,24.45,0,2.25,0,3-.78,3-3q-.11-22.5,0-45c0-2.38-.82-3.22-3.13-3.05a39.53,39.53,0,0,1-5.86,0c-2.31-.17-2.93.86-2.91,3,.07,10.84,0,21.69,0,32.53,0,3.62,0,3.62-3.67,3.62H123.79c-3.06,0-3.15.11-3.18,3.16,0,2,.1,3.92,0,5.87-.13,2.14.74,2.86,2.85,2.84C131.66,180.15,139.89,180.19,148.12,180.19Z"/></g></g></svg>