<svg xmlns="http://www.w3.org/2000/svg" viewBox="0 0 350.41 59.77"><defs><style>.cls-1{fill:#e0e0e2;}</style></defs><title>g2b-logo-grey</title><g id="Layer_2" data-name="Layer 2"><g id="Layer_1-2" data-name="Layer 1"><polygon class="cls-1" points="119.77 25.98 121.59 27.8 109.23 40.16 112.36 43.29 127.85 27.8 119.77 19.73 99.14 40.36 112.16 53.38 115.28 50.25 105.39 40.36 119.77 25.98"/><path class="cls-1" d="M109.94,0,79.41,30.52v.06l-13.1,13.1L64.5,41.87,86.92,19.5,69.07,1.65,50,20.73,40.22,11,19.86,31.32,23,34.49l17.19-17.2,6.61,6.6L45,25.65l-4.85-4.84L24.79,36.25l3.11,3.11L40.22,27.05,42,28.77,38.7,32l.09.08L27.7,43.19,16.09,31.57,38.46,9.2,35.35,6.08,9.86,31.57,27.7,49.42,48.27,28.86h0L69.07,8,80.64,19.55,58.31,41.87l8,8.05L85.88,30.39h0l24-24,21.5,21.41L114.12,45.06l3.18,3.17L137.74,27.8Z"/><polygon class="cls-1" points="92.45 33.68 97.37 38.6 118.01 17.96 109.94 9.89 100.5 19.32 103.63 22.45 109.94 16.15 111.7 17.91 97.32 32.29 95.58 30.55 96.78 29.35 96.75 29.33 101.86 24.22 98.73 21.09 93.63 26.2 93.61 26.18 66.36 53.44 54.79 41.87 77.12 19.55 69.07 11.5 43.58 36.99 43.62 37.03 27.7 52.94 6.34 31.57 33.59 4.32 30.42 1.15 0 31.57 27.7 59.27 58.12 28.86 58.04 28.77 69.07 17.74 70.83 19.5 48.46 41.87 66.36 59.77 87.51 38.62 107.21 58.33 110.39 55.15 90.69 35.44 92.45 33.68"/><path class="cls-1" d="M178.36,16.8a1.88,1.88,0,0,0-1.44.6,1.93,1.93,0,0,0-.5.89,3.9,3.9,0,0,0-2.86-1.1H162.13A4.11,4.11,0,0,0,158,21.28h0V32.73a4.08,4.08,0,0,0,4.11,4.08h11.43a4.1,4.1,0,0,0,2.8-1.11v6.94a1.52,1.52,0,0,1-.49,1.15,1.58,1.58,0,0,1-1.14.48H160a2,2,0,0,0,0,4h16.25a4.08,4.08,0,0,0,4.09-4.07h0V18.79a2,2,0,0,0-2-2Zm-2,6v8.36a1.6,1.6,0,0,1-.48,1.15,1.52,1.52,0,0,1-1.15.49H163.65A1.64,1.64,0,0,1,162,31.16V22.82a1.61,1.61,0,0,1,.48-1.17,1.56,1.56,0,0,1,1.15-.48h11.08a1.67,1.67,0,0,1,1.63,1.65Z"/><path class="cls-1" d="M202.2,9.54H186A2,2,0,0,0,184.59,13a1.92,1.92,0,0,0,1.41.58h14.71a1.52,1.52,0,0,1,1.15.49,1.58,1.58,0,0,1,.48,1.14v4.41a1.51,1.51,0,0,1-.48,1.11,1.56,1.56,0,0,1-1.15.48h-12.6A4.12,4.12,0,0,0,184,25.28v7.45a3.91,3.91,0,0,0,1.22,2.88,4,4,0,0,0,2.89,1.2h16.23a1.92,1.92,0,0,0,1.41-.58,2,2,0,0,0,0-2.83h0a1.92,1.92,0,0,0-1.41-.58H189.58a1.52,1.52,0,0,1-1.15-.49,1.6,1.6,0,0,1-.48-1.15v-4.4a1.54,1.54,0,0,1,.48-1.12,1.55,1.55,0,0,1,1.15-.47H202.2A3.92,3.92,0,0,0,205.09,24a4,4,0,0,0,1.2-2.91V13.62A4.11,4.11,0,0,0,202.2,9.54Z"/><path class="cls-1" d="M228.13,17.19H216.68a4.35,4.35,0,0,0-1.91.44,3.4,3.4,0,0,0-.89.6V7.34a2,2,0,0,0-4,0V35.21a1.93,1.93,0,0,0,.59,1.41,2,2,0,0,0,1.41.57,1.9,1.9,0,0,0,1.44-.59,2,2,0,0,0,.51-.94,4.61,4.61,0,0,0,.92.67,4,4,0,0,0,1.93.48h11.45a4.11,4.11,0,0,0,4.09-4.08V21.28a4,4,0,0,0-1.17-2.87A3.89,3.89,0,0,0,228.13,17.19Zm.09,5.63v8.36a1.64,1.64,0,0,1-1.63,1.64H215.51a1.58,1.58,0,0,1-1.14-.48,1.54,1.54,0,0,1-.49-1.16V22.82a1.63,1.63,0,0,1,.48-1.16,1.52,1.52,0,0,1,1.15-.49h11.08a1.52,1.52,0,0,1,1.15.49A1.57,1.57,0,0,1,228.22,22.82Z"/><path class="cls-1" d="M248.49,17.19h-5.88a4.35,4.35,0,0,0-1.91.44,3.68,3.68,0,0,0-.95.66,2,2,0,0,0-.52-.91,1.94,1.94,0,0,0-1.42-.58,2,2,0,0,0-2,2V35.21a1.93,1.93,0,0,0,.59,1.41,2,2,0,0,0,2.83,0,2,2,0,0,0,.58-1.4V22.82a1.63,1.63,0,0,1,.48-1.16,1.52,1.52,0,0,1,1.15-.49h7.05a1.92,1.92,0,0,0,1.41-.58,1.89,1.89,0,0,0,.59-1.4,2,2,0,0,0-2-2Z"/><path class="cls-1" d="M270.42,17.19H254.17a2,2,0,0,0-1.42,3.4,2,2,0,0,0,1.42.58h14.7a1.52,1.52,0,0,1,1.15.49,1.57,1.57,0,0,1,.48,1.16V25H256.27a4.1,4.1,0,0,0-4.1,4.11v4a3.67,3.67,0,0,0,3.71,3.71H267.7a4,4,0,0,0,1.9-.47,4.23,4.23,0,0,0,.95-.68,1.76,1.76,0,0,0,.56,1,2,2,0,0,0,2.79,0,1.85,1.85,0,0,0,.6-1.43v-14a4,4,0,0,0-1.18-2.86A3.88,3.88,0,0,0,270.42,17.19ZM270.5,29v2.19a1.54,1.54,0,0,1-.49,1.16,1.58,1.58,0,0,1-1.14.48H257.63a1.49,1.49,0,0,1-1.44-1.43v-.94a1.36,1.36,0,0,1,.44-1,1.4,1.4,0,0,1,1-.42Z"/><path class="cls-1" d="M296.35,17.19H284.89a4.35,4.35,0,0,0-1.91.44,3.94,3.94,0,0,0-1,.66,2,2,0,0,0-1.93-1.49,1.94,1.94,0,0,0-1.42.58,1.92,1.92,0,0,0-.58,1.41V35.21a1.92,1.92,0,0,0,.58,1.41,2,2,0,0,0,3.42-1.43V22.82a1.62,1.62,0,0,1,.49-1.16,1.52,1.52,0,0,1,1.15-.49H294.8a1.67,1.67,0,0,1,1.63,1.65V35.21a1.93,1.93,0,0,0,.59,1.41,2,2,0,0,0,2.82,0,1.93,1.93,0,0,0,.59-1.41V21.28a4,4,0,0,0-1.17-2.87A3.85,3.85,0,0,0,296.35,17.19Z"/><path class="cls-1" d="M324.36,5.34a1.93,1.93,0,0,0-1.41.59h0a1.93,1.93,0,0,0-.59,1.41V18.23a3.17,3.17,0,0,0-.89-.6,4.21,4.21,0,0,0-1.91-.44H308.13A4.11,4.11,0,0,0,304,21.28V32.73a4.12,4.12,0,0,0,4.1,4.08h11.43a4,4,0,0,0,1.94-.48,4.28,4.28,0,0,0,.91-.67,2,2,0,0,0,.51.94,2,2,0,0,0,3.44-1.39V7.34a2,2,0,0,0-2-2Zm-2,17.48v8.36a1.53,1.53,0,0,1-.48,1.16,1.6,1.6,0,0,1-1.15.48H309.65A1.64,1.64,0,0,1,308,31.18V22.82a1.64,1.64,0,0,1,1.63-1.65h11.08a1.52,1.52,0,0,1,1.15.49A1.57,1.57,0,0,1,322.36,22.82Z"/><path class="cls-1" d="M334.39,21.59a1.38,1.38,0,0,1,1-.42h12.95a2,2,0,0,0,1.41-.58,1.89,1.89,0,0,0,.59-1.4,2,2,0,0,0-2-2H333.66a3.7,3.7,0,0,0-3.74,3.69v4A4.09,4.09,0,0,0,334,29h11a1.38,1.38,0,0,1,1,.42,1.34,1.34,0,0,1,.41,1v.94a1.38,1.38,0,0,1-.42,1,1.35,1.35,0,0,1-1,.44H332a2,2,0,0,0-2,2,1.94,1.94,0,0,0,.58,1.42,1.92,1.92,0,0,0,1.41.58H346.7a3.72,3.72,0,0,0,3.71-3.71v-4a4,4,0,0,0-1.18-2.9A3.89,3.89,0,0,0,346.31,25H335.42a1.39,1.39,0,0,1-1-.43,1.44,1.44,0,0,1-.44-1v-.94A1.28,1.28,0,0,1,334.39,21.59Z"/><path class="cls-1" d="M188.18,41.56h0a.58.58,0,0,0-.41,0,.51.51,0,0,0-.3.26l-1.3,2.6-1.3-2.6a.56.56,0,0,0-.31-.26.53.53,0,0,0-.41,0,.51.51,0,0,0-.26.3.49.49,0,0,0,0,.41l1.69,3.46,0,3.69a.52.52,0,0,0,.16.38.51.51,0,0,0,.37.15s0,0,0,0a.61.61,0,0,0,.38-.15.54.54,0,0,0,.15-.38V45.73l1.72-3.44,0,0A.55.55,0,0,0,188.18,41.56Z"/><path class="cls-1" d="M196.36,42.11h0a2.15,2.15,0,0,0-.66-.45,2.09,2.09,0,0,0-1.61,0A2.07,2.07,0,0,0,193,42.76a2.19,2.19,0,0,0-.16.8v4.35a2.25,2.25,0,0,0,.16.81,2.07,2.07,0,0,0,1.07,1.07,2.19,2.19,0,0,0,.8.16h0a2.15,2.15,0,0,0,.8-.16,2.12,2.12,0,0,0,.66-.44,2.16,2.16,0,0,0,.43-.65,2.06,2.06,0,0,0,.17-.81V43.56a2,2,0,0,0-.17-.8A2.16,2.16,0,0,0,196.36,42.11Zm-.48,1.45v4.32a1,1,0,0,1-.3.7.93.93,0,0,1-.7.29,1,1,0,0,1-1-1V43.56a1,1,0,0,1,1-1h0a.81.81,0,0,1,.34.08.87.87,0,0,1,.32.22,1.34,1.34,0,0,1,.22.31A1,1,0,0,1,195.88,43.56Z"/><path class="cls-1" d="M205.57,41.46h0a.64.64,0,0,0-.39.16A.52.52,0,0,0,205,42v5.89a1,1,0,0,1-1.71.71,1,1,0,0,1-.24-.75V42a.51.51,0,0,0-.15-.39.54.54,0,0,0-.37-.16h0a.51.51,0,0,0-.37.16A.46.46,0,0,0,202,42v5.87a2,2,0,0,0,.15.81,2.07,2.07,0,0,0,1.07,1.07,2.24,2.24,0,0,0,.8.16h0a2.09,2.09,0,0,0,.78-.16,2.31,2.31,0,0,0,.66-.44,2,2,0,0,0,.61-1.46V42a.52.52,0,0,0-.19-.38A.51.51,0,0,0,205.57,41.46Z"/><path class="cls-1" d="M215.41,44.33l.05-.71a2,2,0,0,0-.17-.8,2,2,0,0,0-.43-.66,1.93,1.93,0,0,0-.66-.43,1.79,1.79,0,0,0-.79-.18h-1.54a.47.47,0,0,0-.36.16.52.52,0,0,0-.17.38v7.34a.55.55,0,0,0,.16.38.56.56,0,0,0,.37.15.53.53,0,0,0,.39-.16.61.61,0,0,0,.15-.37v-3h.78l1.19,3.23a.58.58,0,0,0,.29.29.5.5,0,0,0,.21.05.48.48,0,0,0,.2,0,.52.52,0,0,0,.29-.29.48.48,0,0,0,0-.39l-1.13-3.05A2.06,2.06,0,0,0,215.41,44.33Zm-1.07-.71v.71a1,1,0,0,1-1,1l-1,0V42.62h1a1,1,0,0,1,.7.3A.93.93,0,0,1,214.34,43.62Z"/><path class="cls-1" d="M230,45.33h-1.27a.51.51,0,0,0-.54.52.56.56,0,0,0,.17.39.55.55,0,0,0,.37.14h.74v1.47a1.08,1.08,0,0,1-.29.7,1,1,0,0,1-.71.29h0a1,1,0,0,1-.7-.29.91.91,0,0,1-.29-.7V43.52a.88.88,0,0,1,.21-.6,1,1,0,0,1,.53-.36.94.94,0,0,1,.64,0,.84.84,0,0,1,.48.43.52.52,0,0,0,.3.23.54.54,0,0,0,.43,0,.51.51,0,0,0,.23-.32.49.49,0,0,0,0-.41,2.32,2.32,0,0,0-1-.88,2.94,2.94,0,0,0-.65-.16,2.25,2.25,0,0,0-.68.07,2.07,2.07,0,0,0-1.05.74,1.92,1.92,0,0,0-.49,1.25v4.31a1.89,1.89,0,0,0,.16.81,2,2,0,0,0,1.06,1.07,2.08,2.08,0,0,0,2.27-.44,2.4,2.4,0,0,0,.44-.65,2,2,0,0,0,.15-.81v-2a.47.47,0,0,0-.15-.39A.48.48,0,0,0,230,45.33Z"/><path class="cls-1" d="M239.07,42.11a1.92,1.92,0,0,0-.65-.44,2,2,0,0,0-.8-.17,2.3,2.3,0,0,0-.81.17,2,2,0,0,0-.65.44,2.16,2.16,0,0,0-.43.65,1.87,1.87,0,0,0-.18.8v4.33a1.91,1.91,0,0,0,.18.81,2.16,2.16,0,0,0,.43.65,2.4,2.4,0,0,0,.65.44,2.14,2.14,0,0,0,.79.16,2.1,2.1,0,0,0,.82-.16,2.2,2.2,0,0,0,.65-.44,2,2,0,0,0,.6-1.46V43.56a2,2,0,0,0-.15-.8A2.1,2.1,0,0,0,239.07,42.11Zm-.45,1.45v4.33a1,1,0,0,1-1,1h0a1,1,0,0,1-.7-.29,1,1,0,0,1-.29-.7V43.56a.9.9,0,0,1,.28-.69.94.94,0,0,1,.69-.29h0a.83.83,0,0,1,.38.07.87.87,0,0,1,.32.22,1.16,1.16,0,0,1,.22.31A1,1,0,0,1,238.62,43.56Z"/><path class="cls-1" d="M253.31,47l.29-.55,1-1.89a2,2,0,0,0,.15-1.55,1.81,1.81,0,0,0-.36-.72,2.27,2.27,0,0,0-.61-.5,2,2,0,0,0-.75-.23,1.9,1.9,0,0,0-.79.06,1.88,1.88,0,0,0-1.24,1,.48.48,0,0,0,0,.39.61.61,0,0,0,.25.33.52.52,0,0,0,.37,0,.6.6,0,0,0,.32-.25.86.86,0,0,1,.25-.29,1.06,1.06,0,0,1,.33-.18,1,1,0,0,1,.76.11.55.55,0,0,1,.29.23,1,1,0,0,1,.11,1.09L251,49.1a.52.52,0,0,0,0,.54.49.49,0,0,0,.43.26h2.92a.48.48,0,0,0,.35-.16.53.53,0,0,0,.13-.37.47.47,0,0,0-.16-.38.51.51,0,0,0-.36-.15h-2l.85-1.64Z"/><path class="cls-1" d="M269.55,41.55H267a.48.48,0,0,0-.36.16.52.52,0,0,0-.17.38v7.3a.51.51,0,0,0,.5.5h.1a.51.51,0,0,0,.35-.17.54.54,0,0,0,.12-.36V46.13h1.76a.51.51,0,0,0,.38-.16.53.53,0,0,0-.39-.9h-1.75V42.62h2a.47.47,0,0,0,.37-.16.56.56,0,0,0,0-.75A.55.55,0,0,0,269.55,41.55Z"/><path class="cls-1" d="M278.22,42.11h0a2.15,2.15,0,0,0-.66-.45,2.09,2.09,0,0,0-1.61,0,2.4,2.4,0,0,0-.65.44,2.16,2.16,0,0,0-.43.65,1.88,1.88,0,0,0-.16.8v4.35a1.89,1.89,0,0,0,.16.81,2,2,0,0,0,1.06,1.07,2.24,2.24,0,0,0,.8.16h0a2.19,2.19,0,0,0,.8-.16,2.31,2.31,0,0,0,.66-.44,2.4,2.4,0,0,0,.44-.65,2.25,2.25,0,0,0,.16-.81V43.56a2.19,2.19,0,0,0-.16-.8A2.4,2.4,0,0,0,278.22,42.11Zm-.48,1.45v4.32a1,1,0,0,1-.3.7.93.93,0,0,1-.7.29,1,1,0,0,1-1-1V43.56a1,1,0,0,1,1-1h0a.81.81,0,0,1,.34.08.87.87,0,0,1,.32.22,1.16,1.16,0,0,1,.22.31A1,1,0,0,1,277.74,43.56Z"/><path class="cls-1" d="M286.9,46.19a2,2,0,0,0,1.15-1.86v-.71a2,2,0,0,0-.15-.8,2.24,2.24,0,0,0-.44-.66,2.27,2.27,0,0,0-1.45-.61h-1.49a.55.55,0,0,0-.52.54v7.34a.47.47,0,0,0,.16.38.51.51,0,0,0,.36.15.51.51,0,0,0,.53-.53v-3h.79l1.2,3.22a.49.49,0,0,0,.28.3.5.5,0,0,0,.21.05.41.41,0,0,0,.19,0,.51.51,0,0,0,.3-.29.48.48,0,0,0,0-.39Zm.1-2.57v.73a1,1,0,0,1-1,1h0l-1,0V42.62h1A1,1,0,0,1,287,43.62Z"/><path class="cls-1" d="M302.82,42.16a1.84,1.84,0,0,0-.65-.43,1.79,1.79,0,0,0-.79-.18h-1.54a.54.54,0,0,0-.54.54v7.27a.57.57,0,0,0,.16.39.54.54,0,0,0,.36.14h1.56a2.13,2.13,0,0,0,.79-.15,2.4,2.4,0,0,0,.65-.44,2.23,2.23,0,0,0,.45-.65,2,2,0,0,0,.15-.81v-.71a2,2,0,0,0-.21-.93,2.12,2.12,0,0,0-.47-.6,2.12,2.12,0,0,0,.47-.6,2,2,0,0,0,.21-.93v-.45a2,2,0,0,0-.15-.8A2.15,2.15,0,0,0,302.82,42.16Zm-2.44,2.91V42.62h1a.85.85,0,0,1,.38.09.81.81,0,0,1,.32.21.91.91,0,0,1,.29.7v.45a1,1,0,0,1-1,1h-1Zm2,2.06v.76a1,1,0,0,1-1,1h-1V46.13h1a1,1,0,0,1,.38.08,1.4,1.4,0,0,1,.32.22A.91.91,0,0,1,302.36,47.13Z"/><path class="cls-1" d="M312.33,45.49a1.9,1.9,0,0,0,.35-1.15l0-.72a2,2,0,0,0-.15-.8,2.15,2.15,0,0,0-.45-.66,1.84,1.84,0,0,0-.65-.43,1.79,1.79,0,0,0-.79-.18h-1.54a.51.51,0,0,0-.37.16.47.47,0,0,0-.16.38v7.34a.47.47,0,0,0,.16.38.56.56,0,0,0,.37.15h0a.51.51,0,0,0,.5-.53v-3h.79l1.19,3.22a.51.51,0,0,0,.29.3.46.46,0,0,0,.2.05.38.38,0,0,0,.19,0,.55.55,0,0,0,.31-.29.48.48,0,0,0,0-.39l-1.13-3.05A2,2,0,0,0,312.33,45.49Zm-.71-1.87v.72a.87.87,0,0,1-.29.69,1,1,0,0,1-.69.3h0l-1,0V42.62h1A1,1,0,0,1,311.62,43.62Z"/><path class="cls-1" d="M320.22,41.94h0a.53.53,0,0,0-1,0l-2,7.35a.56.56,0,0,0,0,.42.54.54,0,0,0,.3.24l.17,0a.54.54,0,0,0,.25-.06.53.53,0,0,0,.27-.33c0-.05,0-.09,0-.13a.94.94,0,0,0,.07-.3,2.42,2.42,0,0,0,.13-.46c0-.16.09-.33.14-.5h2.27l.06.2c0,.1.05.21.08.3s0,.17.07.24a2,2,0,0,1,.07.23,1,1,0,0,0,.05.16.68.68,0,0,1,.05.23v0a.63.63,0,0,0,.26.33.53.53,0,0,0,.39,0,.56.56,0,0,0,.35-.26.53.53,0,0,0,0-.39Zm.31,5.17h-1.69c.06-.27.13-.52.22-.85l.17-.59.11-.41.15-.56.09-.36c0-.12.07-.24.1-.35l.35,1.27c.05.2.1.4.16.6s.07.27.11.4Z"/><path class="cls-1" d="M331.09,41.46h0a.55.55,0,0,0-.54.54v5l-.15-.33c-.15-.29-.3-.6-.45-.91l-.46-1c-.16-.31-.31-.62-.45-.92l-1-2.15a.48.48,0,0,0-.27-.25.58.58,0,0,0-.32,0,.55.55,0,0,0-.3.18A.6.6,0,0,0,327,42v7.41a.55.55,0,0,0,.15.38.51.51,0,0,0,.37.14h.06a.48.48,0,0,0,.47-.52v-5l.59,1.24c.17.39.32.71.47,1l.16.32.29.59c.3.72.66,1.45,1,2.15a.49.49,0,0,0,.26.25.45.45,0,0,0,.19,0,.42.42,0,0,0,.16,0,.47.47,0,0,0,.3-.23.59.59,0,0,0,.11-.32V42a.53.53,0,0,0-.52-.55Z"/><path class="cls-1" d="M340.46,42.16a1.8,1.8,0,0,0-.66-.43,1.74,1.74,0,0,0-.77-.18h-1.55a.54.54,0,0,0-.53.54v7.27a.52.52,0,0,0,.15.39.54.54,0,0,0,.36.14H339a2.08,2.08,0,0,0,.78-.15,2.24,2.24,0,0,0,.66-.44,2.16,2.16,0,0,0,.43-.65,1.88,1.88,0,0,0,.18-.81V43.62a2,2,0,0,0-.17-.8A2.24,2.24,0,0,0,340.46,42.16ZM340,43.62v4.27a.87.87,0,0,1-.29.69,1,1,0,0,1-.71.29h-1V42.62h1a1,1,0,0,1,.69.3A1,1,0,0,1,340,43.62Z"/><path class="cls-1" d="M349.78,47.09a2.26,2.26,0,0,0-.47-.75l-2-2.1a1,1,0,0,1-.15-.2,1,1,0,0,1-.09-.75,1,1,0,0,1,1.22-.7,1,1,0,0,1,.6.47.53.53,0,0,0,.25.22.51.51,0,0,0,.42,0,.5.5,0,0,0,.24-.32.49.49,0,0,0,0-.41,2,2,0,0,0-.59-.65,2.09,2.09,0,0,0-.78-.34,1.83,1.83,0,0,0-.87,0,2,2,0,0,0-.79.37,2.06,2.06,0,0,0-.56.65,1.81,1.81,0,0,0-.24.84,1.88,1.88,0,0,0,.1.85,2.06,2.06,0,0,0,.46.73l2,2.09a.8.8,0,0,1,.23.37,1.31,1.31,0,0,1,.07.44,1.09,1.09,0,0,1-1.21,1,1.15,1.15,0,0,1-.41-.17,1,1,0,0,1-.29-.34.51.51,0,0,0-.32-.23.49.49,0,0,0-.41,0,.46.46,0,0,0-.24.31.51.51,0,0,0,0,.42,2.1,2.1,0,0,0,.6.66,2.24,2.24,0,0,0,.81.35,2,2,0,0,0,.9,0,2.29,2.29,0,0,0,.81-.37,2.09,2.09,0,0,0,.71-2.42Z"/></g></g></svg>