<svg xmlns="http://www.w3.org/2000/svg" viewBox="0 0 350.37 59.77"><defs><style>.cls-1,.cls-2{fill:#222;}.cls-2{stroke:#000;stroke-miterlimit:10;stroke-width:0.25px;}</style></defs><title>g2b-logo-1</title><g id="Layer_2" data-name="Layer 2"><g id="Layer_1-2" data-name="Layer 1"><polygon class="cls-1" points="119.77 25.98 121.59 27.8 109.23 40.16 112.36 43.29 127.85 27.8 119.77 19.73 99.14 40.36 112.16 53.38 115.28 50.25 105.39 40.36 119.77 25.98"/><path class="cls-1" d="M109.94,0,79.41,30.52l0,.06-13.1,13.1-1.81-1.81L86.92,19.5,69.07,1.65,50,20.73,40.22,11,19.86,31.32,23,34.49l17.19-17.2,6.61,6.6-1.76,1.76-4.85-4.84L24.79,36.25l3.11,3.11L40.22,27.05,42,28.77,38.7,32l.09.08L27.7,43.19,16.09,31.57,38.46,9.2,35.35,6.08,9.86,31.57,27.7,49.42,48.27,28.86l0,0L69.07,8,80.64,19.55,58.31,41.87l8,8.05L85.88,30.39h0l24-24L131.38,27.8,114.12,45.06l3.18,3.17L137.74,27.8Z"/><polygon class="cls-1" points="92.45 33.68 97.37 38.6 118.01 17.96 109.94 9.89 100.5 19.32 103.63 22.45 109.94 16.15 111.7 17.91 97.32 32.29 95.58 30.55 96.78 29.35 96.75 29.33 101.86 24.22 98.73 21.09 93.63 26.2 93.61 26.18 66.36 53.44 54.79 41.87 77.12 19.55 69.07 11.5 43.58 36.99 43.62 37.03 27.7 52.94 6.34 31.57 33.59 4.32 30.42 1.15 0 31.57 27.7 59.27 58.12 28.86 58.04 28.77 69.07 17.74 70.83 19.5 48.46 41.87 66.36 59.77 87.51 38.62 107.21 58.33 110.39 55.15 90.69 35.44 92.45 33.68"/><path class="cls-1" d="M178.36,16.8a1.89,1.89,0,0,0-1.44.6,1.94,1.94,0,0,0-.5.89,3.88,3.88,0,0,0-2.86-1.1H162.13A4.11,4.11,0,0,0,158,21.28V32.73a4,4,0,0,0,1.18,2.87,4,4,0,0,0,2.93,1.21h11.43a4,4,0,0,0,1.9-.47,4,4,0,0,0,.9-.64v6.94a1.54,1.54,0,0,1-.49,1.15,1.57,1.57,0,0,1-1.14.48H160a2,2,0,0,0-2,2,2,2,0,0,0,2,2h16.25a4.08,4.08,0,0,0,4.09-4.08V18.79a2,2,0,0,0-2-2Zm-2,6v8.36a1.58,1.58,0,0,1-.48,1.15,1.54,1.54,0,0,1-1.15.49H163.65a1.56,1.56,0,0,1-1.15-.48,1.59,1.59,0,0,1-.48-1.16V22.82a1.62,1.62,0,0,1,.48-1.17,1.56,1.56,0,0,1,1.15-.48h11.08a1.66,1.66,0,0,1,1.63,1.65Z"/><path class="cls-1" d="M202.2,9.54H186a2,2,0,0,0-2,2,2,2,0,0,0,.59,1.42,1.92,1.92,0,0,0,1.41.58h14.71a1.54,1.54,0,0,1,1.15.49,1.57,1.57,0,0,1,.48,1.14v4.41a1.49,1.49,0,0,1-.48,1.11,1.56,1.56,0,0,1-1.15.48h-12.6A4.13,4.13,0,0,0,184,25.28v7.45a3.89,3.89,0,0,0,1.22,2.88,4,4,0,0,0,2.89,1.2h16.23a1.92,1.92,0,0,0,1.41-.58,2,2,0,0,0,0-2.83,1.92,1.92,0,0,0-1.41-.58H189.58a1.54,1.54,0,0,1-1.15-.49,1.58,1.58,0,0,1-.48-1.15v-4.4a1.51,1.51,0,0,1,.48-1.12,1.59,1.59,0,0,1,1.15-.47H202.2A3.92,3.92,0,0,0,205.09,24a4,4,0,0,0,1.2-2.91V13.62a4.1,4.1,0,0,0-4.09-4.08Z"/><path class="cls-1" d="M228.13,17.19H216.68a4.29,4.29,0,0,0-1.91.44,3.48,3.48,0,0,0-.89.6V7.34a2,2,0,0,0-2-2,2,2,0,0,0-2,2V35.21a1.93,1.93,0,0,0,.59,1.41,2,2,0,0,0,1.41.57,1.91,1.91,0,0,0,1.44-.59,2,2,0,0,0,.51-.94,4.53,4.53,0,0,0,.92.67,4,4,0,0,0,1.93.48h11.45a4.1,4.1,0,0,0,4.09-4.08V21.28a4,4,0,0,0-1.17-2.87A3.89,3.89,0,0,0,228.13,17.19Zm.09,5.63v8.36a1.59,1.59,0,0,1-.48,1.16,1.56,1.56,0,0,1-1.15.48H215.51a1.57,1.57,0,0,1-1.14-.48,1.51,1.51,0,0,1-.49-1.16V22.82a1.64,1.64,0,0,1,.48-1.16,1.54,1.54,0,0,1,1.15-.49h11.08a1.54,1.54,0,0,1,1.15.49A1.59,1.59,0,0,1,228.22,22.82Z"/><path class="cls-1" d="M248.49,17.19h-5.88a4.25,4.25,0,0,0-1.91.44,3.83,3.83,0,0,0-.95.66,2,2,0,0,0-.52-.91,1.94,1.94,0,0,0-1.42-.58,2,2,0,0,0-2,2V35.21a1.93,1.93,0,0,0,.59,1.41,2,2,0,0,0,3.41-1.41V22.82a1.64,1.64,0,0,1,.48-1.16,1.54,1.54,0,0,1,1.15-.49h7.05a1.94,1.94,0,0,0,1.41-.58,1.89,1.89,0,0,0,.59-1.4,2,2,0,0,0-2-2Z"/><path class="cls-1" d="M270.42,17.19H254.17a2,2,0,0,0-1.42.59,2,2,0,0,0,0,2.81,2,2,0,0,0,1.42.58h14.7a1.54,1.54,0,0,1,1.15.49,1.59,1.59,0,0,1,.48,1.16V25H256.27a4,4,0,0,0-2.93,1.23,4,4,0,0,0-1.17,2.88v4a3.63,3.63,0,0,0,1.07,2.63,3.58,3.58,0,0,0,2.64,1.08H267.7a4,4,0,0,0,1.9-.47,4.41,4.41,0,0,0,.95-.68,1.8,1.8,0,0,0,.56,1,2,2,0,0,0,1.39.55,2,2,0,0,0,1.4-.55,1.86,1.86,0,0,0,.6-1.43V21.28a4,4,0,0,0-1.18-2.86A3.86,3.86,0,0,0,270.42,17.19ZM270.5,29v2.19a1.51,1.51,0,0,1-.49,1.16,1.61,1.61,0,0,1-1.14.48H257.63a1.4,1.4,0,0,1-1-.43,1.41,1.41,0,0,1-.44-1v-.94a1.34,1.34,0,0,1,.44-1,1.43,1.43,0,0,1,1-.42Z"/><path class="cls-1" d="M296.35,17.19H284.89a4.29,4.29,0,0,0-1.91.44,3.83,3.83,0,0,0-1,.66,2,2,0,0,0-1.93-1.49,1.94,1.94,0,0,0-1.42.58,1.92,1.92,0,0,0-.58,1.41V35.21a1.92,1.92,0,0,0,.58,1.41,2,2,0,0,0,1.42.57,2,2,0,0,0,2-2V22.82a1.61,1.61,0,0,1,.49-1.16,1.52,1.52,0,0,1,1.15-.49H294.8a1.66,1.66,0,0,1,1.63,1.65V35.21a1.93,1.93,0,0,0,.59,1.41,2,2,0,0,0,2.82,0,1.93,1.93,0,0,0,.59-1.41V21.28a4,4,0,0,0-1.17-2.87A3.86,3.86,0,0,0,296.35,17.19Z"/><path class="cls-1" d="M324.36,5.34a1.93,1.93,0,0,0-1.41.59h0a1.93,1.93,0,0,0-.59,1.41V18.23a3.31,3.31,0,0,0-.89-.6,4.22,4.22,0,0,0-1.91-.44H308.13a4,4,0,0,0-2.93,1.21A4,4,0,0,0,304,21.28V32.73a4.11,4.11,0,0,0,4.1,4.08h11.43a4,4,0,0,0,1.94-.48,4.46,4.46,0,0,0,.91-.67,2,2,0,0,0,.51.94,2,2,0,0,0,3.44-1.39V7.34a2,2,0,0,0-2-2Zm-2,17.48v8.36a1.54,1.54,0,0,1-.48,1.16,1.6,1.6,0,0,1-1.15.48H309.65a1.56,1.56,0,0,1-1.15-.48,1.59,1.59,0,0,1-.48-1.16V22.82a1.62,1.62,0,0,1,.48-1.17,1.58,1.58,0,0,1,1.15-.48h11.08a1.54,1.54,0,0,1,1.15.49A1.59,1.59,0,0,1,322.36,22.82Z"/><path class="cls-1" d="M334.39,21.59a1.39,1.39,0,0,1,1-.42h12.95a2,2,0,0,0,1.41-.58,1.89,1.89,0,0,0,.59-1.4,2,2,0,0,0-2-2H333.66A3.59,3.59,0,0,0,331,18.28a3.55,3.55,0,0,0-1.08,2.6v4a4.1,4.1,0,0,0,4.1,4.08H345a1.37,1.37,0,0,1,1,.42,1.35,1.35,0,0,1,.41,1v.94a1.39,1.39,0,0,1-.42,1,1.33,1.33,0,0,1-1,.44H332a2,2,0,0,0-2,2,1.94,1.94,0,0,0,.58,1.42,1.92,1.92,0,0,0,1.41.58h14.71a3.72,3.72,0,0,0,3.71-3.71v-4a4,4,0,0,0-1.18-2.9A3.89,3.89,0,0,0,346.31,25H335.42a1.4,1.4,0,0,1-1-.43,1.42,1.42,0,0,1-.44-1v-.94A1.31,1.31,0,0,1,334.39,21.59Z"/><path class="cls-2" d="M185.71,45.7,184,42.22a.37.37,0,0,1,0-.31.42.42,0,0,1,.21-.24.39.39,0,0,1,.3,0,.41.41,0,0,1,.25.2l1.41,2.82,1.41-2.82a.38.38,0,0,1,.23-.2.44.44,0,0,1,.32,0,.41.41,0,0,1,.19.55l-1.75,3.48v3.72a.39.39,0,0,1-.11.29.42.42,0,0,1-.29.11.44.44,0,0,1-.3-.11.44.44,0,0,1-.11-.29Z"/><path class="cls-2" d="M194.88,49.82a1.94,1.94,0,0,1-.76-.15,1.91,1.91,0,0,1-1-1,1.94,1.94,0,0,1-.15-.76V43.56a1.93,1.93,0,0,1,.15-.75,2,2,0,0,1,.41-.61,2.14,2.14,0,0,1,.61-.42,2,2,0,0,1,1.51,0,2.06,2.06,0,0,1,.62.42,2,2,0,0,1,.41.61,1.93,1.93,0,0,1,.15.75v4.33a1.94,1.94,0,0,1-.15.76,2.11,2.11,0,0,1-.41.61,2,2,0,0,1-.62.41A1.93,1.93,0,0,1,194.88,49.82Zm0-7.37a1.13,1.13,0,0,0-1.12,1.11v4.33A1.13,1.13,0,0,0,194.88,49a1.07,1.07,0,0,0,.79-.33,1.06,1.06,0,0,0,.33-.79V43.56a1.07,1.07,0,0,0-.09-.43,1.21,1.21,0,0,0-.24-.35,1,1,0,0,0-.36-.25A1,1,0,0,0,194.88,42.45Z"/><path class="cls-2" d="M203.24,48.68a1.12,1.12,0,0,0,1.59,0,1.06,1.06,0,0,0,.33-.79V42a.4.4,0,0,1,.11-.29.41.41,0,0,1,.3-.12.38.38,0,0,1,.28.12A.37.37,0,0,1,206,42v5.85a1.87,1.87,0,0,1-.57,1.37,2,2,0,0,1-.62.41,1.85,1.85,0,0,1-.74.15,1.94,1.94,0,0,1-.76-.15,1.91,1.91,0,0,1-1-1,1.94,1.94,0,0,1-.15-.76V42a.36.36,0,0,1,.11-.29.38.38,0,0,1,.29-.12.4.4,0,0,1,.29.12.37.37,0,0,1,.12.29v5.85A1.09,1.09,0,0,0,203.24,48.68Z"/><path class="cls-2" d="M215.28,44.33a1.92,1.92,0,0,1-1.19,1.79l1.17,3.16a.35.35,0,0,1,0,.3.41.41,0,0,1-.23.22.37.37,0,0,1-.31,0,.45.45,0,0,1-.22-.23l-1.22-3.3h-1v3.16a.44.44,0,0,1-.11.29.44.44,0,0,1-.3.11.41.41,0,0,1-.28-.11.4.4,0,0,1-.12-.29V42.09a.37.37,0,0,1,.12-.29.38.38,0,0,1,.28-.12h1.53a1.78,1.78,0,0,1,.75.16,1.86,1.86,0,0,1,.62.41,1.92,1.92,0,0,1,.41.62,1.86,1.86,0,0,1,.15.75Zm-1.93,1.12a1.13,1.13,0,0,0,1.12-1.12v-.71a1.07,1.07,0,0,0-.33-.79,1.06,1.06,0,0,0-.79-.33h-1.12v3Z"/><path class="cls-2" d="M227,42.39a2,2,0,0,1,1-.7,1.93,1.93,0,0,1,.63-.06,2.18,2.18,0,0,1,.61.15,1.91,1.91,0,0,1,.52.33,1.94,1.94,0,0,1,.41.49.35.35,0,0,1,0,.3.42.42,0,0,1-.19.26.38.38,0,0,1-.31,0,.48.48,0,0,1-.25-.19,1,1,0,0,0-.53-.48,1.11,1.11,0,0,0-.72-.05,1.13,1.13,0,0,0-.6.4,1.07,1.07,0,0,0-.24.68v4.33a1.06,1.06,0,0,0,.33.79,1.12,1.12,0,0,0,1.91-.79V46.26h-.86a.44.44,0,0,1-.29-.11.41.41,0,0,1-.12-.3.4.4,0,0,1,.12-.29.44.44,0,0,1,.29-.11h1.27a.42.42,0,0,1,.29.11.39.39,0,0,1,.11.29v2a1.94,1.94,0,0,1-.15.76,2.11,2.11,0,0,1-.41.61,2,2,0,0,1-.62.41,2,2,0,0,1-1.51,0,1.91,1.91,0,0,1-1-1,1.94,1.94,0,0,1-.15-.76V43.56A1.82,1.82,0,0,1,227,42.39Z"/><path class="cls-2" d="M237.62,49.82a1.91,1.91,0,0,1-.76-.15,2,2,0,0,1-.61-.41,2.11,2.11,0,0,1-.41-.61,1.79,1.79,0,0,1-.16-.76V43.56a1.78,1.78,0,0,1,.16-.75,2,2,0,0,1,.41-.61,2,2,0,0,1,.61-.42,1.91,1.91,0,0,1,.76-.15,1.93,1.93,0,0,1,.75.15,1.9,1.9,0,0,1,.61.42,1.85,1.85,0,0,1,.42.61,1.93,1.93,0,0,1,.15.75v4.33a1.87,1.87,0,0,1-.57,1.37,1.87,1.87,0,0,1-.61.41A1.93,1.93,0,0,1,237.62,49.82Zm0-7.37a1.08,1.08,0,0,0-.8.33,1.1,1.1,0,0,0-.32.78v4.33a1.12,1.12,0,0,0,1.91.79,1.06,1.06,0,0,0,.33-.79V43.56a1.07,1.07,0,0,0-.09-.43,1.21,1.21,0,0,0-.24-.35,1.11,1.11,0,0,0-.36-.25A1.06,1.06,0,0,0,237.62,42.45Z"/><path class="cls-2" d="M251.3,43.16a.51.51,0,0,1-.19-.26.35.35,0,0,1,0-.3,1.77,1.77,0,0,1,1.16-.89,1.85,1.85,0,0,1,.74-.06,2,2,0,0,1,.71.22,2,2,0,0,1,.57.47,1.7,1.7,0,0,1,.34.67,1.83,1.83,0,0,1-.14,1.46l-1,1.89c-.13.26-.27.51-.41.77l-.38.74-.33.64-.24.45h2.18a.41.41,0,0,1,.28.11.4.4,0,0,1,.12.29.39.39,0,0,1-.4.41h-2.85a.37.37,0,0,1-.35-.19.38.38,0,0,1,0-.41l2.67-5.08a1.15,1.15,0,0,0-.12-1.23.82.82,0,0,0-.34-.27,1.11,1.11,0,0,0-.84-.11,1.25,1.25,0,0,0-.38.2,1,1,0,0,0-.28.33.48.48,0,0,1-.25.19A.38.38,0,0,1,251.3,43.16Z"/><path class="cls-2" d="M267,49.77a.39.39,0,0,1-.4-.41V42.09a.37.37,0,0,1,.12-.29.38.38,0,0,1,.28-.12h2.55a.38.38,0,0,1,.29.12.44.44,0,0,1,0,.58.38.38,0,0,1-.29.12h-2.14v2.69h1.88a.41.41,0,0,1,.3.12.44.44,0,0,1,0,.58.41.41,0,0,1-.3.12h-1.88v3.35a.38.38,0,0,1-.41.41Z"/><path class="cls-2" d="M276.74,49.82a1.94,1.94,0,0,1-.76-.15,1.91,1.91,0,0,1-1-1,1.94,1.94,0,0,1-.15-.76V43.56a1.93,1.93,0,0,1,.15-.75,2,2,0,0,1,.41-.61,2.14,2.14,0,0,1,.61-.42,2,2,0,0,1,1.51,0,2.06,2.06,0,0,1,.62.42,2,2,0,0,1,.41.61,1.93,1.93,0,0,1,.15.75v4.33a1.94,1.94,0,0,1-.15.76,2.11,2.11,0,0,1-.41.61,2,2,0,0,1-.62.41A1.93,1.93,0,0,1,276.74,49.82Zm0-7.37a1.13,1.13,0,0,0-1.12,1.11v4.33A1.13,1.13,0,0,0,276.74,49a1.07,1.07,0,0,0,.79-.33,1.06,1.06,0,0,0,.33-.79V43.56a1.07,1.07,0,0,0-.09-.43,1.21,1.21,0,0,0-.24-.35,1,1,0,0,0-.36-.25A1,1,0,0,0,276.74,42.45Z"/><path class="cls-2" d="M287.93,44.33a1.92,1.92,0,0,1-1.19,1.79l1.17,3.16a.35.35,0,0,1,0,.3.39.39,0,0,1-.23.22.37.37,0,0,1-.31,0,.4.4,0,0,1-.21-.23l-1.23-3.3h-1v3.16a.44.44,0,0,1-.11.29.44.44,0,0,1-.3.11.41.41,0,0,1-.28-.11.4.4,0,0,1-.12-.29V42.09a.37.37,0,0,1,.12-.29.38.38,0,0,1,.28-.12H286a1.78,1.78,0,0,1,.75.16,1.86,1.86,0,0,1,.62.41,1.92,1.92,0,0,1,.41.62,1.86,1.86,0,0,1,.15.75ZM286,45.45a1.11,1.11,0,0,0,1.12-1.12v-.71A1.11,1.11,0,0,0,286,42.5h-1.12v3Z"/><path class="cls-2" d="M299.43,42.09a.41.41,0,0,1,.41-.41h1.53a1.78,1.78,0,0,1,.75.16,1.82,1.82,0,0,1,.61.41,1.94,1.94,0,0,1,.42.62,1.86,1.86,0,0,1,.15.75v.45a1.92,1.92,0,0,1-.2.87,2.07,2.07,0,0,1-.55.66,2.07,2.07,0,0,1,.55.66,1.92,1.92,0,0,1,.2.87v.71a1.94,1.94,0,0,1-.15.76,2.14,2.14,0,0,1-.42.61,2,2,0,0,1-.61.41,1.93,1.93,0,0,1-.75.15h-1.53a.4.4,0,0,1-.29-.11.41.41,0,0,1-.12-.3Zm3.05,1.53a1,1,0,0,0-.33-.79.92.92,0,0,0-.35-.24,1.07,1.07,0,0,0-.43-.09h-1.12v2.69h1.12a1.1,1.1,0,0,0,.78-.32,1.08,1.08,0,0,0,.33-.8Zm0,3.51a1,1,0,0,0-.33-.79,1.21,1.21,0,0,0-.35-.24,1.07,1.07,0,0,0-.43-.09h-1.12v3h1.12a1.13,1.13,0,0,0,1.11-1.12Z"/><path class="cls-2" d="M312.56,44.33a1.89,1.89,0,0,1-.33,1.09,1.87,1.87,0,0,1-.87.7l1.17,3.16a.35.35,0,0,1,0,.3.43.43,0,0,1-.24.22.35.35,0,0,1-.3,0,.38.38,0,0,1-.22-.23l-1.22-3.3h-1v3.16a.39.39,0,0,1-.41.4.44.44,0,0,1-.29-.11.4.4,0,0,1-.12-.29V42.09a.37.37,0,0,1,.12-.29.4.4,0,0,1,.29-.12h1.53a1.78,1.78,0,0,1,.75.16,1.82,1.82,0,0,1,.61.41,1.94,1.94,0,0,1,.42.62,1.86,1.86,0,0,1,.15.75Zm-1.93,1.12a1.07,1.07,0,0,0,.79-.33,1,1,0,0,0,.32-.79v-.71a1.11,1.11,0,0,0-1.11-1.12h-1.12v3Z"/><path class="cls-2" d="M322.11,49.31a.41.41,0,0,1,0,.31.43.43,0,0,1-.26.19.42.42,0,0,1-.31,0,.48.48,0,0,1-.19-.25c0-.13-.07-.27-.11-.42s-.09-.29-.14-.47-.1-.38-.16-.6h-2.46c-.07.22-.13.42-.17.6a3.9,3.9,0,0,1-.13.47c0,.15-.08.29-.11.42a.42.42,0,0,1-.76.09.41.41,0,0,1,0-.31l2-7.37a.39.39,0,0,1,.14-.23.43.43,0,0,1,.5,0,.46.46,0,0,1,.15.23Zm-1.42-2.08-.27-1c-.09-.34-.19-.67-.27-1l-.26-.92-.21-.79c-.07.23-.14.49-.22.79s-.15.6-.24.92-.18.65-.28,1-.18.65-.26,1Z"/><path class="cls-2" d="M331.17,49.81a.32.32,0,0,1-.27,0,.35.35,0,0,1-.19-.19c-.36-.73-.71-1.44-1-2.15-.15-.29-.3-.6-.46-.92s-.31-.65-.46-1l-.44-.93-.39-.81v5.6a.38.38,0,0,1-.4.4.44.44,0,0,1-.3-.11.44.44,0,0,1-.11-.29V42a.43.43,0,0,1,.09-.26.39.39,0,0,1,.23-.14.46.46,0,0,1,.26,0,.34.34,0,0,1,.19.18l1,2.15q.21.45.45.93l.46,1c.15.32.3.62.45.92l.39.82V42a.41.41,0,0,1,.41-.41.38.38,0,0,1,.29.12.36.36,0,0,1,.11.29v7.38a.46.46,0,0,1-.08.25A.37.37,0,0,1,331.17,49.81Z"/><path class="cls-2" d="M339,41.68a1.71,1.71,0,0,1,.75.16,1.77,1.77,0,0,1,.62.41,1.92,1.92,0,0,1,.41.62,1.71,1.71,0,0,1,.16.75v4.22a1.79,1.79,0,0,1-.16.76,2.11,2.11,0,0,1-.41.61,1.92,1.92,0,0,1-.62.41,1.86,1.86,0,0,1-.75.15h-1.52a.4.4,0,0,1-.29-.11.41.41,0,0,1-.12-.3V42.09a.41.41,0,0,1,.41-.41Zm1.12,1.94a1.06,1.06,0,0,0-.32-.79,1.08,1.08,0,0,0-.8-.33h-1.12V49H339a1.08,1.08,0,0,0,.8-.33,1,1,0,0,0,.32-.79Z"/><path class="cls-2" d="M348.48,48.77a1.12,1.12,0,0,0,.47-.86,1.19,1.19,0,0,0-.07-.49,1,1,0,0,0-.26-.42l-2-2.09a1.79,1.79,0,0,1-.43-.68,1.84,1.84,0,0,1-.1-.8,1.77,1.77,0,0,1,.23-.79,1.93,1.93,0,0,1,.53-.61,1.87,1.87,0,0,1,.74-.35,1.71,1.71,0,0,1,.81,0,2.13,2.13,0,0,1,.74.32,2,2,0,0,1,.55.61.35.35,0,0,1,0,.3.42.42,0,0,1-.19.26.38.38,0,0,1-.31,0A.42.42,0,0,1,349,43a1.12,1.12,0,1,0-1.78,1.33l2,2.1a2,2,0,0,1,.44.7,2,2,0,0,1,.12.84,1.91,1.91,0,0,1-.24.81,2,2,0,0,1-.55.63,2.11,2.11,0,0,1-.76.35,1.83,1.83,0,0,1-.84,0,2.12,2.12,0,0,1-.77-.33,2,2,0,0,1-.56-.62.38.38,0,0,1,0-.31.4.4,0,0,1,.19-.25.35.35,0,0,1,.3,0,.42.42,0,0,1,.26.19,1.06,1.06,0,0,0,.33.37,1.18,1.18,0,0,0,.46.19A1.13,1.13,0,0,0,348.48,48.77Z"/></g></g></svg>