<svg xmlns="http://www.w3.org/2000/svg" viewBox="0 0 585.35 321.2"><defs><style>.cls-1{isolation:isolate;}.cls-2,.cls-5,.cls-7{opacity:0.2;}.cls-3,.cls-4{fill:#cbcbcb;}.cls-4{stroke:#000;stroke-linecap:round;stroke-linejoin:round;stroke-width:3px;}.cls-5{mix-blend-mode:multiply;}.cls-6{fill:#4d4d4d;}</style></defs><title>global-sourcing-logistics</title><g class="cls-1"><g id="Layer_2" data-name="Layer 2"><g id="Layer_1-2" data-name="Layer 1"><g class="cls-2"><polygon points="542.95 60.33 534.53 51.91 462.61 51.91 457.89 47.19 465.97 39.11 465.97 34.61 440.99 34.61 428.5 47.1 391.09 47.1 391.09 54.92 373.51 54.92 346.8 81.64 338.01 81.64 338.01 74.21 343.64 74.21 348.59 69.26 348.59 60.9 308.82 60.9 286.03 83.69 286.03 94.7 297.89 94.7 297.89 99.82 307.79 99.82 307.79 84.45 317.69 74.56 321.19 78.05 315.22 84.03 315.22 100.33 310.31 105.24 288.05 105.24 275.11 118.17 275.11 125.88 268.14 125.88 263.41 130.6 263.41 142.83 277.01 142.83 291.58 128.27 305.18 141.87 309.38 137.66 304.52 132.79 307.38 129.93 316.76 139.32 323.63 139.32 329.42 145.1 338.01 145.1 338.01 151.25 334.25 155.01 321.96 155.01 318.21 151.25 308.19 151.25 304.55 154.89 296.93 147.27 269.39 147.27 251.29 165.36 251.29 188.75 266.57 204.03 293.63 204.03 293.63 226.02 301.76 234.15 301.76 266.3 312.55 277.08 323.1 277.08 333.95 266.23 333.95 250.6 345.14 239.41 345.14 218.05 360.98 202.22 360.98 193.47 351.55 193.47 340.62 182.55 340.62 166.05 344.59 166.05 344.59 174 358.32 187.72 362.93 187.72 374.71 175.95 374.71 171.17 368.22 171.17 357.98 160.93 360.54 158.37 367.02 164.85 388.7 164.85 396.21 172.36 400.48 172.36 400.48 191.14 406.54 197.2 410.38 197.2 413.58 194 413.58 185.85 422.05 177.38 422.05 173.04 427.71 173.04 437.05 182.39 441.87 182.39 441.87 197.9 444.8 200.83 444.8 202.86 452.03 210.09 453.54 208.58 453.54 205.19 445.13 196.78 445.13 190.63 448.73 190.63 454.42 196.32 457.32 196.32 461.56 192.08 461.56 185.28 455.71 179.43 455.71 175.44 464.49 175.44 480.37 159.56 480.37 152.22 475.42 147.27 475.42 138.39 480.32 133.49 486.25 139.42 486.25 147.78 490.95 147.78 494.19 144.54 494.19 135.92 512.67 117.44 512.67 106.82 506.65 106.82 506.65 98.79 516.04 89.41 548.47 89.41 537.55 100.33 537.55 113.47 543.18 113.47 554.79 101.87 554.79 89.41 564.8 89.41 583.78 70.43 583.78 60.33 542.95 60.33"/><polygon points="521.41 242.29 518.61 239.49 518.61 234.78 514.22 234.78 514.22 242.63 511.63 245.22 507.56 245.22 503.94 241.59 503.94 234.78 492.77 234.78 482.81 244.74 482.81 248.55 475.13 248.55 467.62 256.06 467.62 270.74 474.6 277.72 485.49 277.72 491.25 271.95 500.05 271.95 513.38 285.29 524.29 285.29 534.24 275.34 534.24 260.95 521.41 248.13 521.41 242.29"/><polygon points="436.86 204.94 436.86 207.94 446.45 217.53 446.45 220.42 450.32 224.29 453.67 224.29 453.67 217.94 440.67 204.94 436.86 204.94"/><polygon points="458.25 225.96 456.72 227.5 459.11 229.88 474.98 229.88 471.06 225.96 458.25 225.96"/><polygon points="554.27 297.88 557.87 301.48 567.22 292.13 567.22 287.1 566.14 286.01 554.27 297.88"/><polygon points="516.89 142.41 516.89 134.64 514.67 134.64 505.2 144.11 505.2 148.21 498.03 148.21 498.03 152.52 506.78 152.52 516.89 142.41"/><polygon points="205.63 15.75 180.8 15.75 167.53 29.02 157.58 29.02 157.58 37.51 175.16 37.51 188.56 50.91 188.56 74.56 198.85 84.84 208.45 84.84 225.71 67.58 233.54 67.58 247.63 53.48 247.63 8.15 213.23 8.15 205.63 15.75"/><polygon points="134.03 37.69 151.4 37.69 151.4 24.71 162.02 24.71 176.7 10.03 139.83 10.03 129.5 20.36 129.5 24.88 134.03 24.88 134.03 37.69"/><polygon points="156.22 49.29 131.78 49.29 131.78 56.71 146.95 56.71 154.9 64.66 154.9 72.38 166.33 83.81 174.82 75.32 168.85 69.35 172.56 65.64 156.22 49.29"/><polygon points="277.28 109.03 277.28 101.82 272.55 97.09 272.55 91.45 267.51 91.45 267.51 114.48 271.84 114.48 277.28 109.03"/><rect x="256.81" y="103.96" width="6.74" height="6.74"/><rect x="356.23" y="44.82" width="26.63" height="6.14" transform="translate(74.38 275.33) rotate(-45)"/><polygon points="473.78 221.07 477.59 217.25 477.59 203.12 473.35 203.12 466.14 210.33 462.17 210.33 462.17 214.86 468.37 221.07 473.78 221.07"/><polygon points="496.23 219.25 501.67 219.25 512.85 230.43 524.46 230.43 529.19 235.16 531.6 232.75 525.15 226.3 525.15 222.15 518.79 215.78 509.69 215.78 506.89 218.58 505.25 218.58 500.68 214.01 498.6 214.01 496.23 216.37 496.23 219.25"/><polygon points="351.24 245.5 351.24 259.25 357.34 259.25 357.34 251.09 362.5 245.93 362.5 239.85 359.7 237.04 351.24 245.5"/><polygon points="144.9 193.87 130.13 179.1 120.54 179.1 115.72 174.28 115.72 162.29 122.14 155.87 135.74 155.87 141.85 161.98 147.51 161.98 147.51 152.56 168.88 131.2 168.88 116.32 181.54 116.32 181.54 104.71 161.28 84.45 149.45 84.45 149.45 106.08 141.03 106.08 127.74 92.79 127.74 83.6 141.04 70.3 141.04 64.14 132.66 64.14 126.75 58.23 126.75 49.29 124.72 49.29 120.03 49.29 120.03 63.8 84.53 63.8 79.92 59.19 63.87 59.19 36.73 59.19 33.32 55.78 13.6 55.78 1.57 67.81 1.57 86.67 14.12 99.22 22.39 99.22 30.89 90.73 50.73 90.73 74.56 114.56 74.56 141.81 98.41 165.65 98.41 172.53 112.46 186.59 127.03 186.59 143.9 203.46 143.9 224.42 157.66 238.18 157.66 279.73 151.62 285.77 151.62 311.14 161.68 321.2 168.79 321.2 168.79 300.21 196.56 272.44 196.56 261.98 212.38 246.16 212.38 218.96 187.28 193.87 144.9 193.87"/></g><polygon class="cls-3" points="542.95 53.75 534.53 45.33 462.61 45.33 457.89 40.61 465.97 32.53 465.97 28.03 440.99 28.03 428.5 40.52 391.09 40.52 391.09 48.35 373.51 48.35 346.8 75.06 338.01 75.06 338.01 67.64 343.64 67.64 348.59 62.69 348.59 54.32 308.82 54.32 286.03 77.11 286.03 88.12 297.89 88.12 297.89 93.24 307.79 93.24 307.79 77.88 317.69 67.98 321.19 71.48 315.22 77.45 315.22 93.75 310.31 98.66 288.05 98.66 275.11 111.6 275.11 119.3 268.14 119.3 263.41 124.02 263.41 136.25 277.01 136.25 291.58 121.69 305.18 135.29 309.38 131.08 304.52 126.21 307.38 123.35 316.76 132.74 323.63 132.74 329.42 138.52 338.01 138.52 338.01 144.68 334.25 148.43 321.96 148.43 318.21 144.68 308.19 144.68 304.55 148.32 296.93 140.69 269.39 140.69 251.29 158.78 251.29 182.17 266.57 197.45 293.63 197.45 293.63 219.44 301.76 227.57 301.76 259.72 312.55 270.5 323.1 270.5 333.95 259.65 333.95 244.02 345.14 232.83 345.14 211.47 360.98 195.64 360.98 186.89 351.55 186.89 340.62 175.97 340.62 159.47 344.59 159.47 344.59 167.42 358.32 181.15 362.93 181.15 374.71 169.37 374.71 164.59 368.22 164.59 357.98 154.35 360.54 151.79 367.02 158.27 388.7 158.27 396.21 165.78 400.48 165.78 400.48 184.56 406.54 190.62 410.38 190.62 413.58 187.42 413.58 179.27 422.05 170.8 422.05 166.47 427.71 166.47 437.05 175.81 441.87 175.81 441.87 191.32 444.8 194.25 444.8 196.28 452.03 203.51 453.54 202 453.54 198.61 445.13 190.21 445.13 184.05 448.73 184.05 454.42 189.74 457.32 189.74 461.56 185.5 461.56 178.7 455.71 172.85 455.71 168.86 464.49 168.86 480.37 152.98 480.37 145.64 475.42 140.69 475.42 131.82 480.32 126.91 486.25 132.84 486.25 141.2 490.95 141.2 494.19 137.96 494.19 129.34 512.67 110.86 512.67 100.24 506.65 100.24 506.65 92.22 516.04 82.83 548.47 82.83 537.55 93.75 537.55 106.89 543.18 106.89 554.79 95.29 554.79 82.83 564.8 82.83 583.78 63.85 583.78 53.75 542.95 53.75"/><path d="M323.1,272.07H312.55a1.57,1.57,0,0,1-1.12-.46l-10.78-10.78a1.57,1.57,0,0,1-.46-1.11v-31.5l-7.67-7.67a1.57,1.57,0,0,1-.46-1.11V199H266.57a1.61,1.61,0,0,1-1.11-.46l-15.28-15.28a1.57,1.57,0,0,1-.46-1.11V158.79a1.62,1.62,0,0,1,.46-1.12l18.1-18.09a1.57,1.57,0,0,1,1.11-.46h27.54a1.61,1.61,0,0,1,1.11.46l6.51,6.52,2.53-2.54a1.61,1.61,0,0,1,1.11-.46h10a1.61,1.61,0,0,1,1.11.46l3.29,3.3h11l2.84-2.84v-3.93h-7a1.53,1.53,0,0,1-1.11-.46L323,134.31h-6.22a1.57,1.57,0,0,1-1.11-.46l-8.27-8.28-.64.64L310.5,130a1.57,1.57,0,0,1,.46,1.11,1.59,1.59,0,0,1-.46,1.11l-4.21,4.21a1.58,1.58,0,0,1-2.22,0l-12.49-12.49-13.46,13.45a1.53,1.53,0,0,1-1.11.46h-13.6a1.57,1.57,0,0,1-1.57-1.57V124a1.59,1.59,0,0,1,.46-1.11l4.73-4.72a1.53,1.53,0,0,1,1.11-.46h5.4V111.6a1.57,1.57,0,0,1,.46-1.11l12.94-12.94a1.53,1.53,0,0,1,1.11-.46h21.61l4-4V77.45a1.53,1.53,0,0,1,.46-1.11L319,71.48l-1.28-1.28-8.33,8.33V93.24a1.57,1.57,0,0,1-1.57,1.57h-9.9a1.57,1.57,0,0,1-1.57-1.57V89.69H286a1.57,1.57,0,0,1-1.57-1.57v-11a1.57,1.57,0,0,1,.46-1.11l22.79-22.79a1.57,1.57,0,0,1,1.11-.46h39.77a1.57,1.57,0,0,1,1.57,1.57v8.36a1.62,1.62,0,0,1-.46,1.12l-4.95,5a1.57,1.57,0,0,1-1.11.46h-4.06v4.28h6.57L372.4,47.24a1.55,1.55,0,0,1,1.11-.46h16V40.52A1.57,1.57,0,0,1,391.09,39h36.76l12-12a1.61,1.61,0,0,1,1.11-.46h25A1.57,1.57,0,0,1,467.54,28v4.5a1.59,1.59,0,0,1-.46,1.11l-7,7,3.15,3.15h71.27a1.57,1.57,0,0,1,1.11.46l8,8h40.18a1.57,1.57,0,0,1,1.57,1.57v10.1a1.57,1.57,0,0,1-.46,1.11l-19,19a1.57,1.57,0,0,1-1.11.46h-8.44V95.29a1.61,1.61,0,0,1-.46,1.11L544.29,108a1.53,1.53,0,0,1-1.11.46h-5.63a1.57,1.57,0,0,1-1.57-1.57V93.75a1.55,1.55,0,0,1,.46-1.11l8.24-8.24h-28l-8.47,8.47v5.8h4.45a1.57,1.57,0,0,1,1.57,1.57v10.62a1.57,1.57,0,0,1-.46,1.11l-18,18v8a1.53,1.53,0,0,1-.46,1.11l-3.24,3.24a1.57,1.57,0,0,1-1.11.46h-4.7a1.57,1.57,0,0,1-1.57-1.57v-7.71l-4.36-4.36L477,132.47V140l4.49,4.49a1.61,1.61,0,0,1,.46,1.11V153a1.57,1.57,0,0,1-.46,1.11L465.6,170a1.57,1.57,0,0,1-1.11.46h-7.21v1.77l5.39,5.39a1.57,1.57,0,0,1,.46,1.11v6.8a1.59,1.59,0,0,1-.46,1.11l-4.24,4.24a1.57,1.57,0,0,1-1.11.46h-2.9a1.57,1.57,0,0,1-1.11-.46l-5.23-5.23H446.7v3.94l7.95,7.94a1.61,1.61,0,0,1,.46,1.11V202a1.57,1.57,0,0,1-.46,1.11l-1.51,1.51a1.61,1.61,0,0,1-2.22,0l-7.23-7.23a1.57,1.57,0,0,1-.46-1.11V194.9l-2.47-2.47a1.57,1.57,0,0,1-.46-1.11V177.38h-3.25a1.57,1.57,0,0,1-1.11-.46L427.06,168h-3.44v2.76a1.57,1.57,0,0,1-.46,1.11l-8,8v7.5a1.53,1.53,0,0,1-.46,1.11l-3.2,3.2a1.57,1.57,0,0,1-1.11.46h-3.84a1.57,1.57,0,0,1-1.11-.46l-6.06-6.06a1.57,1.57,0,0,1-.46-1.11V167.35h-2.7a1.57,1.57,0,0,1-1.11-.46l-7.05-7H367a1.57,1.57,0,0,1-1.11-.46L360.54,154l-.34.34,8.67,8.67h5.84a1.57,1.57,0,0,1,1.57,1.57v4.78a1.61,1.61,0,0,1-.46,1.11L364,182.26a1.61,1.61,0,0,1-1.11.46h-4.61a1.57,1.57,0,0,1-1.11-.46l-13.73-13.73a1.61,1.61,0,0,1-.46-1.11V161h-.83v14.28l10,10H361a1.58,1.58,0,0,1,1.57,1.57v8.75a1.61,1.61,0,0,1-.46,1.11l-15.38,15.37v20.71a1.53,1.53,0,0,1-.46,1.11l-10.73,10.73v15a1.53,1.53,0,0,1-.46,1.11l-10.85,10.85A1.53,1.53,0,0,1,323.1,272.07Zm-9.9-3.14h9.25l9.93-9.93V244a1.57,1.57,0,0,1,.46-1.11l10.73-10.73V211.47a1.61,1.61,0,0,1,.46-1.11L359.41,195v-6.53h-7.86a1.53,1.53,0,0,1-1.11-.46l-10.93-10.92a1.61,1.61,0,0,1-.46-1.11v-16.5a1.57,1.57,0,0,1,1.57-1.57h4a1.57,1.57,0,0,1,1.57,1.57v7.3L359,179.58h3.31l10.86-10.86v-2.56h-4.92a1.57,1.57,0,0,1-1.11-.46l-10.24-10.24a1.56,1.56,0,0,1,0-2.22l2.56-2.56a1.56,1.56,0,0,1,2.22,0l6,6h21a1.57,1.57,0,0,1,1.11.46l7.05,7.05h3.62a1.57,1.57,0,0,1,1.57,1.57v18.13l5.14,5.14h2.54l2.28-2.28v-7.5a1.57,1.57,0,0,1,.46-1.11l8-8v-3.68a1.57,1.57,0,0,1,1.57-1.57h5.66a1.57,1.57,0,0,1,1.11.46l8.88,8.88h4.17a1.57,1.57,0,0,1,1.57,1.57v14.86l.34.34a1.6,1.6,0,0,1-.22-.8v-6.16a1.57,1.57,0,0,1,1.57-1.57h3.6a1.53,1.53,0,0,1,1.11.46l5.23,5.23h1.6l3.32-3.32v-5.5L454.6,174a1.57,1.57,0,0,1-.46-1.11v-4a1.57,1.57,0,0,1,1.57-1.57h8.13l15-15v-6l-4.49-4.49a1.57,1.57,0,0,1-.46-1.11v-8.87a1.57,1.57,0,0,1,.46-1.11l4.91-4.91a1.56,1.56,0,0,1,2.22,0l5.93,5.93a1.53,1.53,0,0,1,.46,1.11v6.79h2.48l2.32-2.32v-8a1.57,1.57,0,0,1,.46-1.11l18-18v-8.4h-4.45a1.57,1.57,0,0,1-1.57-1.57v-8a1.62,1.62,0,0,1,.46-1.12l9.39-9.38a1.53,1.53,0,0,1,1.11-.46h32.43a1.57,1.57,0,0,1,1.11,2.68L539.12,94.4v10.92h3.41l10.69-10.68V82.83a1.57,1.57,0,0,1,1.57-1.57h9.36L582.21,63.2V55.32H543a1.57,1.57,0,0,1-1.11-.46l-8-8H462.61a1.57,1.57,0,0,1-1.11-.46l-4.72-4.72a1.58,1.58,0,0,1,0-2.22l7.62-7.62V29.6H441.64l-12,12a1.53,1.53,0,0,1-1.11.46H392.66v6.26a1.57,1.57,0,0,1-1.57,1.57H374.16L347.91,76.17a1.61,1.61,0,0,1-1.11.46H338a1.57,1.57,0,0,1-1.57-1.57V67.64A1.57,1.57,0,0,1,338,66.06h5l4-4V55.89H309.47L287.6,77.76v8.79h10.29a1.57,1.57,0,0,1,1.57,1.57v3.55h6.76V77.88a1.57,1.57,0,0,1,.46-1.11l9.9-9.9a1.61,1.61,0,0,1,2.22,0l3.5,3.5a1.53,1.53,0,0,1,.46,1.11,1.57,1.57,0,0,1-.46,1.11l-5.51,5.51V93.75a1.57,1.57,0,0,1-.46,1.11l-4.91,4.91a1.57,1.57,0,0,1-1.11.46H288.7l-12,12v7a1.57,1.57,0,0,1-1.57,1.57h-6.32l-3.81,3.8v10h11.38l14.11-14.1a1.56,1.56,0,0,1,2.22,0l12.49,12.49,2-2-3.75-3.76a1.56,1.56,0,0,1,0-2.22l2.86-2.86a1.61,1.61,0,0,1,2.22,0l8.92,8.93h6.22a1.62,1.62,0,0,1,1.12.46l5.32,5.32H338a1.58,1.58,0,0,1,1.57,1.57v6.15a1.57,1.57,0,0,1-.46,1.11l-3.76,3.76a1.57,1.57,0,0,1-1.11.46H322a1.61,1.61,0,0,1-1.11-.46l-3.29-3.3h-8.72l-3.18,3.19a1.61,1.61,0,0,1-2.22,0l-7.16-7.17H270l-17.17,17.18v22.08l14.35,14.36h26.41a1.57,1.57,0,0,1,1.57,1.57v21.34l7.67,7.67a1.57,1.57,0,0,1,.46,1.11v31.5Zm133.17-73.3,5.6,5.59v-2l-5.81-5.81a1.59,1.59,0,0,1,.21.8Z"/><polygon class="cls-3" points="521.41 235.71 518.61 232.91 518.61 228.2 514.22 228.2 514.22 236.05 511.63 238.64 507.56 238.64 503.94 235.01 503.94 228.2 492.77 228.2 482.81 238.16 482.81 241.97 475.13 241.97 467.62 249.48 467.62 264.16 474.6 271.14 485.49 271.14 491.25 265.38 500.05 265.38 513.38 278.71 524.29 278.71 534.24 268.76 534.24 254.37 521.41 241.55 521.41 235.71"/><path d="M524.29,280.28H513.38a1.61,1.61,0,0,1-1.11-.46L499.4,267h-7.5l-5.3,5.3a1.57,1.57,0,0,1-1.11.46H474.6a1.57,1.57,0,0,1-1.11-.46l-7-7a1.57,1.57,0,0,1-.46-1.11V249.48a1.57,1.57,0,0,1,.46-1.11l7.51-7.51a1.53,1.53,0,0,1,1.11-.46h6.11v-2.24a1.57,1.57,0,0,1,.46-1.11l10-10a1.57,1.57,0,0,1,1.11-.46h11.16a1.57,1.57,0,0,1,1.58,1.57v6.16l2.7,2.71H511l1.67-1.67v-7.2a1.57,1.57,0,0,1,1.57-1.57h4.39a1.57,1.57,0,0,1,1.57,1.57v4.06l2.34,2.34a1.55,1.55,0,0,1,.46,1.11v5.19l12.37,12.36a1.61,1.61,0,0,1,.46,1.11v14.39a1.57,1.57,0,0,1-.46,1.11l-10,9.95A1.57,1.57,0,0,1,524.29,280.28ZM514,277.14h9.61l9-9V255L520.3,242.66a1.61,1.61,0,0,1-.46-1.11v-5.19L517.5,234a1.57,1.57,0,0,1-.46-1.11v-3.14h-1.25v6.28a1.57,1.57,0,0,1-.46,1.11l-2.59,2.59a1.53,1.53,0,0,1-1.11.46h-4.07a1.57,1.57,0,0,1-1.11-.46l-3.63-3.63a1.57,1.57,0,0,1-.46-1.11v-5.24h-8.94l-9,9V242a1.57,1.57,0,0,1-1.57,1.57h-7l-6.59,6.59v13.38l6.06,6.06h9.59l5.3-5.3a1.57,1.57,0,0,1,1.11-.46h8.8a1.53,1.53,0,0,1,1.11.46Z"/><polygon class="cls-3" points="436.86 198.37 436.86 201.36 446.45 210.95 446.45 213.84 450.32 217.71 453.67 217.71 453.67 211.36 440.67 198.37 436.86 198.37"/><path d="M453.67,219.28h-3.35a1.53,1.53,0,0,1-1.11-.46L445.34,215a1.53,1.53,0,0,1-.46-1.11V211.6l-9.13-9.13a1.53,1.53,0,0,1-.46-1.11v-3a1.57,1.57,0,0,1,1.57-1.57h3.81a1.57,1.57,0,0,1,1.11.46l13,13a1.57,1.57,0,0,1,.46,1.11v6.35A1.57,1.57,0,0,1,453.67,219.28Zm-2.7-3.14h1.13V212L440,199.94h-1.59v.77l9.13,9.13A1.61,1.61,0,0,1,448,211v2.24Z"/><polygon class="cls-3" points="458.25 219.38 456.72 220.92 459.11 223.31 474.98 223.31 471.06 219.38 458.25 219.38"/><path d="M475,224.88H459.11a1.57,1.57,0,0,1-1.11-.46L455.61,222a1.58,1.58,0,0,1,0-2.22l1.53-1.54a1.61,1.61,0,0,1,1.11-.46h12.81a1.61,1.61,0,0,1,1.11.46l3.92,3.93a1.55,1.55,0,0,1,.34,1.71A1.57,1.57,0,0,1,475,224.88Zm-15.22-3.14h11.43l-.78-.79H459Z"/><polygon class="cls-3" points="554.27 291.3 557.87 294.9 567.22 285.55 567.22 280.52 566.14 279.44 554.27 291.3"/><path d="M557.87,296.47a1.56,1.56,0,0,1-1.11-.46l-3.6-3.6a1.58,1.58,0,0,1,0-2.22L565,278.33a1.56,1.56,0,0,1,2.22,0l1.08,1.08a1.57,1.57,0,0,1,.46,1.11v5a1.57,1.57,0,0,1-.46,1.11L559,296A1.53,1.53,0,0,1,557.87,296.47Zm-1.37-5.17,1.37,1.38,7.78-7.78v-2.75Z"/><polygon class="cls-3" points="516.89 135.83 516.89 128.06 514.67 128.06 505.2 137.53 505.2 141.63 498.03 141.63 498.03 145.94 506.78 145.94 516.89 135.83"/><path d="M506.78,147.51H498a1.57,1.57,0,0,1-1.57-1.57v-4.31a1.57,1.57,0,0,1,1.57-1.57h5.6v-2.53a1.61,1.61,0,0,1,.46-1.11l9.47-9.47a1.61,1.61,0,0,1,1.11-.46h2.22a1.57,1.57,0,0,1,1.57,1.57v7.77a1.57,1.57,0,0,1-.46,1.11l-10.11,10.11A1.53,1.53,0,0,1,506.78,147.51Zm-7.18-3.14h6.53l9.19-9.19v-5.55l-8.55,8.55v3.45a1.57,1.57,0,0,1-1.57,1.57h-5.6Zm17.29-8.54h0Z"/><polygon class="cls-3" points="205.63 9.17 180.8 9.17 167.53 22.44 157.58 22.44 157.58 30.94 175.16 30.94 188.56 44.34 188.56 67.98 198.85 78.26 208.45 78.26 225.71 61 233.54 61 247.63 46.91 247.63 1.57 213.23 1.57 205.63 9.17"/><path d="M208.45,79.83h-9.6a1.53,1.53,0,0,1-1.11-.46L187.45,69.09A1.61,1.61,0,0,1,187,68V45L174.51,32.51H157.58A1.58,1.58,0,0,1,156,30.94v-8.5a1.57,1.57,0,0,1,1.57-1.57h9.29L179.69,8.06a1.53,1.53,0,0,1,1.11-.46H205L212.12.46A1.57,1.57,0,0,1,213.23,0h34.41a1.57,1.57,0,0,1,1.57,1.57V46.91a1.61,1.61,0,0,1-.46,1.11l-14.1,14.09a1.57,1.57,0,0,1-1.11.46h-7.18l-16.8,16.8A1.53,1.53,0,0,1,208.45,79.83Zm-8.95-3.14h8.3l16.8-16.8a1.57,1.57,0,0,1,1.11-.46h7.18l13.18-13.17V3.14H213.88l-7.14,7.14a1.57,1.57,0,0,1-1.11.46H181.45L168.64,23.55a1.57,1.57,0,0,1-1.11.46h-8.38v5.36h16a1.57,1.57,0,0,1,1.11.46l13.39,13.4a1.54,1.54,0,0,1,.47,1.11v23Z"/><polygon class="cls-3" points="134.03 31.11 151.4 31.11 151.4 18.13 162.02 18.13 176.7 3.45 139.83 3.45 129.5 13.78 129.5 18.3 134.03 18.3 134.03 31.11"/><path d="M151.4,32.68H134a1.57,1.57,0,0,1-1.57-1.57V19.88h-3a1.58,1.58,0,0,1-1.57-1.58V13.78a1.59,1.59,0,0,1,.46-1.11L138.72,2.34a1.61,1.61,0,0,1,1.11-.46H176.7a1.57,1.57,0,0,1,1.45,1,1.55,1.55,0,0,1-.34,1.71L163.13,19.24a1.53,1.53,0,0,1-1.11.46H153V31.11A1.58,1.58,0,0,1,151.4,32.68Zm-15.8-3.14h14.23V18.13a1.57,1.57,0,0,1,1.57-1.57h10L172.91,5H140.48l-9.4,9.41v2.3H134a1.57,1.57,0,0,1,1.57,1.57Z"/><polygon class="cls-3" points="156.22 42.71 131.78 42.71 131.78 50.13 146.95 50.13 154.9 58.08 154.9 65.8 166.33 77.24 174.82 68.74 168.85 62.77 172.56 59.06 156.22 42.71"/><path d="M166.33,78.81a1.6,1.6,0,0,1-1.11-.46L153.79,66.91a1.53,1.53,0,0,1-.46-1.11V58.73l-7-7H131.78a1.57,1.57,0,0,1-1.57-1.57V42.71a1.57,1.57,0,0,1,1.57-1.57h24.44a1.61,1.61,0,0,1,1.11.46L173.67,58a1.53,1.53,0,0,1,.46,1.11,1.57,1.57,0,0,1-.46,1.11l-2.6,2.6,4.86,4.86a1.57,1.57,0,0,1,.46,1.11,1.53,1.53,0,0,1-.46,1.11l-8.49,8.5A1.58,1.58,0,0,1,166.33,78.81Zm-9.86-13.66L166.33,75l6.27-6.28-4.86-4.86a1.53,1.53,0,0,1-.46-1.11,1.57,1.57,0,0,1,.46-1.11l2.6-2.6L155.57,44.28H133.35v4.28H147a1.55,1.55,0,0,1,1.11.46L156,57a1.57,1.57,0,0,1,.46,1.11Z"/><polygon class="cls-3" points="277.28 102.46 277.28 95.25 272.55 90.51 272.55 84.88 267.51 84.88 267.51 107.9 271.84 107.9 277.28 102.46"/><path d="M271.84,109.47h-4.33a1.57,1.57,0,0,1-1.57-1.57v-23a1.57,1.57,0,0,1,1.57-1.57h5a1.58,1.58,0,0,1,1.57,1.57v5l4.27,4.27a1.57,1.57,0,0,1,.46,1.11v7.22a1.57,1.57,0,0,1-.46,1.11L273,109A1.57,1.57,0,0,1,271.84,109.47Zm-2.76-3.14h2.11l4.52-4.52V95.89l-4.27-4.27a1.57,1.57,0,0,1-.46-1.11V86.45h-1.9Zm8.2-3.87h0Z"/><rect class="cls-3" x="256.81" y="97.38" width="6.74" height="6.74"/><path d="M263.56,105.69h-6.75a1.57,1.57,0,0,1-1.57-1.57V97.38a1.57,1.57,0,0,1,1.57-1.57h6.75a1.57,1.57,0,0,1,1.57,1.57v6.74A1.57,1.57,0,0,1,263.56,105.69Zm-5.18-3.14H262V99h-3.61Z"/><rect class="cls-4" x="356.23" y="38.24" width="26.63" height="6.14" transform="translate(79.03 273.41) rotate(-45)"/><polygon class="cls-3" points="473.78 214.49 477.59 210.68 477.59 196.54 473.35 196.54 466.14 203.75 462.17 203.75 462.17 208.28 468.37 214.49 473.78 214.49"/><path d="M473.78,216.06h-5.41a1.61,1.61,0,0,1-1.11-.46l-6.2-6.2a1.62,1.62,0,0,1-.46-1.12v-4.53a1.57,1.57,0,0,1,1.57-1.57h3.32l6.75-6.75a1.57,1.57,0,0,1,1.11-.46h4.24a1.57,1.57,0,0,1,1.57,1.57v14.14a1.57,1.57,0,0,1-.46,1.11l-3.81,3.81A1.59,1.59,0,0,1,473.78,216.06ZM469,212.92h4.11L476,210V198.11h-2l-6.75,6.75a1.57,1.57,0,0,1-1.11.46h-2.4v2.31Z"/><polygon class="cls-3" points="496.23 212.67 501.67 212.67 512.85 223.85 524.46 223.85 529.19 228.59 531.6 226.17 525.15 219.72 525.15 215.57 518.79 209.2 509.69 209.2 506.89 212 505.25 212 500.68 207.43 498.6 207.43 496.23 209.79 496.23 212.67"/><path d="M529.19,230.15a1.56,1.56,0,0,1-1.11-.46l-4.27-4.27h-11a1.57,1.57,0,0,1-1.11-.46L501,214.24h-4.79a1.58,1.58,0,0,1-1.57-1.57v-2.88a1.61,1.61,0,0,1,.46-1.11l2.36-2.36a1.62,1.62,0,0,1,1.12-.46h2.08a1.57,1.57,0,0,1,1.11.46l4.11,4.11h.34l2.34-2.34a1.57,1.57,0,0,1,1.11-.46h9.1a1.61,1.61,0,0,1,1.11.46l6.36,6.37a1.53,1.53,0,0,1,.46,1.11v3.5l6,6a1.57,1.57,0,0,1,.46,1.11,1.53,1.53,0,0,1-.46,1.11l-2.41,2.41A1.54,1.54,0,0,1,529.19,230.15Zm-15.69-7.87h11a1.57,1.57,0,0,1,1.11.46l3.62,3.62.19-.19L524,220.83a1.57,1.57,0,0,1-.46-1.11v-3.5l-5.44-5.45h-7.8L508,213.11a1.53,1.53,0,0,1-1.11.46h-1.64a1.54,1.54,0,0,1-.56-.1ZM497.8,211.1h3.87a1.54,1.54,0,0,1,.56.1L500,209h-.78l-1.45,1.44Z"/><polygon class="cls-3" points="351.24 238.93 351.24 252.67 357.34 252.67 357.34 244.52 362.5 239.35 362.5 233.27 359.7 230.47 351.24 238.93"/><path d="M357.34,254.24h-6.1a1.58,1.58,0,0,1-1.58-1.57V238.93a1.54,1.54,0,0,1,.47-1.11l8.46-8.47a1.57,1.57,0,0,1,1.11-.46h0a1.61,1.61,0,0,1,1.11.46l2.8,2.81a1.53,1.53,0,0,1,.46,1.11v6.08a1.53,1.53,0,0,1-.46,1.11l-4.7,4.71v7.5A1.58,1.58,0,0,1,357.34,254.24Zm-4.53-3.14h3v-6.58a1.53,1.53,0,0,1,.46-1.11l4.7-4.71v-4.78l-1.23-1.23-6.89,6.89Z"/><polygon class="cls-3" points="144.9 187.29 130.13 172.53 120.54 172.53 115.72 167.7 115.72 155.71 122.14 149.29 135.74 149.29 141.85 155.4 147.51 155.4 147.51 145.98 168.88 124.62 168.88 109.74 181.54 109.74 181.54 98.13 161.28 77.88 149.45 77.88 149.45 99.5 141.03 99.5 127.74 86.21 127.74 77.02 141.04 63.72 141.04 57.56 132.66 57.56 126.75 51.65 126.75 42.71 124.72 42.71 120.03 42.71 120.03 57.22 84.53 57.22 79.92 52.61 63.87 52.61 36.73 52.61 33.32 49.2 13.6 49.2 1.57 61.23 1.57 80.1 14.12 92.64 22.39 92.64 30.89 84.15 50.73 84.15 74.56 107.98 74.56 135.23 98.41 159.07 98.41 165.95 112.46 180.01 127.03 180.01 143.9 196.88 143.9 217.84 157.66 231.6 157.66 273.15 151.62 279.19 151.62 304.56 161.68 314.63 168.79 314.63 168.79 293.63 196.56 265.87 196.56 255.4 212.38 239.58 212.38 212.38 187.28 187.29 144.9 187.29"/><path d="M168.79,316.2h-7.11a1.61,1.61,0,0,1-1.11-.46l-10.06-10.07a1.57,1.57,0,0,1-.46-1.11V279.19a1.53,1.53,0,0,1,.46-1.11l5.57-5.58V232.25L142.79,219a1.57,1.57,0,0,1-.46-1.12V197.53l-16-15.95H112.46a1.61,1.61,0,0,1-1.11-.46l-14-14.06a1.53,1.53,0,0,1-.46-1.11v-6.23L73.45,136.34a1.57,1.57,0,0,1-.46-1.11v-26.6L50.08,85.72H31.54l-8,8a1.57,1.57,0,0,1-1.12.46H14.12A1.53,1.53,0,0,1,13,93.75L.46,81.21A1.61,1.61,0,0,1,0,80.1V61.23a1.57,1.57,0,0,1,.46-1.11l12-12a1.57,1.57,0,0,1,1.11-.46H33.32a1.59,1.59,0,0,1,1.11.46l3,2.95H79.92A1.59,1.59,0,0,1,81,51.5l4.15,4.15h33.28V42.71A1.57,1.57,0,0,1,120,41.14h6.72a1.58,1.58,0,0,1,1.57,1.57V51l5,5H141a1.57,1.57,0,0,1,1.57,1.57v6.16a1.53,1.53,0,0,1-.46,1.11L129.31,77.67v7.89l12.37,12.37h6.2V77.88a1.57,1.57,0,0,1,1.57-1.57h11.83a1.53,1.53,0,0,1,1.11.46L182.65,97a1.61,1.61,0,0,1,.46,1.11v11.61a1.57,1.57,0,0,1-1.57,1.57H170.45v13.31a1.61,1.61,0,0,1-.46,1.11l-20.91,20.9v8.77a1.57,1.57,0,0,1-1.57,1.57h-5.66a1.53,1.53,0,0,1-1.11-.46l-5.66-5.65H122.79l-5.5,5.5v10.69l3.9,3.91h8.94a1.53,1.53,0,0,1,1.11.46l14.31,14.3h41.73a1.57,1.57,0,0,1,1.11.46l25.1,25.09a1.61,1.61,0,0,1,.46,1.11v27.2a1.57,1.57,0,0,1-.46,1.11l-15.36,15.36v9.82a1.61,1.61,0,0,1-.46,1.11l-27.31,27.3v20.34A1.57,1.57,0,0,1,168.79,316.2Zm-6.46-3.15h4.89V293.63a1.61,1.61,0,0,1,.46-1.11L195,265.22V255.4a1.53,1.53,0,0,1,.46-1.11l15.36-15.36V213l-24.18-24.17H144.9a1.53,1.53,0,0,1-1.11-.46l-14.31-14.3h-8.94a1.61,1.61,0,0,1-1.11-.46l-4.82-4.83a1.57,1.57,0,0,1-.46-1.11v-12a1.61,1.61,0,0,1,.46-1.11l6.42-6.42a1.61,1.61,0,0,1,1.11-.46h13.6a1.61,1.61,0,0,1,1.11.46l5.65,5.65h3.44V146a1.61,1.61,0,0,1,.46-1.11L167.31,124V109.74a1.57,1.57,0,0,1,1.57-1.57H180V98.78L160.63,79.45H151v20a1.57,1.57,0,0,1-1.57,1.57H141a1.57,1.57,0,0,1-1.11-.46L126.63,87.32a1.57,1.57,0,0,1-.46-1.11V77a1.61,1.61,0,0,1,.46-1.11l12.84-12.84V59.13h-6.81a1.57,1.57,0,0,1-1.11-.46l-5.91-5.91a1.57,1.57,0,0,1-.46-1.11V44.28H121.6V57.22A1.57,1.57,0,0,1,120,58.79H84.53a1.53,1.53,0,0,1-1.11-.46l-4.15-4.15H36.73a1.57,1.57,0,0,1-1.11-.46l-2.95-2.95H14.25L3.14,61.88V79.45L14.77,91.07h7l8-8a1.53,1.53,0,0,1,1.11-.46H50.73a1.53,1.53,0,0,1,1.11.46l23.83,23.83a1.57,1.57,0,0,1,.46,1.11v26.6L99.52,158a1.61,1.61,0,0,1,.46,1.11v6.23l13.13,13.14H127a1.57,1.57,0,0,1,1.11.46L145,195.77a1.57,1.57,0,0,1,.46,1.11v20.31l13.29,13.3a1.54,1.54,0,0,1,.47,1.11v41.55a1.54,1.54,0,0,1-.47,1.11l-5.57,5.58v24.07Z"/><ellipse class="cls-5" cx="465.66" cy="66.7" rx="11.36" ry="4.47"/><path class="cls-6" d="M465.66,9.47h0a19.66,19.66,0,0,0-17,29.48l15.53,26.89a1.72,1.72,0,0,0,3,0L482.68,39A19.65,19.65,0,0,0,465.66,9.47Z"/><circle class="cls-7" cx="465.66" cy="29.15" r="12.28"/><ellipse class="cls-5" cx="310.68" cy="106.52" rx="11.36" ry="4.47"/><path class="cls-6" d="M310.68,49.29h0a19.65,19.65,0,0,0-17,29.48l15.53,26.89a1.72,1.72,0,0,0,3,0L327.7,78.77A19.65,19.65,0,0,0,310.68,49.29Z"/><circle class="cls-7" cx="310.68" cy="68.97" r="12.28" transform="translate(-0.01 137.92) rotate(-25.03)"/><ellipse class="cls-5" cx="318.92" cy="258.77" rx="7.01" ry="2.76"/><path class="cls-6" d="M318.92,223.44h0a12.13,12.13,0,0,0-10.5,18.2l9.58,16.6a1.06,1.06,0,0,0,1.84,0l9.59-16.6A12.13,12.13,0,0,0,318.92,223.44Z"/><circle class="cls-7" cx="318.92" cy="235.59" r="7.58"/><ellipse class="cls-5" cx="94.82" cy="142.61" rx="7.01" ry="2.76"/><path class="cls-6" d="M94.82,107.28h0a12.13,12.13,0,0,0-10.5,18.2l9.58,16.6a1.06,1.06,0,0,0,1.84,0l9.59-16.6A12.13,12.13,0,0,0,94.82,107.28Z"/><circle class="cls-7" cx="94.82" cy="119.43" r="7.58"/><ellipse class="cls-5" cx="440.62" cy="167.17" rx="7.01" ry="2.76"/><path class="cls-6" d="M440.62,131.84h0A12.13,12.13,0,0,0,430.11,150l9.59,16.6a1.06,1.06,0,0,0,1.84,0l9.58-16.6A12.13,12.13,0,0,0,440.62,131.84Z"/><circle class="cls-7" cx="440.62" cy="143.99" r="7.58"/><ellipse class="cls-5" cx="519.61" cy="268.15" rx="7.01" ry="2.76"/><path class="cls-6" d="M519.61,232.82h0a12.13,12.13,0,0,0-10.5,18.2l9.58,16.6a1.06,1.06,0,0,0,1.84,0l9.59-16.6A12.13,12.13,0,0,0,519.61,232.82Z"/><circle class="cls-7" cx="519.61" cy="244.97" r="7.58" transform="translate(-54.36 221.2) rotate(-22.87)"/><path d="M332,166.71a3.23,3.23,0,1,0,3.23,3.23A3.23,3.23,0,0,0,332,166.71Z"/><path d="M407.73,179a3.23,3.23,0,1,0,3.23,3.23A3.23,3.23,0,0,0,407.73,179Z"/><path d="M496.23,256.8a3.23,3.23,0,1,0,3.23,3.23A3.23,3.23,0,0,0,496.23,256.8Z"/><path d="M186.87,238.15a3.23,3.23,0,1,0,3.23,3.23A3.23,3.23,0,0,0,186.87,238.15Z"/><path d="M325.06,169l-.16,0q-1.36-.36-2.73-.69a.63.63,0,0,1-.46-.76.62.62,0,0,1,.76-.46c.92.22,1.84.45,2.75.69a.63.63,0,0,1,.45.77A.64.64,0,0,1,325.06,169Z"/><path d="M191.89,227.29a.58.58,0,0,1-.26-.06.63.63,0,0,1-.32-.83c.77-1.69,1.59-3.39,2.43-5a.62.62,0,0,1,.84-.27.64.64,0,0,1,.28.85c-.84,1.62-1.64,3.29-2.4,5A.63.63,0,0,1,191.89,227.29Zm5.07-9.88a.61.61,0,0,1-.32-.08.62.62,0,0,1-.22-.86c.93-1.61,1.92-3.21,2.93-4.75a.61.61,0,0,1,.86-.19.62.62,0,0,1,.19.87c-1,1.53-2,3.11-2.9,4.7A.62.62,0,0,1,197,217.41Zm6.07-9.29a.63.63,0,0,1-.37-.12.64.64,0,0,1-.14-.88c1.1-1.5,2.25-3,3.42-4.41a.63.63,0,0,1,.89-.09.62.62,0,0,1,.09.88c-1.16,1.42-2.3,2.88-3.38,4.36A.64.64,0,0,1,203,208.12Zm7-8.59a.61.61,0,0,1-.42-.16.63.63,0,0,1,0-.89c1.25-1.37,2.56-2.72,3.88-4a.63.63,0,0,1,.88.9c-1.3,1.28-2.59,2.62-3.83,4A.67.67,0,0,1,210.06,199.53Zm7.93-7.77a.62.62,0,0,1-.47-.21.63.63,0,0,1,0-.89c1.39-1.22,2.84-2.42,4.29-3.57a.63.63,0,1,1,.78,1c-1.44,1.13-2.86,2.32-4.24,3.52A.57.57,0,0,1,218,191.76Zm8.71-6.86a.6.6,0,0,1-.51-.27.63.63,0,0,1,.15-.87c1.51-1.07,3.08-2.11,4.65-3.1a.63.63,0,0,1,.67,1.07c-1.56,1-3.1,2-4.6,3.05A.6.6,0,0,1,226.7,184.9Zm9.4-5.9a.65.65,0,0,1-.55-.32.63.63,0,0,1,.24-.86c1.62-.9,3.28-1.77,5-2.59a.63.63,0,0,1,.84.29.62.62,0,0,1-.28.84c-1.65.81-3.3,1.67-4.89,2.56A.71.71,0,0,1,236.1,179Zm10-4.89a.63.63,0,0,1-.25-1.21c1.69-.73,3.44-1.42,5.18-2.07a.63.63,0,1,1,.44,1.17c-1.73.65-3.45,1.34-5.13,2.05A.53.53,0,0,1,246.07,174.11Zm10.41-3.87a.62.62,0,0,1-.6-.44.63.63,0,0,1,.41-.79c1.76-.56,3.57-1.08,5.36-1.55a.63.63,0,1,1,.32,1.21c-1.77.47-3.56,1-5.3,1.54Zm10.74-2.83a.63.63,0,0,1-.61-.5.62.62,0,0,1,.48-.75c1.82-.38,3.66-.73,5.49-1a.62.62,0,0,1,.72.51.63.63,0,0,1-.52.73c-1.8.29-3.63.64-5.43,1Zm49.68-.28h-.13c-1.8-.35-3.63-.67-5.44-1a.62.62,0,0,1-.53-.71.64.64,0,0,1,.72-.53c1.82.28,3.67.6,5.5,1a.61.61,0,0,1,.49.73A.63.63,0,0,1,316.9,167.13Zm-38.72-1.53a.63.63,0,0,1-.62-.56.63.63,0,0,1,.55-.69c1.83-.22,3.7-.4,5.56-.53a.62.62,0,0,1,.67.58.61.61,0,0,1-.58.67c-1.84.13-3.69.31-5.5.52Zm27.73-.13h-.06c-1.83-.2-3.68-.35-5.51-.47a.63.63,0,0,1-.59-.66.64.64,0,0,1,.67-.59c1.85.11,3.72.27,5.56.47a.63.63,0,0,1-.07,1.25Zm-16.64-.67a.63.63,0,0,1-.63-.61.62.62,0,0,1,.61-.64c1.87-.05,3.74-.06,5.59,0a.63.63,0,0,1,0,1.26c-1.84,0-3.68,0-5.54,0Z"/><path d="M188.71,235.08a.52.52,0,0,1-.21,0,.63.63,0,0,1-.38-.8c.33-.9.67-1.79,1-2.66a.63.63,0,1,1,1.17.46c-.34.86-.67,1.74-1,2.63A.63.63,0,0,1,188.71,235.08Z"/><path d="M269.17,122.2a.63.63,0,0,1-.47-.2c-.62-.69-1.27-1.37-1.93-2a.63.63,0,1,1,.9-.88c.66.67,1.32,1.36,2,2.06a.63.63,0,0,1,0,.89A.61.61,0,0,1,269.17,122.2Z"/><path d="M262.93,116.11a.59.59,0,0,1-.41-.16c-1.46-1.27-3-2.51-4.54-3.69a.63.63,0,0,1-.13-.88.63.63,0,0,1,.88-.12c1.59,1.19,3.14,2.45,4.62,3.75a.63.63,0,0,1-.42,1.1Zm-9.4-7.11a.64.64,0,0,1-.35-.1c-1.62-1.05-3.3-2.07-5-3a.62.62,0,0,1,.61-1.09c1.73,1,3.44,2,5.09,3.06a.63.63,0,0,1-.34,1.15Zm-10.3-5.73a.66.66,0,0,1-.27-.06c-1.74-.83-3.55-1.62-5.37-2.34a.63.63,0,0,1,.47-1.17c1.84.74,3.67,1.53,5.44,2.37a.63.63,0,0,1,.3.84A.64.64,0,0,1,243.23,103.27Zm-85.88-.36a.63.63,0,0,1-.25-1.2c1.81-.79,3.67-1.53,5.51-2.21a.63.63,0,0,1,.44,1.18c-1.83.67-3.66,1.41-5.45,2.18A.7.7,0,0,1,157.35,102.91Zm74.93-4a.63.63,0,0,1-.19,0c-1.85-.6-3.74-1.16-5.62-1.66a.62.62,0,0,1,.31-1.21c1.92.5,3.83,1.06,5.7,1.67a.63.63,0,0,1-.2,1.23Zm-63.87-.09a.63.63,0,0,1-.6-.44.64.64,0,0,1,.42-.79c1.88-.58,3.8-1.12,5.71-1.6a.63.63,0,0,1,.76.45.63.63,0,0,1-.45.77c-1.89.47-3.79,1-5.65,1.58A.63.63,0,0,1,168.41,98.82Zm11.44-2.88a.63.63,0,0,1-.62-.51.64.64,0,0,1,.5-.74c1.93-.37,3.9-.7,5.85-1a.62.62,0,0,1,.71.53.63.63,0,0,1-.54.71c-1.92.27-3.87.59-5.78,1Zm41,0h-.12c-1.91-.38-3.85-.71-5.78-1a.63.63,0,1,1,.17-1.24c2,.27,3.92.6,5.85,1a.63.63,0,0,1,.49.74A.62.62,0,0,1,220.88,95.92Zm-29.35-1.61a.64.64,0,0,1-.63-.58.62.62,0,0,1,.58-.67c2-.17,4-.28,5.92-.34a.62.62,0,0,1,.65.61.63.63,0,0,1-.61.65c-1.95,0-3.92.16-5.86.33Zm17.68,0h-.06c-1.93-.16-3.9-.26-5.85-.31a.63.63,0,0,1-.61-.65.61.61,0,0,1,.64-.61c2,.05,4,.16,5.93.32a.63.63,0,0,1,0,1.26Z"/><path d="M149.45,106.7a.63.63,0,0,1-.3-1.18c.84-.44,1.69-.88,2.53-1.3a.63.63,0,1,1,.56,1.13c-.83.41-1.67.84-2.5,1.28A.59.59,0,0,1,149.45,106.7Z"/><path d="M487.12,121.53a.62.62,0,0,1-.51-.26c-.56-.75-1.12-1.51-1.69-2.25a.63.63,0,0,1,.12-.88.62.62,0,0,1,.88.12c.58.75,1.14,1.51,1.7,2.27a.61.61,0,0,1-.13.87A.58.58,0,0,1,487.12,121.53Z"/><path d="M481.92,114.8a.64.64,0,0,1-.49-.23c-1.18-1.45-2.4-2.91-3.63-4.34a.61.61,0,0,1,.07-.88.62.62,0,0,1,.88.06c1.24,1.44,2.47,2.91,3.66,4.37a.63.63,0,0,1-.1.88A.57.57,0,0,1,481.92,114.8Zm-7.41-8.59A.64.64,0,0,1,474,106c-1.26-1.38-2.57-2.76-3.88-4.11a.63.63,0,0,1,.91-.88c1.31,1.36,2.62,2.75,3.9,4.15a.63.63,0,0,1-.46,1Zm-318.95-6a.62.62,0,0,1-.44-.18.63.63,0,0,1,0-.89c1.33-1.36,2.68-2.71,4-4a.63.63,0,0,1,.88.9c-1.33,1.3-2.68,2.65-4,4A.65.65,0,0,1,155.56,100.23Zm311.05-2.17a.62.62,0,0,1-.44-.18c-1.34-1.3-2.72-2.61-4.11-3.89a.62.62,0,0,1,0-.88.61.61,0,0,1,.88,0c1.4,1.28,2.79,2.6,4.14,3.91a.64.64,0,0,1,0,.89A.63.63,0,0,1,466.61,98.06ZM163.68,92.3a.63.63,0,0,1-.46-.2.62.62,0,0,1,0-.89c1.38-1.29,2.8-2.58,4.21-3.83a.62.62,0,0,1,.88.05.63.63,0,0,1-.05.89c-1.4,1.25-2.81,2.53-4.19,3.81A.63.63,0,0,1,163.68,92.3Zm294.58-1.93a.65.65,0,0,1-.41-.15c-1.42-1.24-2.87-2.47-4.31-3.67a.62.62,0,1,1,.8-1c1.45,1.2,2.91,2.44,4.33,3.68a.63.63,0,0,1,.07.89A.64.64,0,0,1,458.26,90.37Zm-286.1-5.61a.61.61,0,0,1-.48-.22.63.63,0,0,1,.07-.88c1.45-1.22,2.92-2.44,4.39-3.62a.63.63,0,1,1,.79,1c-1.46,1.18-2.93,2.39-4.36,3.6A.65.65,0,0,1,172.16,84.76Zm277.36-1.61a.6.6,0,0,1-.38-.13c-1.47-1.15-3-2.31-4.49-3.42a.63.63,0,1,1,.75-1c1.51,1.12,3,2.28,4.51,3.44a.63.63,0,0,1-.39,1.12ZM181,77.65a.63.63,0,0,1-.5-.24.62.62,0,0,1,.12-.88c1.51-1.15,3-2.3,4.57-3.4a.63.63,0,0,1,.73,1c-1.51,1.09-3,2.23-4.54,3.37A.6.6,0,0,1,181,77.65ZM440.43,76.4a.61.61,0,0,1-.36-.11c-1.54-1.08-3.1-2.15-4.66-3.19a.63.63,0,0,1-.17-.87.62.62,0,0,1,.87-.17c1.56,1,3.14,2.12,4.68,3.2a.63.63,0,0,1,.16.88A.65.65,0,0,1,440.43,76.4ZM190.19,71a.66.66,0,0,1-.52-.27.64.64,0,0,1,.17-.88c1.56-1.07,3.15-2.13,4.73-3.15a.63.63,0,1,1,.68,1c-1.57,1-3.15,2.08-4.7,3.14A.69.69,0,0,1,190.19,71ZM431,70.13a.61.61,0,0,1-.34-.1c-1.57-1-3.19-2-4.81-3a.63.63,0,0,1-.22-.86.62.62,0,0,1,.86-.22c1.63,1,3.26,2,4.84,3a.61.61,0,0,1,.2.86A.63.63,0,0,1,431,70.13Zm-231.29-5.3a.63.63,0,0,1-.54-.3.62.62,0,0,1,.21-.86c1.61-1,3.26-2,4.89-2.9a.62.62,0,0,1,.86.23.64.64,0,0,1-.23.86c-1.63.93-3.27,1.9-4.87,2.88A.62.62,0,0,1,199.72,64.83Zm221.56-.5a.71.71,0,0,1-.31-.08c-1.62-.92-3.29-1.83-5-2.72a.63.63,0,0,1-.26-.85.64.64,0,0,1,.85-.26c1.67.89,3.35,1.81,5,2.73a.63.63,0,0,1,.24.86A.65.65,0,0,1,421.28,64.33ZM209.55,59.18a.63.63,0,0,1-.3-1.18c1.66-.9,3.36-1.78,5.05-2.64a.63.63,0,0,1,.56,1.13c-1.67.84-3.36,1.72-5,2.61A.64.64,0,0,1,209.55,59.18ZM411.28,59a.58.58,0,0,1-.28-.07c-1.67-.83-3.38-1.67-5.08-2.47a.63.63,0,0,1,.53-1.14c1.72.81,3.44,1.65,5.11,2.49a.62.62,0,0,1,.28.84A.63.63,0,0,1,411.28,59ZM401,54.18a.74.74,0,0,1-.25,0c-1.72-.76-3.47-1.51-5.2-2.23a.63.63,0,0,1,.48-1.16c1.74.72,3.5,1.47,5.23,2.24a.63.63,0,0,1,.32.82A.64.64,0,0,1,401,54.18Zm-181.35-.11a.64.64,0,0,1-.57-.37.62.62,0,0,1,.3-.83c1.72-.81,3.46-1.6,5.18-2.36a.64.64,0,0,1,.83.33.63.63,0,0,1-.32.83c-1.71.75-3.45,1.53-5.15,2.34A.66.66,0,0,1,219.68,54.07Zm170.88-4.22a.57.57,0,0,1-.22,0c-1.76-.68-3.54-1.34-5.3-2a.63.63,0,0,1,.42-1.18c1.77.63,3.56,1.29,5.33,2a.63.63,0,0,1,.36.81A.64.64,0,0,1,390.56,49.85Zm-160.49-.34a.62.62,0,0,1-.58-.39.63.63,0,0,1,.35-.82c1.75-.71,3.53-1.4,5.3-2.06a.63.63,0,0,1,.81.37.62.62,0,0,1-.37.8c-1.75.66-3.53,1.35-5.27,2.06A.67.67,0,0,1,230.07,49.51ZM379.89,46a.63.63,0,0,1-.19,0c-1.78-.59-3.6-1.17-5.39-1.72a.63.63,0,0,1-.42-.78.63.63,0,0,1,.79-.42c1.8.55,3.62,1.13,5.41,1.72a.63.63,0,0,1-.2,1.23ZM240.7,45.54a.62.62,0,0,1-.59-.42.63.63,0,0,1,.39-.8c1.79-.61,3.61-1.21,5.41-1.77a.63.63,0,1,1,.37,1.2c-1.79.56-3.6,1.15-5.37,1.76A.76.76,0,0,1,240.7,45.54Zm128.35-2.81-.17,0c-1.8-.5-3.64-1-5.46-1.45a.62.62,0,1,1,.31-1.21c1.83.46,3.68,1,5.49,1.45a.63.63,0,0,1-.17,1.24Zm-117.53-.56a.63.63,0,0,1-.6-.46.63.63,0,0,1,.43-.78c1.81-.51,3.65-1,5.49-1.46a.62.62,0,0,1,.76.45.63.63,0,0,1-.45.77c-1.83.46-3.66,1-5.46,1.45A.47.47,0,0,1,251.52,42.17ZM358.06,40h-.14c-1.82-.41-3.68-.81-5.53-1.18a.63.63,0,0,1-.49-.74.63.63,0,0,1,.74-.49c1.85.37,3.72.77,5.56,1.18a.63.63,0,0,1,.47.76A.61.61,0,0,1,358.06,40ZM262.5,39.4a.62.62,0,0,1-.61-.5.63.63,0,0,1,.48-.75c1.83-.41,3.7-.8,5.56-1.16a.63.63,0,0,1,.24,1.24c-1.84.35-3.7.74-5.53,1.15ZM347,37.73h-.11c-1.85-.33-3.73-.63-5.58-.91a.63.63,0,1,1,.19-1.24c1.86.28,3.75.58,5.61.91a.63.63,0,0,1,.51.73A.64.64,0,0,1,347,37.73Zm-73.33-.5a.63.63,0,0,1-.1-1.25c1.86-.31,3.75-.6,5.61-.86a.63.63,0,0,1,.18,1.25c-1.86.26-3.74.54-5.59.85Zm62.12-1.18h-.08c-1.86-.24-3.75-.45-5.62-.63a.63.63,0,0,1,.13-1.25c1.87.19,3.77.4,5.65.63a.63.63,0,0,1-.08,1.25Zm-50.9-.38a.63.63,0,0,1-.62-.56.63.63,0,0,1,.55-.69c1.88-.21,3.78-.4,5.66-.56a.64.64,0,0,1,.68.58.63.63,0,0,1-.57.68c-1.87.15-3.76.34-5.63.55Zm39.62-.73h0c-1.87-.14-3.77-.25-5.63-.34a.62.62,0,0,1-.6-.65.63.63,0,0,1,.65-.6c1.88.09,3.79.2,5.68.34a.63.63,0,0,1-.05,1.25Zm-28.32-.22a.63.63,0,0,1,0-1.26c1.89-.11,3.8-.19,5.68-.25a.62.62,0,0,1,.65.61.63.63,0,0,1-.61.65c-1.87.05-3.77.14-5.65.25Zm17-.31h0c-1.53,0-3.07,0-4.6,0h-1.06a.63.63,0,1,1,0-1.25h1.07c1.54,0,3.09,0,4.62,0a.64.64,0,0,1,.62.64A.63.63,0,0,1,313.14,34.41Z"/><path d="M149.45,106.7a.66.66,0,0,1-.43-.16.64.64,0,0,1,0-.89l1.92-2.08a.62.62,0,0,1,.89,0,.61.61,0,0,1,0,.88l-1.91,2.08A.59.59,0,0,1,149.45,106.7Z"/><path d="M490.35,260.66h0c-1,0-1.9-.07-2.85-.13a.63.63,0,1,1,.07-1.25c.94.05,1.87.09,2.81.12a.64.64,0,0,1,.61.65A.63.63,0,0,1,490.35,260.66Z"/><path d="M482.08,260.09H482c-1.82-.2-3.65-.44-5.44-.73a.63.63,0,0,1,.2-1.24c1.77.28,3.58.52,5.37.72a.63.63,0,0,1-.06,1.25Zm-10.78-1.73-.13,0c-1.79-.39-3.59-.83-5.33-1.31a.63.63,0,0,1,.33-1.21c1.72.48,3.5.91,5.27,1.3a.62.62,0,0,1,.48.74A.64.64,0,0,1,471.3,258.36Zm-10.51-2.91a.65.65,0,0,1-.2,0c-1.74-.59-3.47-1.24-5.15-1.93a.62.62,0,0,1-.34-.82.63.63,0,0,1,.82-.34c1.65.68,3.36,1.32,5.07,1.9a.63.63,0,0,1-.2,1.23Zm-10.1-4.15a.66.66,0,0,1-.27-.06c-1.65-.8-3.29-1.66-4.86-2.56a.63.63,0,1,1,.62-1.09c1.55.88,3.16,1.73,4.79,2.52a.63.63,0,0,1-.28,1.19Zm-9.48-5.39a.6.6,0,0,1-.34-.11c-1.54-1-3-2.08-4.48-3.19a.62.62,0,0,1-.12-.88.63.63,0,0,1,.88-.11c1.42,1.08,2.9,2.14,4.41,3.13a.64.64,0,0,1,.18.88A.63.63,0,0,1,441.21,245.91Zm-8.66-6.63a.64.64,0,0,1-.41-.16c-1.38-1.22-2.72-2.49-4-3.79a.64.64,0,0,1,0-.89.63.63,0,0,1,.89,0c1.26,1.28,2.58,2.53,3.93,3.73a.63.63,0,0,1-.42,1.1Zm-7.63-7.8a.62.62,0,0,1-.48-.23c-1.18-1.4-2.32-2.85-3.39-4.33a.63.63,0,0,1,.14-.88.64.64,0,0,1,.88.14c1.05,1.45,2.17,2.89,3.33,4.26a.64.64,0,0,1-.07.89A.65.65,0,0,1,424.92,231.48Zm-6.39-8.84a.61.61,0,0,1-.54-.3c-1-1.55-1.87-3.16-2.71-4.79a.62.62,0,0,1,.27-.84.63.63,0,0,1,.85.27c.82,1.59,1.72,3.18,2.66,4.7a.63.63,0,0,1-.21.87A.62.62,0,0,1,418.53,222.64Zm-5-9.68a.65.65,0,0,1-.58-.39c-.71-1.67-1.37-3.4-2-5.14a.63.63,0,0,1,1.19-.4c.58,1.71,1.23,3.41,1.93,5.05a.63.63,0,0,1-.33.83A.74.74,0,0,1,413.52,213ZM410,202.63a.61.61,0,0,1-.6-.47c-.46-1.76-.87-3.56-1.2-5.37a.62.62,0,1,1,1.23-.22c.33,1.77.73,3.54,1.18,5.28a.62.62,0,0,1-.45.76A.41.41,0,0,1,410,202.63Z"/><path d="M408,191.87a.61.61,0,0,1-.62-.55c-.11-.93-.2-1.88-.28-2.84a.63.63,0,1,1,1.25-.1c.08.94.17,1.88.27,2.79a.62.62,0,0,1-.55.7Z"/><path d="M490.19,123.26a3.23,3.23,0,1,0,3.23,3.23A3.23,3.23,0,0,0,490.19,123.26Z"/><path d="M145.59,106.64a3.23,3.23,0,1,0,3.23,3.23A3.23,3.23,0,0,0,145.59,106.64Z"/></g></g></g></svg>