<svg xmlns="http://www.w3.org/2000/svg" viewBox="0 0 234 154"><defs><style>.cls-1{fill:none;}.cls-2{fill:#222;}</style></defs><title>icon-recharge</title><g id="Layer_2" data-name="Layer 2"><g id="Layer_1-2" data-name="Layer 1"><rect class="cls-1" y="1.5" width="234" height="151"/><path class="cls-2" d="M131.61,27.84a5.66,5.66,0,0,0-4.11-1.62c-6.76,0-13.7,0-20.61,0a5.38,5.38,0,0,0-5.62,5.45c0,.5,0,1,0,1.48H93.45c-3.92,0-6.09,2.17-6.09,6.08q0,41.1,0,82.19c0,4.31,2,6.33,6.31,6.33h47.06c4.33,0,6.35-2,6.35-6.28v-60q0-10.59,0-21.18c0-2.05-.17-4.13-1.57-5.54s-3.43-1.59-5.43-1.59h-6.83c0-.26,0-.51,0-.76A6.18,6.18,0,0,0,131.61,27.84Zm-19.34,9.41h9.89c0,.22,0,.44,0,.66,0,4,2.16,6.17,6.15,6.19H136v72.63H98.38V44.09h6.69C110.42,44.09,112.2,42.42,112.27,37.25Z"/><path class="cls-2" d="M196.86,27.27a5.45,5.45,0,0,0-7.08,3.15c-.4.93-.75,1.87-1.1,2.78-.15.41-.31.82-.47,1.23l-3,7.58a71.88,71.88,0,0,0-12.15-17.19C154.66,5.66,132.41-2.47,107,.65,86.88,3.11,69.86,12.76,56.4,29.33A73.47,73.47,0,0,0,43,54.84a6.28,6.28,0,0,0,.44,5,5.15,5.15,0,0,0,3.41,2.41c3.08.66,5.62-1,6.66-4.32,9.93-32,39.8-51,72.6-46.3,22.4,3.23,39.06,15.21,49.57,35.62l-11.91-4.61a7,7,0,0,0-5.4-.16,5.08,5.08,0,0,0-2.68,3c-.9,2.45-.31,5.67,4,7.37L164,54.54,183.07,62a6.57,6.57,0,0,0,2.39.48A5.2,5.2,0,0,0,187.6,62a5.85,5.85,0,0,0,3-3.4q2.54-6.61,5.1-13.23c.46-1.19.92-2.38,1.39-3.57,1-2.42,1.92-4.92,2.84-7.4A5.45,5.45,0,0,0,196.86,27.27Z"/><path class="cls-2" d="M187.5,91.79a5.48,5.48,0,0,0-6.77,3.45,10,10,0,0,0-.3,1c0,.13-.07.26-.11.39a65.55,65.55,0,0,1-71.44,45.94c-21.28-2.85-37.69-13.73-48.75-32.36-.65-1.11-1.26-2.28-1.87-3.5l2.64,1,9.78,3.79c3.34,1.29,6.4.1,7.6-3s-.29-6-3.68-7.28L50.92,92a5.75,5.75,0,0,0-4.55,0,6,6,0,0,0-3,3.38c-.32.8-.62,1.6-.92,2.4l-.78,2-2.51,6.49q-2.54,6.48-5,13a5.91,5.91,0,0,0,.72,5.85,5.38,5.38,0,0,0,5,1.92,5.49,5.49,0,0,0,4.49-3.81c1.39-3.62,2.8-7.23,4.25-10.94l.12-.29c13.51,26,39.85,42,68.23,42a75.4,75.4,0,0,0,10-.67c24.48-3.25,43.66-16.05,57-38a68,68,0,0,0,7.21-16.78A5.47,5.47,0,0,0,187.5,91.79Z"/><path class="cls-2" d="M102.15,66.65c.07,3.12,2.51,5.33,5.94,5.38,1.19,0,2.39,0,3.66,0,0,1.2,0,2.33,0,3.47.07,3.48,2.26,5.84,5.46,5.86h0c3.22,0,5.48-2.46,5.51-6,0-1.09,0-2.19,0-3.32,1.35,0,2.63,0,3.93,0A5.87,5.87,0,0,0,131.16,70a5.42,5.42,0,0,0,1.11-4.43c-.47-2.69-2.74-4.46-5.77-4.51-1.24,0-2.47,0-3.73,0,0-1.3,0-2.51,0-3.71a5.44,5.44,0,0,0-4.83-5.57A5.38,5.38,0,0,0,113.71,53a5.92,5.92,0,0,0-1.95,4.42c0,1.2,0,2.4,0,3.62h-3.65a6.28,6.28,0,0,0-4.48,1.79A5.31,5.31,0,0,0,102.15,66.65Z"/><path class="cls-2" d="M126.47,95.84q-9.23,0-18.44,0c-3.47,0-5.88,2.26-5.88,5.46s2.48,5.44,5.88,5.46h12c2.16,0,4.32,0,6.48,0,3.45,0,5.85-2.27,5.85-5.47S130,95.86,126.47,95.84Z"/></g></g></svg>