<svg xmlns="http://www.w3.org/2000/svg" viewBox="0 0 100.02 100"><defs><style>.cls-1{fill:#dfdfe1;}</style></defs><title>icon-communication-light</title><g id="Layer_2" data-name="Layer 2"><g id="Layer_1-2" data-name="Layer 1"><path class="cls-1" d="M65.05,100q-12.86,0-25.71,0c-2.06,0-3.39-1-3.42-2.79a4.79,4.79,0,0,1,1-2.74c1.76-2.37,3.7-4.6,5.48-7a3.8,3.8,0,0,0,.79-2.09c0-9,0-18.07.06-27.1,0-1.28-.49-1.52-1.63-1.51-10.46,0-20.92,0-31.38,0A10,10,0,0,1,0,46.61C.07,34.45,0,22.28,0,10.12,0,4.17,4.16,0,10.09,0Q35,0,60,0c2.53,0,4.06,1.42,3.68,3.51a6,6,0,0,1-1.15,2.31C61,7.91,59.43,10,57.8,12a4.43,4.43,0,0,0-1,3c0,8.76,0,17.51,0,26.27,0,1.91,0,1.92,1.86,1.92,10.37,0,20.74,0,31.11,0A10,10,0,0,1,100,53.34c-.07,12.17-.09,24.33,0,36.5A10,10,0,0,1,89.79,100c-8.24-.13-16.49,0-24.74,0Zm-21.9-5.14c.92,0,1.37.08,1.82.08H89.63c3.45,0,5.28-1.84,5.29-5.29V53.52c0-3.3-1.91-5.26-5.23-5.26q-18.24,0-36.5,0a4.74,4.74,0,0,0-4.89,4.9c0,11,0,22,0,33a5.48,5.48,0,0,1-1.38,3.89C45.71,91.52,44.59,93,43.15,94.82ZM56.28,5.53,56,5.14c-.49,0-1-.07-1.46-.07H10.35C7,5.07,5.09,6.94,5.09,10.26q0,18.1,0,36.21c0,3.3,1.93,5.24,5.25,5.24,10.51,0,21,0,31.51,0,1,0,1.48-.24,1.76-1.27a9.33,9.33,0,0,1,6.88-6.88A1.44,1.44,0,0,0,51.76,42c0-9.67-.07-19.35,0-29a5.12,5.12,0,0,1,.9-2.62C53.75,8.66,55.05,7.12,56.28,5.53Z"/><path class="cls-1" d="M71.46,76.13c-3.61,0-3.61,0-5,3.31-.56,1.32-1.08,2.65-1.69,3.93a2.55,2.55,0,0,1-3.42,1.46,2.58,2.58,0,0,1-1.27-3.48q4.53-10.81,9.12-21.61a2.45,2.45,0,0,1,2.35-1.62A2.5,2.5,0,0,1,74,59.77c3,7.16,6.06,14.31,9.06,21.48a2.57,2.57,0,1,1-4.73,2c-.85-1.94-1.69-3.88-2.46-5.85-.35-.88-.81-1.35-1.83-1.24A25.43,25.43,0,0,1,71.46,76.13Zm-1.24-5.46h2.84l-1.28-2.85h-.37Z"/><path class="cls-1" d="M25.79,20.79c0-1.38,0-2.56,0-3.75,0-1.81,1-2.91,2.62-2.9s2.4,1,2.49,2.84c.06,1.22-.25,2.92.42,3.53s2.35.25,3.58.28,2.58,0,3.87,0c1.79.08,2.82,1,2.85,2.54A2.48,2.48,0,0,1,38.93,26c-1.24,0-1.59.48-1.85,1.62a18.88,18.88,0,0,1-3.53,7.56c-.2.25-.33.54-.71,1.15,1.66.37,3.14.73,4.63,1,.86.15,1.74.14,2.61.24,1.66.19,2.45,1.06,2.4,2.59a2.45,2.45,0,0,1-2.6,2.47A22.2,22.2,0,0,1,30,40.53a3.21,3.21,0,0,0-3.2,0,22.4,22.4,0,0,1-9.47,2.13,2.76,2.76,0,0,1-3.14-2.43c-.1-1.38,1-2.41,2.74-2.67,2-.29,4-.62,6-1a3.76,3.76,0,0,0,.91-.49,23.69,23.69,0,0,1-2-3c-.83-1.83-1.52-3.74-2.17-5.64-.29-.85-.51-1.36-1.62-1.39-2.49-.06-3.86-2.31-2.44-4a4.25,4.25,0,0,1,2.74-1.2C20.73,20.68,23.13,20.79,25.79,20.79Zm-1.15,5.37A12.21,12.21,0,0,0,28,32.81a.85.85,0,0,0,.82,0,11.75,11.75,0,0,0,3.36-6.67Z"/></g></g></svg>