<svg xmlns="http://www.w3.org/2000/svg" viewBox="0 0 234 151"><defs><style>.cls-1{fill:none;}.cls-2{fill:#222;}</style></defs><title>icon-4k</title><g id="Layer_2" data-name="Layer 2"><g id="Layer_1-2" data-name="Layer 1"><rect class="cls-1" width="234" height="151"/><path class="cls-2" d="M117,.5H204.5c5.23,0,6.75,1.53,6.75,6.79q0,53.82,0,107.64c0,4.63-1.71,6.32-6.44,6.32H126.08c-3.61,0-5.29,2.42-3.75,5.67.3.65,1.51,1.07,2.37,1.25,10.7,2.21,21.41,4.36,32.11,6.52,9,1.82,18,3.61,26.93,5.47,3.93.81,5.95,3.56,5,6.65-.79,2.71-3,4.14-6.22,3.55-7.71-1.41-15.39-3-23.08-4.56-13.46-2.72-26.88-5.69-40.41-8.06-3.37-.59-7.11.48-10.6,1.17-18.57,3.71-37.12,7.55-55.68,11.29a11.34,11.34,0,0,1-3.94.09,4.79,4.79,0,0,1-3.79-4.79c.09-2.55,1.34-4.43,3.91-5,5.84-1.29,11.71-2.48,17.58-3.67q21.38-4.34,42.74-8.63c2.59-.52,2.91-1.38,2.56-5.22-.21-2.34-1.92-1.7-3.16-1.7-26.33,0-52.67,0-79-.07-1.62,0-3.61-.1-4.73-1a6.49,6.49,0,0,1-2.13-4.48Q22.66,60.85,22.76,6c0-3.7,2.08-5.46,6.23-5.46ZM33.23,11v99.69H200.78V11Z"/><path class="cls-2" d="M130.74,66c-.74,2.24-1.89,4.45-2.11,6.74-.35,3.77-.07,7.59-.11,11.39,0,2.91-1.48,4.59-3.91,4.66s-4.23-1.69-4.24-4.66q-.06-23.72,0-47.43c0-2.91,1.76-4.85,4.16-4.85s4,1.9,4,4.91a133.29,133.29,0,0,0,.6,14.8c.47-.74,1-1.45,1.38-2.22,2.61-5,5.12-10.06,7.8-15,1.66-3.07,5.41-3.43,6.72-.59a6.44,6.44,0,0,1-.2,4.7c-2.09,4.67-4.38,9.26-6.88,13.71a6.31,6.31,0,0,0-.19,6.17c3.27,7.7,6.39,15.47,9.49,23.25a7.7,7.7,0,0,1,.69,3.79,4,4,0,0,1-3.83,3.44c-2.36.2-3.85-1-4.67-3.13-2.17-5.49-4.29-11-6.45-16.5-.41-1-.9-2-1.35-3Z"/><path class="cls-2" d="M106.92,77c0,2.48,0,4.94,0,7.4-.09,3-1.57,4.51-4.08,4.46S99.05,87.24,99,84.42c-.07-2.53,0-5.07,0-7.85-3.74,0-7,0-10.26,0-4.16,0-5.21-.87-5-4.88a24.15,24.15,0,0,1,1.52-7.39c3.63-9.09,7.5-18.08,11.29-27.1.31-.74.61-1.47,1-2.18,1.22-2.38,3.45-3.65,5.56-3a4.8,4.8,0,0,1,3.84,5c0,9.28,0,18.56,0,27.84,0,2,0,3.46,2.75,3.78,1.08.12,2.67,2.11,2.72,3.3s-1.21,2.87-2.23,4C109.61,76.57,108.36,76.55,106.92,77Zm-8.07-26L98,50.77c-2.26,5.69-4.52,11.38-7,17.55,2.54,0,4.38.1,6.2-.07.56,0,1.5-.86,1.51-1.33C98.89,61.59,98.85,56.26,98.85,50.93Z"/></g></g></svg>