<svg xmlns="http://www.w3.org/2000/svg" viewBox="0 0 38.62 38.39"><defs><style>.cls-1{fill:#222;}</style></defs><title>icon-cpu</title><g id="Layer_2" data-name="Layer 2"><g id="Layer_1-2" data-name="Layer 1"><path class="cls-1" d="M37.08,14.21l1.43.29v1.39l-1.46.28v2l1.48.34v1.3l-1.45.35v2l1.43.35.06,1.31-1.52.37v2l1.47.25v1.4l-1.44.29v2l1.43.33.07,1.31-1.52.38c0,.41-.08.84-.09,1.27,0,3.69.43,3.26-3.25,3.29-.44,0-.87,0-1.36.07l-.28,1.44-1.44.08-.21-1.47H28.38L28,38.3l-1.35.09-.28-1.52H24.34L24,38.32H22.66l-.35-1.48h-2L20,38.3l-1.31.08-.32-1.51H16.27l-.35,1.45H14.59l-.35-1.47h-2l-.34,1.45-1.31.09-.41-1.52a8.84,8.84,0,0,0-1.27-.08,2.51,2.51,0,0,1-2.19-.91c-1-1.09-2.07-2.15-3.17-3.15-1.31-1.19-2.49-2.39-1.88-4.45l-1.61-.4L0,26.54l1.53-.28v-2L.07,23.88V22.55l1.49-.35V20.25L.09,19.86,0,18.55l1.52-.32v-2L.07,15.85V14.52l1.48-.34v-2L.09,11.88,0,10.57l1.53-.4v-2L.07,7.89V6.51l1.55-.32c0-1,0-2,0-3,0-1.46.13-1.55,1.64-1.58.94,0,1.88,0,2.91,0L6.54.1,7.89,0,8.2,1.53h2l.3-1.45H12l.26,1.47h2L14.6.11,15.92,0l.32,1.52h2L18.64.08H20l.34,1.46h2.05L22.61.11,23.94,0l.41,1.52h2L26.67.09H28l.33,1.46h2L30.63.12h1.45l.25,1.31a1.28,1.28,0,0,0,.45.16c1,0,2,0,3,0,.83,0,1.21.37,1.2,1.2C37,3.91,37,5,37,6.19l1.55.31V7.92l-1.46.21V10.2l1.43.29.14,1.32-1.54.37ZM35.23,3.41H3.43A3.57,3.57,0,0,0,3.31,4c0,8.37,0,16.74,0,25.11a2.82,2.82,0,0,0,.76,1.7C5.12,32,6.31,33,7.34,34.12a3,3,0,0,0,2.48,1c8,0,15.94,0,23.92,0,.47,0,.95-.07,1.49-.11Z"/><path class="cls-1" d="M19.46,9.59H27.1c1.76,0,1.84.1,1.85,1.9,0,.5,0,1,0,1.49a1.83,1.83,0,0,0,.68,1.75,2.64,2.64,0,0,1,1,2.49q-.09,2,0,4a2.61,2.61,0,0,1-1,2.49c-.83.59-.67,1.44-.67,2.25,0,3.06.21,2.9-2.85,2.89H11.65c-2,0-2,0-2-2.07,0-.44,0-.88,0-1.32A1.85,1.85,0,0,0,9,23.67a2.67,2.67,0,0,1-1-2.49q.09-2,0-4a2.64,2.64,0,0,1,1-2.49c.83-.59.67-1.43.67-2.25,0-3.06-.21-2.9,2.85-2.89Zm7.82,17.47a21.73,21.73,0,0,1,0-2.44,2.34,2.34,0,0,1,.57-1.46,3.14,3.14,0,0,0,1.05-2.94c-.05-1,0-2,0-3a2,2,0,0,0-.45-1.32,3.37,3.37,0,0,1-1.17-3.24,9.93,9.93,0,0,0-.07-1.31H11.31a21.06,21.06,0,0,1,0,2.4,2.37,2.37,0,0,1-.57,1.46,3.14,3.14,0,0,0-1.05,2.94c0,1,0,2,0,3a2,2,0,0,0,.45,1.32,3.4,3.4,0,0,1,1.17,3.25,10.66,10.66,0,0,0,.07,1.34Z"/><path class="cls-1" d="M19.29,24.83c-1.38,0-2.76,0-4.14,0s-1.49-.24-1.51-1.42q0-4.2,0-8.4c0-1.18.27-1.41,1.51-1.42,2.77,0,5.53,0,8.29,0,1.28,0,1.5.25,1.51,1.59q0,4,0,8.07c0,1.38-.23,1.57-1.68,1.59S20.62,24.83,19.29,24.83Zm3.85-1.72V15.35H15.45v7.76Z"/></g></g></svg>