<svg xmlns="http://www.w3.org/2000/svg" viewBox="0 0 234 151.47"><defs><style>.cls-1{fill:#222;}.cls-2{fill:none;}</style></defs><title>icon-bluetooth</title><g id="Layer_2" data-name="Layer 2"><g id="Layer_1-2" data-name="Layer 1"><path class="cls-1" d="M125.65,76.48c.61.64,1.12,1.21,1.66,1.75q13.41,13.39,26.8,26.8c3.82,3.82,3.67,7.91-.43,11.32q-19.69,16.44-39.4,32.86c-2.43,2-5,3-8,1.59s-4-4.07-4-7.34c.06-13.63,0-27.26,0-40.89v-2.4L87.15,115.38c-3.46-3.48-6.59-6.64-10-10.09,1.72-1.61,3.67-3.36,5.52-5.2,6-6,12-12.06,18.1-18a5.8,5.8,0,0,0,1.61-3.89c.53-4.11-1-7-4-9.77-7.24-6.79-14.12-14-21-20.79l9.4-9.41L101.58,53l.71-.31V50.56c0-13.76,0-27.53,0-41.3,0-3.21,1-5.73,4-7.13s5.63-.43,8,1.58Q133.76,20,153.21,36.19c4.68,3.9,4.88,7.74.59,12q-13.26,13.25-26.5,26.5C126.76,75.27,126.25,75.84,125.65,76.48Zm13.86-33.95L116,23V66ZM116,130l23.36-19.47L116,87.18Z"/><rect class="cls-2" width="234" height="151"/></g></g></svg>