<svg xmlns="http://www.w3.org/2000/svg" viewBox="0 0 234 151"><defs><style>.cls-1{fill:none;}</style></defs><title>icon-hdd</title><g id="Layer_2" data-name="Layer 2"><g id="Layer_1-2" data-name="Layer 1"><rect class="cls-1" width="234" height="151"/><path d="M59.85,75.32q0-30,0-59.93C59.85,6.69,66.05.5,74.7.5h84.37c9,0,15.08,6.1,15.08,15.15q0,59.52-.05,119a19.31,19.31,0,0,1-1.44,7.62c-2.41,5.35-6.9,8.14-12.77,8.15q-42.94.11-85.88,0c-8.07,0-14.15-6.45-14.16-14.89q0-27.29,0-54.57ZM167,75.66c0-20,0-40.07-.06-60.11a10.37,10.37,0,0,0-1.4-5c-1.39-2.35-3.86-3-6.52-3q-23.53,0-47,0-18.58,0-37.17,0c-3.66,0-6.37,1.68-7.35,4.7A13,13,0,0,0,67,16.22q0,59.61,0,119.22c0,5.09,2.88,8,8,8H159c5.13,0,8-2.85,8-8Q167,105.55,167,75.66Z"/><path d="M91.05,110.82c-3-2.88-6.19-5.43-8.84-8.4a46.34,46.34,0,1,1,77.94-47.56c10.91,27.21-6.52,58.14-35.47,62.75a72.47,72.47,0,0,1-11.33.48c-1.18,0-1.39.52-1.65,1.35q-2.55,8.4-5.12,16.78c-.9,2.91-1.8,3.56-4.82,3.55H85.52c-2.86,0-4.2-1.32-4.22-4.19,0-4.35-.12-8.71.06-13.05a6,6,0,0,1,1.5-3.52C85.54,116.11,88.43,113.41,91.05,110.82Zm23.16.15c13.59,1.68,33.37-6.27,40.17-26.36,6.87-20.31-3.16-41.5-23.13-49.43-18.76-7.46-41,1.57-49.57,19.85-9.27,19.86-.33,41.34,15,50.24l6.56-6.59q5.61-5.62,11.25-11.23a3.44,3.44,0,0,1,4.55-.63,3.52,3.52,0,0,1,1.4,4.25c-.09.33-.19.64-.29,1C118.19,98.3,116.22,104.56,114.21,111Zm-4.94-8.14a3.94,3.94,0,0,0-.64.32q-9.81,9.8-19.62,19.62a1.77,1.77,0,0,0-.55,1c0,2.93,0,5.86,0,9,3.51,0,6.78-.05,10.06,0a1.79,1.79,0,0,0,2.09-1.54c1.87-6.29,3.82-12.56,5.74-18.83Z"/><path d="M74.09,18.27a3.5,3.5,0,0,1-3.5-3.51,3.55,3.55,0,1,1,7.09.1A3.49,3.49,0,0,1,74.09,18.27Z"/><path d="M159.82,18.27a3.51,3.51,0,0,1-3.5-3.51,3.55,3.55,0,1,1,7.09.1A3.51,3.51,0,0,1,159.82,18.27Z"/><path d="M74.09,132.72a3.51,3.51,0,0,1,3.59,3.41,3.55,3.55,0,1,1-3.59-3.41Z"/><path d="M163.41,136.16a3.55,3.55,0,1,1-7.09,0,3.55,3.55,0,0,1,7.09,0Z"/><path d="M117,82.57A10.62,10.62,0,0,1,106.31,72a10.69,10.69,0,1,1,21.38.11A10.64,10.64,0,0,1,117,82.57Zm0-14.21a3.62,3.62,0,0,0-3.54,3.69,3.62,3.62,0,0,0,7.24-.16A3.63,3.63,0,0,0,116.92,68.36Z"/></g></g></svg>