<svg xmlns="http://www.w3.org/2000/svg" viewBox="0 0 234 152.5"><defs><style>.cls-1{fill:#222;}.cls-2{fill:none;}</style></defs><title>icon-case</title><g id="Layer_2" data-name="Layer 2"><g id="Layer_1-2" data-name="Layer 1"><path class="cls-1" d="M114.14,98.7h-8.53c-1.18,0-1.47-.46-1-1.52Q110,85.82,115.38,74.47a1.42,1.42,0,0,1,1.47-.94c3.7,0,7.4,0,11.1,0a1.79,1.79,0,0,1,.8.16c.5.27.56.64.27,1.15q-4.19,7.13-8.36,14.27c0,.08-.09.17-.18.34h8.46a2.18,2.18,0,0,1,.63.09.9.9,0,0,1,.43,1.52q-5.72,7.5-11.41,15l-8.8,11.58a3.21,3.21,0,0,1-.34.41.87.87,0,0,1-1.07.24.92.92,0,0,1-.48-1.24l4.32-12.67L114,99.16C114.05,99,114.09,98.89,114.14,98.7Z"/><path class="cls-1" d="M169.59,9.24a33.53,33.53,0,0,0-14.06-8.06c-3.5-1-7.06-.7-10.67-.7H85.19C70.93.48,58.81,11,54.68,24.23A33.62,33.62,0,0,0,53.2,34c-.12,30.44-.13,58,0,84.27,0,13.49,5.92,23.65,17.44,30.21,3.49,2,8.16,3.92,12.19,4,1.48,0,3,0,4.44,0h61.58c15.49,0,28.1-12.51,31.3-27a41,41,0,0,0,.73-8.49q0-20,0-39.93,0-20.15,0-40.3A38,38,0,0,0,169.59,9.24ZM87.31,145C72.22,145,61.15,134.2,61,119.35c-.16-15.44-.14-31.15-.12-46.34q0-13.64,0-27.26a3.47,3.47,0,0,1,.63-2.49,3.18,3.18,0,0,1,2.22-.58H64c6.79.17,13.48.11,19.69,0,1.94,0,2.85.46,3.68,2a10.19,10.19,0,0,0,9.35,5.5c12.47,0,25.65.05,40.3,0,4,0,7.22-1.86,9.92-5.67a4.8,4.8,0,0,1,3.17-1.69c3.52-.12,7.1-.11,10.56-.09,3.08,0,6.28,0,9.42-.06a3.34,3.34,0,0,1,2.42.58,3.49,3.49,0,0,1,.63,2.53c-.06,9.28-.05,18.72,0,27.84V83.77c0,3.63,0,7.27,0,10.9,0,7.78,0,15.82,0,23.73-.16,13.38-8.09,23.4-20.72,26.15a26.87,26.87,0,0,1-5.74.47C128.88,145.05,108,145.08,87.31,145ZM85.16,8c.39,0,.79,0,1.18,0l31,0c3.24,0,6.49,0,9.73,0,7.18,0,14.61-.09,21.9.09,12.44.31,23.44,11.31,24,24a3.49,3.49,0,0,1-.51,2.5,2.91,2.91,0,0,1-2.17.54c-1.73,0-3.48,0-5.21,0h-3.32c-3.86,0-7.86,0-11.77-.11a4.83,4.83,0,0,1-3.2-1.76,12.49,12.49,0,0,0-10.67-5.57h0c-13.44,0-25.57,0-38,0h-.05a12.57,12.57,0,0,0-10.94,5.67A4.43,4.43,0,0,1,84.23,35c-4,.12-8,.11-11.92.1-2.86,0-5.81,0-8.72,0a2.9,2.9,0,0,1-2.12-.55A3.47,3.47,0,0,1,61,32c.56-12.48,11.6-23.47,24.1-24Zm55.51,30.91a3.16,3.16,0,0,1-.85,2.31A5.35,5.35,0,0,1,136,42.55c-12.38.08-25.14.08-37.92,0a5.35,5.35,0,0,1-3.84-1.32,3.12,3.12,0,0,1-.89-2.34c0-2.16,1.9-3.51,4.87-3.53,2.59,0,5.18,0,7.77,0h16.62c4.39,0,8.8,0,13.2,0C138.76,35.38,140.59,36.69,140.67,38.89Z"/><rect class="cls-2" width="234" height="151"/></g></g></svg>