<svg xmlns="http://www.w3.org/2000/svg" viewBox="0 0 234 151"><defs><style>.cls-1{fill:#222;}.cls-2{fill:none;}</style></defs><title>icon-type-c</title><g id="Layer_2" data-name="Layer 2"><g id="Layer_1-2" data-name="Layer 1"><path class="cls-1" d="M117.07,120.26c-16.94,0-33.88.09-50.82,0A44.59,44.59,0,0,1,21.57,75.38c0-24.11,19.32-44.23,43.56-44.46,34.69-.34,69.4-.48,104.09.08,18.44.29,32.64,9.56,39.45,26.66,13,32.67-9.6,61.88-40.08,62.54C151.43,120.56,134.25,120.26,117.07,120.26Zm0-13.69v0c17.3,0,34.6.27,51.88-.08,12.74-.26,22.05-6.72,27.25-18.24s3.56-22.94-4.37-32.87c-6.23-7.8-15-10.83-24.81-10.83q-49.78,0-99.56,0c-1.29,0-2.58,0-3.86.11-14.22,1.33-25,11-27.64,24-4.25,20.84,10.4,37.89,31.68,37.9Q92.33,106.59,117,106.57Z"/><path class="cls-1" d="M117,87c-17.4,0-34.81,0-52.22,0-7.51,0-12.54-5-12.26-11.81.23-5.69,4-10.24,9.71-10.51,9.31-.45,18.64-.39,28-.42,11.51,0,23,.09,34.53.08,15.13,0,30.27-.18,45.4-.08a11.37,11.37,0,0,1-.21,22.74C152.25,87,134.61,87,117,87Z"/><rect class="cls-2" width="234" height="151"/></g></g></svg>