<svg xmlns="http://www.w3.org/2000/svg" viewBox="0 0 234.42 151.47"><defs><style>.cls-1{fill:#222;}.cls-2{fill:none;}</style></defs><title>icon-wireless-charge</title><g id="Layer_2" data-name="Layer 2"><g id="Layer_1-2" data-name="Layer 1"><path class="cls-1" d="M108.83,90.9h-2c-7.23,0-14.46,0-21.69,0-1.72,0-3.15-.42-3.95-2s-.28-2.91.72-4.24q21.32-28.36,42.6-56.78c1.44-1.92,3.06-2.48,4.79-1.73s2.43,2.44,1.94,4.88q-3,14.76-5.92,29.53c-.08.43-.13.87-.22,1.46H133c5.31,0,10.62,0,15.93,0a3.82,3.82,0,0,1,3.82,2c.85,1.61.35,3.07-.66,4.41q-21.31,28.38-42.64,56.75c-1.31,1.75-2.74,2.35-4.33,1.83a3.45,3.45,0,0,1-2.56-3.24,9.74,9.74,0,0,1,.36-2.5q2.92-14.69,5.88-29.37C108.82,91.62,108.8,91.39,108.83,90.9Zm4.1,17,.27.14L142.32,69.2h-2.21c-6.27,0-12.54,0-18.81,0-3.29,0-4.75-1.8-4.1-5,.23-1.1.44-2.21.66-3.32Q119.45,53,121,45l-.26-.12L91.67,83.7h2c6.38,0,12.77,0,19.15,0,3.15,0,4.64,2.07,4,5.15C115.45,95.18,114.21,101.54,112.93,107.88Z"/><path class="cls-1" d="M0,80.28c.07-35.62,20.15-66,48.89-78.07,3.79-1.59,7.3-.31,8.45,3.08,1.08,3.15-.33,5.94-3.92,7.51A70.79,70.79,0,0,0,32.14,26.93C-2.53,60.82,7.81,119.41,52,139.45c.74.33,1.49.64,2.21,1A5.74,5.74,0,1,1,49.58,151,72.08,72.08,0,0,1,30,139.1C10.64,122.65.6,101.72,0,80.28Z"/><path class="cls-1" d="M23.1,73.84c1.14-20.1,11.24-37.42,31.32-48.69,2.35-1.33,4.63-1.44,6.82.21,1.91,1.44,2.89,3.64,2,5.72a10.31,10.31,0,0,1-4.13,4.54c-8.4,4.71-15.13,11-19.5,19.64-11.52,22.79-2.91,49.84,19.56,62.06a9.89,9.89,0,0,1,4,4.31c.93,2.05.1,4.28-1.78,5.79a5.7,5.7,0,0,1-6.58.57,56,56,0,0,1-19.16-15.94C27.58,101.61,23.24,89.83,23.1,73.84Z"/><path class="cls-1" d="M46.1,76.65c.49-11,4.64-20,12.93-27.09,3.15-2.68,6.64-2.56,8.86.1s1.7,6.14-1.64,8.88c-11.5,9.43-11.54,26.2,0,35.77,1.83,1.52,3.24,3.15,3,5.67a5.51,5.51,0,0,1-3.42,4.81,5.62,5.62,0,0,1-6.29-1,35.76,35.76,0,0,1-13-22.68C46.31,79.58,46.23,78,46.1,76.65Z"/><path class="cls-1" d="M234,83.14c-.91,4.56-1.49,9.22-2.77,13.68-7.15,24.91-22.42,43-46,53.84-3,1.4-5.63,1-7.41-1.12s-2.14-4.34-.69-6.49A9.5,9.5,0,0,1,181,140a69.55,69.55,0,0,0,30.27-25.35c21.14-32.11,13-81.85-29.38-101.23-.57-.26-1.16-.48-1.73-.75-3.32-1.58-4.66-4.71-3.34-7.77s4.63-4.23,8-2.81A76.19,76.19,0,0,1,206.9,16.35c15.18,14.08,24.28,31.31,26.61,52a12,12,0,0,0,.46,1.81Z"/><path class="cls-1" d="M210.88,79.49c-1.16,19.75-11.28,37-31.22,48.24-2.31,1.3-4.63,1.47-6.85-.12a5.46,5.46,0,0,1-2.18-5.73c.39-2.41,2.15-3.58,4.12-4.63,11.89-6.37,19.82-15.93,23.16-29.1,5.38-21.21-3.8-42-23-52.51a9.88,9.88,0,0,1-4-4,5,5,0,0,1,1.62-6.08,5.58,5.58,0,0,1,6.55-.69,56.24,56.24,0,0,1,18.7,15.27C206.21,50.77,210.75,62.84,210.88,79.49Z"/><path class="cls-1" d="M187.86,76.38c-.5,11-4.76,20.1-13.16,27.16-3,2.53-6.43,2.33-8.65-.3s-1.81-6.23,1.47-8.67c11.81-8.8,11.51-27.93-.15-36.35-3.12-2.25-3.51-5.83-1.34-8.5s5.65-2.86,8.64-.37C183.11,56.38,187.33,65.51,187.86,76.38Z"/><rect class="cls-2" x="0.42" width="234" height="151"/></g></g></svg>