<svg xmlns="http://www.w3.org/2000/svg" viewBox="0 0 104.81 103"><defs><style>.cls-1{fill:#111;stroke:#111;stroke-miterlimit:10;}</style></defs><title>icon-factory</title><g id="Layer_2" data-name="Layer 2"><g id="Layer_1-2" data-name="Layer 1"><path class="cls-1" d="M104.31,101.14a2.67,2.67,0,0,1-2.69,1.36q-49.2,0-98.4,0C.94,102.48.5,102,.5,99.75v-36a5.7,5.7,0,0,1,.11-1.31,1.44,1.44,0,0,1,1.51-1.22c.85,0,1.7-.07,2.54,0s1.1-.3,1.1-1.13c0-6.52,0-13.05,0-19.57,0-3.15,0-6.29,0-9.44,0-.87-.17-1.28-1.16-1.24-1.8.05-2.29-.48-2.3-2.27,0-2,0-4.05,0-6.08,0-1.23.57-1.81,1.8-1.81,5.65,0,11.29,0,16.94,0a1.67,1.67,0,0,1,1.79,1.78q.07,3.3,0,6.59c0,1.25-.73,1.85-2.11,1.79-1.07-.05-1.41.36-1.4,1.37,0,3.58,0,7.15.05,10.73l0,4.76c0,3.92,0,7.83,0,11.75,0,.64-.05,1.28-.06,1.92s.24.86.85.86H32.45c.69,0,1-.28,1-1,0-2.06,0-4.12,0-6.18,0-3.58,0-7.15,0-10.73,0-3.38,0-6.76-.05-10.13,0-.81,0-1.62.06-2.43,0-.6-.15-.92-.86-.93-2.28-.05-2.69-.51-2.68-2.78,0-1.76,0-3.51,0-5.27,0-1.54.63-2.13,2.17-2.13H48.44c1.55,0,2.08.55,2.07,2.07,0,2,0,3.93,0,5.89,0,1.63-.57,2.27-2.17,2.21-1,0-1.31.29-1.31,1.31q.06,14.51,0,29c0,.8.27,1.08,1.06,1.07q7.71,0,15.42,0c.82,0,1.12-.27,1.12-1.12q0-14.55,0-29.11c0-.88-.26-1.23-1.16-1.16a16.48,16.48,0,0,1-2.33,0,1.53,1.53,0,0,1-1.66-1.55c0-2.36-.07-4.73,0-7.09,0-1.08.66-1.52,1.86-1.53H74.93q11.77,0,23.54,0c1.69,0,2.32.62,2.31,2.31s0,3.65,0,5.48-.59,2.4-2.45,2.41c-.58,0-1.16.05-1.73,0-.87-.09-1.08.29-1.07,1.11,0,5.2,0,10.41,0,15.62,0,4.46,0,8.92,0,13.39,0,1,.32,1.3,1.28,1.26,1.62-.06,3.24,0,4.86,0a2.57,2.57,0,0,1,2.66,1.21Zm-70.14-2h29.1c1.31,0,1.32,0,1.33-1.37,0-.33,0-.67,0-1v-31c0-1.41,0-1.41-1.4-1.41q-9.23,0-18.45,0-19.87,0-39.75,0c-.8,0-1.22.11-1.22,1.09q0,16.17,0,32.34c0,1.4,0,1.4,1.47,1.4Zm33.7-69.25c0,1.63,0,3.18,0,4.73,0,5-.07,9.92-.06,14.88,0,4.59.1,9.18.11,13.77q0,17.3,0,34.59c0,1,.35,1.3,1.34,1.29,7.13,0,14.27,0,21.4,0,1.58,0,1.58,0,1.58-1.6q.06-22.11.12-44.21,0-11.05,0-22.11c0-1.4,0-1.4-1.42-1.4H69.61C69.08,29.85,68.55,29.9,67.87,29.93ZM16.11,45.54c0-4.83,0-9.67,0-14.5,0-.95-.31-1.24-1.22-1.21-1.52.05-3,0-4.56,0s-1.41,0-1.41,1.4v28.6c0,1.24.11,1.33,1.33,1.34h4.36c1.48,0,1.49,0,1.49-1.44Zm20.57-.1c0,4.84,0,9.67,0,14.5,0,1,.33,1.27,1.23,1.25,1.45,0,2.9,0,4.36,0s1.61,0,1.6-1.65V45.23c0-4.7,0-9.4,0-14.09,0-1-.32-1.38-1.35-1.32-1.55.08-3.11.07-4.66,0-1,0-1.2.32-1.2,1.22C36.7,35.84,36.68,40.64,36.68,45.44ZM95.52,81.85h0v2.74c0,4.5,0,9,0,13.49,0,.83.24,1.16,1.09,1.11a27.41,27.41,0,0,1,3.14,0c.93.07,1.22-.27,1.21-1.2,0-4.09,0-8.18,0-12.27,0-6.73,0-13.46,0-20.19,0-.86-.21-1.25-1.13-1.18s-2,0-2.94,0c-1.35,0-1.36,0-1.36,1.36ZM80.07,26.53h0c5,0,10,0,15,0,2.41,0,2.41,0,2.41-2.38,0-1.29,0-1.31-1.3-1.32-10.33,0-20.67,0-31,0-3.05,0-2.41-.23-2.55,2.54,0,1,.34,1.18,1.23,1.17C69.26,26.52,74.66,26.53,80.07,26.53Zm-39.82,0h0c1.52,0,3,0,4.57,0,2.75,0,2.47.6,2.5-2.65,0-.7-.3-1-1-1-.41,0-.81-.05-1.22-.05-3.68,0-7.35,0-11,0-.66,0-.92.24-.89.9a11,11,0,0,1,0,1.72c-.07.8.26,1.06,1.05,1.05C36.26,26.5,38.26,26.53,40.25,26.53Zm-27.86,0h0c1.55,0,3.11,0,4.66,0,2.89-.05,2.44.51,2.52-2.61,0-.75-.26-1-1-1-3.54,0-7.08-.15-10.61-.05-2.88.08-2.4-.42-2.49,2.61,0,.77.25,1.08,1,1.06C8.48,26.49,10.44,26.52,12.39,26.52Z"/><path class="cls-1" d="M25.18.5A16.56,16.56,0,0,1,28.1,2.21a4.27,4.27,0,0,1,1.24,5.22,5.13,5.13,0,0,1-4.69,3.32c-2.22.09-4.46,0-6.69,0-2.4,0-3.62,1.11-3.81,3.5a1.52,1.52,0,0,1-1.67,1.61A1.54,1.54,0,0,1,11,14.12c0-3.49,3.39-6.62,7.15-6.64,2.13,0,4.26,0,6.38,0,1.45,0,2-.51,2-1.82s-.54-1.77-2-1.78c-2,0-3.92,0-5.88,0-1.43,0-2.15-.35-2.39-1.23-.3-1.13.5-1.64,1.29-2.14Z"/><path class="cls-1" d="M51.15.5a17.59,17.59,0,0,1,2.92,1.71,4.3,4.3,0,0,1,1.28,5.12,5.26,5.26,0,0,1-4.73,3.43c-1.72.09-3.44,0-5.17,0a3.21,3.21,0,0,0-3.54,3.1c-.14.88-.23,1.8-1.36,2a1.57,1.57,0,0,1-1.92-1.65A7,7,0,0,1,44.31,7.7c2-.24,4.11-.17,6.17-.22,1.47,0,2-.5,2-1.82s-.55-1.78-2-1.78-2.78,0-4.16,0c-1,0-1.89,0-2.3-1.06S44.23,1.06,45.06.5Z"/><path class="cls-1" d="M50.58,80c-1,0-2.09,0-3.14,0a1.69,1.69,0,0,1-1.89-1.87c0-2.16,0-4.33,0-6.49a1.67,1.67,0,0,1,1.75-1.82q3.35-.06,6.69,0a1.67,1.67,0,0,1,1.74,1.83q0,3.24,0,6.49A1.69,1.69,0,0,1,53.82,80c-1.08,0-2.16,0-3.24,0Zm0-3.29c1.85,0,1.85,0,1.86-1.09,0-2.5,0-2.52-1.16-2.51-2.73,0-2.4-.18-2.42,1.46C48.81,77.07,48.69,76.61,50.57,76.67Z"/><path class="cls-1" d="M28.27,74.79c0-1,0-2.09,0-3.13a1.65,1.65,0,0,1,1.77-1.88c2.19,0,4.38,0,6.57,0a1.88,1.88,0,0,1,1.86,2.09q-.07,3-.13,6.07c0,1.49-.54,2-2,2-2,0-4.05,0-6.08,0-1.44,0-2-.6-2-2,0-.54,0-1.08,0-1.62Zm5,1.88c2,0,1.85.27,1.88-1.83s0-1.76-1.82-1.76-1.92-.37-1.89,1.81C31.48,76.69,31.47,76.69,33.28,76.67Z"/><path class="cls-1" d="M11,74.87c0-1.08,0-2.16,0-3.24s.59-1.84,1.77-1.86q3.24,0,6.48,0a1.69,1.69,0,0,1,1.86,1.9c0,2.09,0,4.19,0,6.28,0,1.4-.58,2-1.95,2Q16,80,12.84,80c-1.3,0-1.83-.57-1.87-1.85V74.87Zm5,1.8a4,4,0,0,1,.6,0c.95.12,1.4-.26,1.29-1.24a4.34,4.34,0,0,1,0-.51c0-2.18,0-1.84-1.85-1.85-2,0-1.87-.23-1.86,1.81S14.06,76.65,16,76.67Z"/><path class="cls-1" d="M16,93.78c-1.08,0-2.16,0-3.24,0A1.56,1.56,0,0,1,11,92.13c0-1,.55-1.51,1.72-1.52q3.29,0,6.57,0c1.13,0,1.79.62,1.77,1.61s-.65,1.52-1.74,1.54-2.23,0-3.34,0Z"/><path class="cls-1" d="M50.73,90.61c1.12,0,2.23,0,3.35,0a1.55,1.55,0,0,1,1.65,1.55,1.66,1.66,0,0,1-1.66,1.59c-2.29,0-4.59,0-6.88,0a1.57,1.57,0,1,1,0-3.13C48.37,90.59,49.55,90.61,50.73,90.61Z"/><path class="cls-1" d="M15.94,86.86c-1.11,0-2.22,0-3.33,0A1.5,1.5,0,0,1,11,85.3a1.42,1.42,0,0,1,1.55-1.59q3.39-.06,6.77,0c1.15,0,1.79.67,1.75,1.64s-.75,1.52-1.88,1.53H15.94Z"/><path class="cls-1" d="M33.19,93.77c-1.08,0-2.16,0-3.23,0a1.52,1.52,0,0,1-1.68-1.59,1.48,1.48,0,0,1,1.62-1.55c2.26,0,4.52,0,6.78,0a1.5,1.5,0,0,1,1.67,1.6,1.53,1.53,0,0,1-1.72,1.56c-1.15,0-2.29,0-3.44,0Z"/><path class="cls-1" d="M50.65,83.7c1.15,0,2.3,0,3.45,0a1.56,1.56,0,0,1,1.62,1.57,1.66,1.66,0,0,1-1.67,1.57q-3.4,0-6.79,0a1.67,1.67,0,0,1-1.72-1.63,1.62,1.62,0,0,1,1.77-1.55c1.11,0,2.23,0,3.34,0Z"/><path class="cls-1" d="M33.31,86.86c-1.08,0-2.16,0-3.23,0s-1.81-.61-1.8-1.59.58-1.56,1.7-1.57c2.26,0,4.51,0,6.77,0a1.42,1.42,0,0,1,1.58,1.55,1.5,1.5,0,0,1-1.59,1.59C35.6,86.89,34.45,86.86,33.31,86.86Z"/><path class="cls-1" d="M80,43.65c-1.05,0-2.1,0-3.14,0A1.7,1.7,0,0,1,75,41.78c0-2.12,0-4.25,0-6.37a1.76,1.76,0,0,1,1.93-2c2.13,0,4.26,0,6.38,0a1.69,1.69,0,0,1,1.9,1.87q0,3.18,0,6.38c0,1.31-.67,1.94-2,2-.54,0-1.08,0-1.62,0Zm0-3.29c2.1,0,1.83.24,1.84-1.82s.18-1.8-1.77-1.79-1.83-.27-1.84,1.81S78,40.34,80,40.36Z"/><path class="cls-1" d="M75,61c0-1.08,0-2.16,0-3.24A1.68,1.68,0,0,1,76.8,56c2.16,0,4.32,0,6.47,0a1.75,1.75,0,0,1,1.91,2q0,3.14,0,6.27a1.74,1.74,0,0,1-1.93,2c-2.13,0-4.25,0-6.38,0a1.76,1.76,0,0,1-1.9-1.9c0-1.08,0-2.16,0-3.24Zm3.3,0c0,2.08-.21,1.82,1.73,1.82s1.86,0,1.87-1.88,0-1.84-1.88-1.74C78.28,59.33,78.28,59.33,78.26,61Z"/><path class="cls-1" d="M80.11,78.46c1.08,0,2.16,0,3.24,0s1.79.57,1.81,1.72q0,3.28,0,6.59a1.57,1.57,0,0,1-1.75,1.78q-3.39,0-6.79,0A1.5,1.5,0,0,1,75,86.9q-.06-3.41,0-6.79a1.64,1.64,0,0,1,1.7-1.65c1.15,0,2.3,0,3.45,0Zm1.76,5.13c0-2,0-2-1.66-2-2.33,0-1.94-.06-1.94,2s-.17,1.78,1.79,1.78S81.85,85.52,81.87,83.59Z"/><path class="cls-1" d="M80.06,95.56c-1.08,0-2.16,0-3.24,0a1.66,1.66,0,1,1,.07-3.28c2.13,0,4.26,0,6.38,0A1.74,1.74,0,0,1,85.17,94a1.71,1.71,0,0,1-1.86,1.61c-1.09,0-2.17,0-3.25,0Z"/><path class="cls-1" d="M80.16,69.76c1,0,2.1,0,3.14,0a1.7,1.7,0,0,1,1.86,1.61,1.72,1.72,0,0,1-1.9,1.68q-3.2,0-6.38,0A1.75,1.75,0,0,1,75,71.5a1.78,1.78,0,0,1,2-1.74c1.08,0,2.16,0,3.24,0Z"/><path class="cls-1" d="M80,50.56H76.79A1.73,1.73,0,0,1,75,48.92a1.59,1.59,0,0,1,1.75-1.56c2.23,0,4.45-.09,6.68-.09A1.72,1.72,0,0,1,85.16,49a1.66,1.66,0,0,1-1.78,1.56c-1.12,0-2.23,0-3.34,0Z"/></g></g></svg>