<svg xmlns="http://www.w3.org/2000/svg" viewBox="0 0 234 151"><defs><style>.cls-1{fill:none;}.cls-2{fill:#222;}</style></defs><title>icon-pedometer</title><g id="Layer_2" data-name="Layer 2"><g id="Layer_1-2" data-name="Layer 1"><rect class="cls-1" width="234" height="151"/><path class="cls-2" d="M183.85,71.07c-5.28-1.65-10.44-3.56-15.75-4.87-10.36-2.56-20.93-3-31.55-2.23a1.67,1.67,0,0,1-2-1,52.49,52.49,0,0,1-6.41-26.48,45.85,45.85,0,0,1,6.93-23.46c11.27-17.69,33.1-14.93,43.35-2.69,4.89,5.84,7.33,12.7,8.5,20.09,1.82,11.56.56,23-1.69,34.33-.41,2-.9,4-1.36,6.07C183.87,71.07,183.79,71.25,183.85,71.07Z"/><path class="cls-2" d="M50.13,101.2c-.58-2.71-1.22-5.37-1.71-8-1.73-9.42-2.83-18.9-1.93-28.49.86-9.2,3.16-17.89,9.49-25,9.35-10.52,26-12.33,36.64-3.94,5.91,4.66,9.09,11,11.13,18.12,3.91,13.56,2,26.47-4.34,38.9a1.68,1.68,0,0,1-1.93,1C84.16,92.89,71,93.81,58.27,98,55.58,98.92,53,100.08,50.13,101.2Z"/><path class="cls-2" d="M136.85,82.84a89.87,89.87,0,0,1,22.57.73,55.33,55.33,0,0,1,19.12,6.24,2.1,2.1,0,0,1,1.29,2.55c-.7,3.93-1,7.94-1.91,11.82a21.44,21.44,0,0,1-24.71,16.12c-2.39-.44-4.83-.74-7.16-1.39-9-2.52-13.16-8.29-12.71-17.58a53.18,53.18,0,0,1,1.15-7.49C135.2,90.23,136,86.65,136.85,82.84Z"/><path class="cls-2" d="M97.17,112.73c1,4.58,2.06,8.91,2.94,13.27a25,25,0,0,1-.34,12.47,12.35,12.35,0,0,1-5.54,7.45c-7.56,4.29-15.68,6-24.06,3.2S57,139.91,55.81,131c-.42-3-.83-6.07-1.37-9.07a1.61,1.61,0,0,1,1-2,52.58,52.58,0,0,1,17.8-6.24,89.16,89.16,0,0,1,23.41-1.1C96.85,112.68,97.1,112.72,97.17,112.73Z"/></g></g></svg>