<svg xmlns="http://www.w3.org/2000/svg" viewBox="0 0 234 151"><defs><style>.cls-1{fill:none;}</style></defs><title>icon-night</title><g id="Layer_2" data-name="Layer 2"><g id="Layer_1-2" data-name="Layer 1"><rect class="cls-1" width="234" height="151"/><path d="M120,150.5c-45.7-.39-81.94-39.61-77.49-85.1,2.89-29.61,18.42-51,45.33-64A8.11,8.11,0,0,1,91.42.5c3.51.13,5.1,2.64,3.79,6A73.51,73.51,0,0,0,90,34.24a68.61,68.61,0,0,0,63.39,67.81,71.25,71.25,0,0,0,31.25-4.53c2-.75,4.05-1.88,5.85.22s1.68,4.17.57,6.49c-11.56,24.21-30.4,39.2-56.71,44.57C129.66,149.77,124.8,150,120,150.5ZM83.29,14.15c-21.71,13.07-37.24,41-30.89,71.4,6.58,31.51,31.34,53.41,63,55.66,27,1.93,51.59-12.34,62.55-32.05C120,122.3,70.14,72.43,83.29,14.15Z"/><path d="M151.29,67.22a5.67,5.67,0,0,1-5.61-3.36c-.5-1-.83-2.15-1.27-3.22-2.48-6.14-6.67-10.52-13-12.72a19.1,19.1,0,0,1-3.2-1.33A6,6,0,0,1,125,40.83a5.69,5.69,0,0,1,3.52-5.22,17.89,17.89,0,0,1,1.86-.79c6.71-2.25,11.47-6.51,13.94-13.25,1.18-3.22,2.58-6.51,6.74-6.58,4.34-.07,5.81,3.3,7.06,6.6,2.56,6.78,7.11,11.29,14.21,13.17a6.6,6.6,0,0,1,5,6.06,6,6,0,0,1-4.09,6c-.89.38-1.8.7-2.68,1.08-6.27,2.66-10.77,7-12.91,13.59C156.36,65.55,154.42,67.17,151.29,67.22ZM139.54,41.16l11.61,11.62L162.9,41.14,151.23,29.47Z"/></g></g></svg>