<svg xmlns="http://www.w3.org/2000/svg" viewBox="0 0 234 158"><defs><style>.cls-1{fill:none;}</style></defs><title>icon-record</title><g id="Layer_2" data-name="Layer 2"><g id="Layer_1-2" data-name="Layer 1"><rect class="cls-1" y="3.5" width="234" height="151"/><path d="M117,158a79,79,0,1,1,79-79A79.09,79.09,0,0,1,117,158ZM117,8a71,71,0,1,0,71,71A71.08,71.08,0,0,0,117,8Z"/><path d="M117,126.5A47.5,47.5,0,1,1,164.5,79,47.56,47.56,0,0,1,117,126.5Zm0-84A36.5,36.5,0,1,0,153.5,79,36.54,36.54,0,0,0,117,42.5Z"/></g></g></svg>