<svg xmlns="http://www.w3.org/2000/svg" viewBox="0 0 35.99 20.94"><defs><style>.cls-1{fill:#222;}</style></defs><title>icon-ram</title><g id="Layer_2" data-name="Layer 2"><g id="Layer_1-2" data-name="Layer 1"><path class="cls-1" d="M19.24,18.79H10.86c-.09.11-.2.18-.21.26-.29,1.87-.29,1.88-2.14,1.88-2.27,0-4.54,0-6.81,0C.16,20.91,0,20.75,0,19.19c0-2.53,0-5.07,0-7.6A3,3,0,0,1,.88,9.23,2.54,2.54,0,0,0,1,5.93,3.45,3.45,0,0,1,0,3C.09.16-.58,0,3,0Q18.09,0,33.2,0c.44,0,.88,0,1.33,0C35.75.09,35.92.26,36,1.51a12.72,12.72,0,0,1,0,2.31,4,4,0,0,1-.72,1.74,2.76,2.76,0,0,0,0,3.83A2.57,2.57,0,0,1,36,11.31c0,2.64,0,5.28,0,7.92,0,1.54-.15,1.69-1.73,1.7-4.15,0-8.3,0-12.45,0C19.66,20.93,19.66,20.93,19.24,18.79Zm15-17.13H1.69c-.05,1.11-.4,2.12.39,3.06a4.22,4.22,0,0,1,0,5.6,1.73,1.73,0,0,0-.42.86c0,2.68,0,5.36,0,8.11H3c0-.39,0-.71.06-1s.1-.73.15-1.08c1.25.05,1.25.05,1.61,2.15L6,19.24c0-.46,0-.79,0-1.12s.1-.62.14-.93c1.28,0,1.28,0,1.59,2.06H8.91c.16-2,.23-2.12,1.47-2.13,3.1,0,6.2,0,9.3,0,.87,0,1.36.35,1.33,1.28a5.69,5.69,0,0,0,.14,1l1.16-.16c.24-2.19.24-2.19,1.61-1.85.06.64.12,1.28.18,2l1.19-.11c.1-.74.18-1.38.28-2.12l1.33.09c.07.76.12,1.4.18,2.11l1.16-.06c.32-2.16.32-2.16,1.67-1.94,0,.63.08,1.27.13,1.94h1.17c.36-2.13.36-2.13,1.7-2,0,.63.07,1.27.12,2l1.35-.11c0-2.39,0-4.64,0-6.9a3.06,3.06,0,0,0-.92-2.51c-.86-.82-.9-3.82,0-4.61C34.6,4.18,34.44,3,34.26,1.66Z"/><path class="cls-1" d="M12.75,8.16c0,1.11,0,2.21,0,3.31,0,.91-.42,1.29-1.31,1.29h-5a1.05,1.05,0,0,1-1.2-1.21c0-2.2,0-4.41,0-6.61,0-.85.4-1.17,1.22-1.16,1.71,0,3.43,0,5.14,0,.75,0,1.13.32,1.12,1.08,0,1.1,0,2.2,0,3.3ZM6.85,11h4.26V5.39H6.85Z"/><path class="cls-1" d="M21.72,8.27c0,1.05,0,2.1,0,3.14,0,.88-.33,1.35-1.25,1.35h-5c-.91,0-1.27-.44-1.26-1.33,0-2.15,0-4.29,0-6.44,0-.81.3-1.23,1.16-1.22,1.72,0,3.43,0,5.15,0,.85,0,1.19.38,1.18,1.2C21.7,6.07,21.72,7.17,21.72,8.27ZM20.1,11.06V5.37H15.84v5.69Z"/><path class="cls-1" d="M30.7,8.25c0,1.05,0,2.09,0,3.14,0,.86-.29,1.37-1.22,1.37H24.33a1,1,0,0,1-1.11-1.14c0-2.25,0-4.51,0-6.76,0-.77.39-1.08,1.13-1.07,1.72,0,3.43,0,5.15,0,.83,0,1.22.34,1.2,1.18,0,1.1,0,2.2,0,3.3ZM24.85,5.36V11h4.24V5.36Z"/></g></g></svg>