<svg xmlns="http://www.w3.org/2000/svg" viewBox="0 0 234 151"><defs><style>.cls-1{fill:none;}.cls-2{fill:#222;}</style></defs><title>icon-sleep</title><g id="Layer_2" data-name="Layer 2"><g id="Layer_1-2" data-name="Layer 1"><rect class="cls-1" width="234" height="151"/><path class="cls-2" d="M48.23,115.58H97.87V78.32c0-4.93,2.56-7.49,7.48-7.49,17.72,0,35.44-.13,53.16.08,20.75.24,39.42,16.91,42.29,37.45a56.23,56.23,0,0,1,.59,7.44c.06,10.54,0,21.08,0,31.62,0,2.54-.53,3.06-3,3.07h-9.9c-2.19,0-2.73-.57-2.74-2.8,0-4.69,0-9.38,0-14.07v-2.18H48.23v5.67c0,3.59,0,7.18,0,10.77,0,2-.65,2.6-2.6,2.61-3.42,0-6.84,0-10.25,0-2.25,0-2.79-.54-2.79-2.74q0-31.09,0-62.19,0-12,0-24c0-2.57.5-3.08,3-3.09h9.55c2.56,0,3.1.55,3.1,3.2v53.88Z"/><path class="cls-2" d="M73.05,109.07A18.17,18.17,0,1,1,91.28,90.84,18.29,18.29,0,0,1,73.05,109.07Z"/><path class="cls-2" d="M87.78,51.42c3.1,0,5.88,0,8.65,0,2.19,0,3.18,1,3.22,3.18,0,1.27,0,2.55,0,3.82-.07,1.8-1,2.91-2.78,2.92-6.82.06-13.66.09-20.48,0-2.83,0-4.11-2.5-2.75-5.05,3.32-6.22,6.68-12.42,10-18.63.29-.54.53-1.11.89-1.88-2.48,0-4.73,0-7,0-2.41,0-3.33-.94-3.36-3.37,0-1.27,0-2.54,0-3.82a2.6,2.6,0,0,1,2.7-2.78c6.42-.05,12.85-.1,19.27,0,2.64,0,3.86,2.59,2.55,5.05-3.31,6.22-6.67,12.42-10,18.63C88.44,50.05,88.18,50.61,87.78,51.42Z"/><path class="cls-2" d="M117.25,31.65c2.45,0,4.58,0,6.71,0,2,0,2.68.78,2.73,2.76.14,4.87-.06,5.08-4.94,5.09q-6.07,0-12.15,0c-3.28,0-4.31-1.7-2.78-4.56q3.65-6.81,7.32-13.59c.26-.5.5-1,.9-1.83-2,0-3.72,0-5.47,0-1.93,0-2.58-.69-2.63-2.61-.13-5.13-.11-5.16,5-5.16,3.71,0,7.41,0,11.11,0,2.92,0,4,1.76,2.61,4.32C122.89,21.18,120.15,26.25,117.25,31.65Z"/><path class="cls-2" d="M142.22,16.55c1.93,0,3.58,0,5.23,0s2.25.68,2.2,2.21c0,.63,0,1.27,0,1.91a1.75,1.75,0,0,1-1.94,1.94c-4.11,0-8.21,0-12.32,0-2.07,0-2.89-1.6-1.87-3.5,2.2-4,4.43-8.09,6.84-12.48-1.58,0-2.87,0-4.15,0C134.69,6.64,134,6,134,4.45,133.9.63,134,.52,137.72.51c2.95,0,5.9,0,8.85,0s3.6,1.35,2.21,3.9c-1.87,3.45-3.77,6.89-5.65,10.34C142.86,15.24,142.62,15.74,142.22,16.55Z"/></g></g></svg>