<svg xmlns="http://www.w3.org/2000/svg" viewBox="0 0 103.05 103.05"><defs><style>.cls-1{fill:#686868;}</style></defs><title>icon-global-sourcing-grey</title><g id="Layer_2" data-name="Layer 2"><g id="Layer_1-2" data-name="Layer 1"><path class="cls-1" d="M103.05,51.5A51.68,51.68,0,0,0,51.6,0h-.11A51.31,51.31,0,0,0,15.07,15.19,50.93,50.93,0,0,0,0,51.56,51.46,51.46,0,0,0,88,87.87,51.06,51.06,0,0,0,103.05,51.5Zm-12-26.2A47.74,47.74,0,0,1,98.71,46a9.66,9.66,0,0,1,.07,1.2,4.26,4.26,0,0,1-.07.65l-.16,1H97.9l-2.17,0c-1.72,0-3.47,0-5.2-.05-.68,0-.9.09-1,.16s-.17.28-.12.91c.07.83,0,1.65,0,2.51,0,.18,0,.35,0,.51h9.79l-.15.87c-.16,1-.31,2-.45,3-.31,2.09-.6,4.06-1,6a43.43,43.43,0,0,1-6.43,14.71,3.67,3.67,0,0,1-2.6,1.59c-5.51,0-11.08,0-16.6,0H57a5.11,5.11,0,0,1-.75-.07L55.86,79l-1-.12.38-.91q.2-.45.36-.9l0-.1a19.83,19.83,0,0,1,.92-2.13,6.12,6.12,0,0,0,.32-5.71c-1.34-2.89-.73-5.1,2-7.16C61,60.36,62.93,58.53,65,56.6c.9-.85,1.8-1.7,2.73-2.54l.61-.55,8.37,11.1c.5.66,1,1.33,1.49,2l.1.12c1.08,1.46,2.17,2.93,3.29,4.35a2.85,2.85,0,0,0,2.28,1.35c.82-.09,1.61-.85,2.23-2.13,2.15-4.43,2.16-8.21,0-12.24a72,72,0,0,1-3.45-8c-.61-1.6-1.24-3.23-1.92-4.8a2.86,2.86,0,0,1,.85-3.87c1-.79,2-1.7,2.89-2.57l.9-.85c2.43-2.25,3.64-4.67,3.5-7s-1.63-4.55-4.31-6.47l-1.21-.88,1.43-.45C88,22.15,89.28,22.57,91.09,25.3ZM68.47,7.17a46.67,46.67,0,0,1,15.92,10.2l1.32,1.29H79.53c-1.6,0-3.09,0-4.6,0a2.22,2.22,0,0,1-1.61-1C71.89,15.33,70.46,13,69,10.53L66.37,6.32ZM52.66,4.68a2.14,2.14,0,0,1,1.61-.55c2.73,0,5.72.44,7.66,3.67,1.31,2.18,2.82,4.27,4.42,6.49.74,1,1.51,2.07,2.29,3.19l.83,1.18H62.31c-2.55,0-5.55,0-8.48-.06-.87,0-1.62-1.3-1.63-2-.05-2.26-.06-4.56-.06-6.79,0-1.19,0-2.36,0-3.55A2.17,2.17,0,0,1,52.66,4.68Zm-5.43-.27.73,0v.73c0,.75,0,1.51,0,2.27,0,1.77,0,3.6,0,5.42q0,.6,0,1.26c.07,1.5.14,3-.71,4a3.1,3.1,0,0,1-2.33.73c-.46,0-.94,0-1.42-.07h-.2c-.42,0-.8-.06-1.17,0-1.48,0-3,0-4.52,0H34l.67-1.13.61-1.07c.39-.69.73-1.29,1.13-1.87h0c1.79-2.55,3.7-5.27,5.69-8C43.72,4.45,44.2,4.34,47.23,4.41ZM19.29,17.17c3.85-4,8.67-7.16,15.17-9.89l2.14-.9-2.69,4.4c-1.4,2.31-2.74,4.5-4.1,6.66a2.62,2.62,0,0,1-1.87,1.19l-2.49,0c-2,0-3.85-.07-5.68-.22l-1.58-.13ZM4.3,48.1c0-.55.1-1.07.15-1.57.09-1.06.18-2,.35-3a48.32,48.32,0,0,1,7.59-18.74,3.66,3.66,0,0,1,3.5-1.87c2.24.1,4.45.08,6.78.06l2.93,0h1l-.34,1c-.37,1.07-.76,2.11-1.15,3.15a61.72,61.72,0,0,0-2.24,6.78c-.65,2.65-1.13,5.4-1.59,8.06-.28,1.62-.57,3.28-.89,4.89-.14.68-.89,2-1.8,2-2.72.06-5.46.07-7.78.07H4.21ZM14,79c-1,0-1.86-1.18-2.09-1.54A47.65,47.65,0,0,1,4.32,56a2.73,2.73,0,0,1,.49-2.27,2.74,2.74,0,0,1,2.25-.67c3,.09,6.13,0,8.9,0l2.12,0a1.94,1.94,0,0,1,2.33,2,67,67,0,0,0,5.26,22.41,1.85,1.85,0,0,1,.11.59,2.29,2.29,0,0,0,0,.25l.1.84H19.77C18.19,79.1,16.1,79.09,14,79ZM33.92,95.51a40,40,0,0,1-15.72-11l-1.07-1.24h3.64c2.1,0,4.28,0,6.41,0a2.15,2.15,0,0,1,1.69.9c1.51,2.52,3,5.09,4.58,7.81L36,96.35Zm14-.24-.5,0h.5v3.27l-.69,0a8.32,8.32,0,0,1-.85,0,5.41,5.41,0,0,1-5-2.64c-1.44-2.25-3-4.5-4.46-6.67l-.1-.15c-.74-1.07-1.47-2.15-2.2-3.23a7.37,7.37,0,0,1-.52-1c-.09-.18-.18-.39-.3-.62l-.56-1.09h3.9c3.14,0,6.11,0,9.1,0A1.92,1.92,0,0,1,47.89,85C47.94,88.38,47.94,91.73,47.93,95.27ZM40.1,79.19c-2.38,0-4.78,0-7.16,0a3.14,3.14,0,0,1-2.54-1.39,61,61,0,0,1-5.87-22.44,5.9,5.9,0,0,1,0-1,1.24,1.24,0,0,1,.2-.54c0-.06.08-.14.13-.23l.21-.41H46.59V49H24.32l.11-.85c.11-.8.18-1.58.25-2.34A25.21,25.21,0,0,1,25.45,41c1.16-3.9,2.48-7.81,3.76-11.59l.11-.33c.49-1.45,1-2.9,1.46-4.36a2.62,2.62,0,0,1,2.77-1.91q14.54,0,29,0H76c.36,0,.71,0,1,.06l1.9.15-1.09,1.15L76.12,26l-.2.2c-1.52,1.59-3.1,3.23-4.6,4.92A2.92,2.92,0,0,1,67.5,32c-5.72-2.44-11.58-4.82-17.4-7.07a5.14,5.14,0,0,0-2.87,0A24.52,24.52,0,0,0,44.08,26c-.55.22-1.08.44-1.62.63-1.47.54-2,1.1-2.17,2.13s.25,1.56,1.5,2.5l14,10.54,1,.78c.33.24.64.49,1,.78l1.15.91-.73,1a11.47,11.47,0,0,1-.77,1c-.91,1-1.83,2-2.75,3-1.74,1.91-3.54,3.88-5.28,5.86a3.27,3.27,0,0,1-4.06,1.14,3,3,0,0,0-.62-.18,3.87,3.87,0,0,1-1-.29c-2.89-1.38-5.45-.09-7.93,1.16a2.07,2.07,0,0,0-1.17,1.51,2.27,2.27,0,0,0,.72,1.94,14.65,14.65,0,0,0,1.72,1.35l.49.34c1.59,1.11,3.23,2.26,2.76,5.38a3.8,3.8,0,0,0,1,3.26,6.3,6.3,0,0,0,.68.58l2.49-4.06c2-3.23,2-3.23.39-5.27l-1.26-1.62,2,.43.64.12a12,12,0,0,1,1.28.3,2.18,2.18,0,0,0,2.55-.68l3.15-3.44c3.41-3.74,6.94-7.61,10.37-11.44a2.41,2.41,0,0,0,.77-1.75,2.89,2.89,0,0,0-1.34-1.84q-4.36-3.3-8.73-6.56L50,32.22A6.87,6.87,0,0,1,48,30.05l-1-1.7,2.38.8c.41.13.83.27,1.23.43L68.2,36.74c2.48,1,2.73.95,4.48-1l2.46-2.72c1-1.15,2.07-2.3,3.12-3.43A4.35,4.35,0,0,1,81.34,28a3.18,3.18,0,0,1,2.32,1.05,3.29,3.29,0,0,1,1,2.41,4.38,4.38,0,0,1-1.63,3c-2.05,1.9-4.27,3.94-6.57,6a2.65,2.65,0,0,0-.79,3.43c1.94,4.7,3.88,9.5,5.76,14.13L83,62a4.39,4.39,0,0,1,.38,2.4L83.19,66,81.8,64.37c-.24-.27-.49-.55-.71-.85q-5-6.63-10-13.28c-1-1.36-1.7-2-2.3-2s-1.41.4-2.7,1.56-2.85,2.59-4.27,3.89c-2.75,2.52-5.54,5.06-8.34,7.5-2,1.74-2.88,3.12-1.72,5.48l1.84,3.74-3-2.87c-1.29-1.22-2.5-1.5-4.88.69l-3.48,3.21a6.07,6.07,0,0,0,4,.83,3,3,0,0,1,3.3,1.45c.6.93,1.27,1.84,2,2.81l.09.12,1,1.36.86,1.19ZM58.63,98.06c-1.68.24-3.41.49-5.15.67l-.31,0-.28-.21a3,3,0,0,1-.71-1.79c0-4.26-.07-7.84,0-11.45a2.34,2.34,0,0,1,1.81-2c3.72-.06,7.5-.06,11.16,0h3.38l1,1.31L60.07,97.85ZM85,84.54A40.55,40.55,0,0,1,68.8,95.71l-2,.8,2.51-4.23c1.64-2.77,3.18-5.38,4.76-8a2.14,2.14,0,0,1,1.63-1c2.26,0,4.56,0,6.78,0h3.64Z"/></g></g></svg>