<svg xmlns="http://www.w3.org/2000/svg" viewBox="0 0 234 151"><defs><style>.cls-1{fill:none;}.cls-2{fill:#222;}</style></defs><title>icon-heart</title><g id="Layer_2" data-name="Layer 2"><g id="Layer_1-2" data-name="Layer 1"><rect class="cls-1" width="234" height="151"/><rect class="cls-1" width="234" height="151"/><path class="cls-2" d="M116.93,23.82c1.24-2.4,2.19-4.6,3.44-6.6,5.61-9,14.13-13.63,24.19-15.73a44.85,44.85,0,0,1,49.77,24.14,44.13,44.13,0,0,1,4.38,18.78,67.42,67.42,0,0,1-4,23.85H176.15c-5.26,0-10.52.07-15.78,0a7.15,7.15,0,0,0-7.05,4c-.61,1.12-1.31,2.19-2.13,3.55-.43-1.13-.79-2-1.1-2.9q-3.89-11.35-7.75-22.71c-1.17-3.42-3.3-5.23-6.24-5.3S131,46.59,129.75,50q-6.94,19.22-13.87,38.43c-.22.61-.46,1.22-.87,2.32-1.62-5.87-3.12-11.24-4.6-16.61q-5-18.11-10-36.22c-.89-3.24-2.83-5.08-5.55-5.32-3.08-.27-5.35,1.1-6.81,4.2q-7,14.93-14,29.88a2.27,2.27,0,0,1-2.45,1.58q-15.32-.09-30.65,0a2,2,0,0,1-2.3-1.63c-2.67-8.49-4.07-17.15-3.19-26A43.44,43.44,0,0,1,50.68,11.38C64.73-1,86.87-3.08,102.85,6.63a31.79,31.79,0,0,1,12.91,14.6C116.1,22,116.46,22.77,116.93,23.82Z"/><path class="cls-2" d="M44.84,80.85H61.5c4.83,0,9.67-.11,14.5,0a7.25,7.25,0,0,0,7.6-4.78c2.55-5.75,5.3-11.41,8-17.11.22-.48.48-1,.92-1.82,1.38,5,2.64,9.6,3.91,14.21l11.34,41.16c1,3.52,3.13,5.45,6.19,5.55,2.9.09,5.19-1.7,6.41-5.07L134.92,72.7c.24-.67.52-1.33.9-2.33,2.6,7.53,5.08,14.67,7.52,21.83a6.81,6.81,0,0,0,3.59,4.4,6.21,6.21,0,0,0,8.21-2.71c2.38-3.92,4.66-7.9,7.06-11.8A2.65,2.65,0,0,1,164,80.9c8.14-.07,16.28,0,24.42,0a5.15,5.15,0,0,1,.76.16c-.32.64-.58,1.22-.87,1.78-5.43,10.31-12.57,19.38-20.33,28a213,213,0,0,1-35,31.76c-3.28,2.33-6.85,4.24-10.33,6.27a10.24,10.24,0,0,1-11.15,0c-5.55-3.44-11.23-6.75-16.35-10.76A210.78,210.78,0,0,1,52.51,93.85c-2.61-3.68-4.74-7.69-7.08-11.56A12.26,12.26,0,0,1,44.84,80.85Z"/></g></g></svg>