<svg xmlns="http://www.w3.org/2000/svg" viewBox="0 0 30.64 38.41"><defs><style>.cls-1{fill:#222;}</style></defs><title>icon-storage</title><g id="Layer_2" data-name="Layer 2"><g id="Layer_1-2" data-name="Layer 1"><path class="cls-1" d="M0,19.22V4.35A4.79,4.79,0,0,1,4.3,0c7.3,0,14.61,0,21.92,0a3.61,3.61,0,0,1,2.5,1,5.3,5.3,0,0,1,1.92,4.6c-.09,9.41,0,18.83,0,28.24a4.69,4.69,0,0,1-4.55,4.58H4.47A4.72,4.72,0,0,1,0,33.92Zm1.68-.17q0,7.27,0,14.54a3,3,0,0,0,3.18,3.15H25.81a3,3,0,0,0,3.1-3.07q0-14.46,0-28.91a3,3,0,0,0-3.1-3.07q-10.47,0-20.93,0A3,3,0,0,0,1.69,4.84Q1.67,12,1.68,19.05Z"/><path class="cls-1" d="M5.74,19.75C4.1,13.62,5.31,9.35,9.48,6.58a10.7,10.7,0,0,1,11.87.16c3.16,2.31,5.84,6.69,3.47,13,1.77.59,1.77.59,1.77,2.53,0,3.2,0,6.39,0,9.58,0,1.62-.19,1.82-1.81,1.82-5.26,0-10.51,0-15.77-.07-1.1,0-2.2.08-3.3.07-1.49,0-1.69-.23-1.7-1.76Q4,27,4,22.13C4,20.26,4,20.26,5.74,19.75Zm10.8,12.13h8.25V21.69c-.33,0-.54-.06-.76-.07-1.9-.1-2-.33-1.18-2A11.74,11.74,0,0,0,24,15.69,8.59,8.59,0,0,0,15.63,6.5,8.77,8.77,0,0,0,7.8,19.76c.83,1.41.61,1.75-1.07,1.86-.32,0-.63.08-1,.12V31.81c2.51.38,2.51.38,4.05-1.15l5.87-5.84c.24-.23.46-.48.71-.7.48-.41.86-1.2,1.64-.79s.33,1.29.18,1.93c-.42,1.7-.93,3.39-1.38,5.09C16.72,30.81,16.66,31.28,16.54,31.88Zm-.61-4.52-.29-.21-2.29,2.36L11,31.92h3.6C15.08,30.39,15.5,28.88,15.93,27.36Z"/><path class="cls-1" d="M21,15.21a5.65,5.65,0,0,1-11.3,0,5.65,5.65,0,0,1,11.3,0Zm-5.62-3.92a3.94,3.94,0,1,0,3.93,4.05A3.95,3.95,0,0,0,15.33,11.29Z"/></g></g></svg>