<svg xmlns="http://www.w3.org/2000/svg" viewBox="0 0 234 151"><defs><style>.cls-1{fill:none;}.cls-2{fill:#222;}</style></defs><title>icon-playtime</title><g id="Layer_2" data-name="Layer 2"><g id="Layer_1-2" data-name="Layer 1"><rect class="cls-1" width="234" height="151"/><path class="cls-2" d="M118.46.5c2.39.91,4.17,2.35,4.71,5a6.38,6.38,0,0,1-6.39,7.56,58.73,58.73,0,0,0-33.46,9.82C67.09,33.56,57.5,48.59,55,67.84c-4.29,32.87,18.7,63.73,51.32,69.23a62.45,62.45,0,0,0,72.08-50,90.82,90.82,0,0,0,1-11.34c.17-2.65,1.21-4.73,3.66-5.84a6,6,0,0,1,6.81.89,16,16,0,0,1,2.15,3v6.45c-.08.42-.19.84-.25,1.26-.51,3.42-.83,6.88-1.54,10.26-6.08,29.08-30.93,52.87-60.14,57.63-2.78.45-5.59.78-8.38,1.16h-9.38c-.37-.08-.75-.19-1.13-.24-3.47-.51-7-.83-10.4-1.55C71.64,142.58,48,117.83,43.16,88.55,42.7,85.78,42.38,83,42,80.19V70.81c.08-.42.19-.84.25-1.26.51-3.42.83-6.88,1.54-10.26C49.9,30.18,74.72,6.42,103.93,1.66c2.78-.45,5.59-.78,8.38-1.16Z"/><path class="cls-2" d="M110.78,53.62c0-7.32,0-14.65,0-22A6.2,6.2,0,0,1,123,30a9.42,9.42,0,0,1,.26,2.6q0,18.75,0,37.49a2.19,2.19,0,0,0,1.44,2.31q10.11,5,20.14,10.07a6.22,6.22,0,0,1-3.16,11.78,7.42,7.42,0,0,1-2.64-.76q-12.31-6.09-24.6-12.28a6.19,6.19,0,0,1-3.61-6C110.79,68,110.78,60.79,110.78,53.62Z"/><path class="cls-2" d="M180.52,42.93a6.15,6.15,0,0,1,6.24,6.18,6.24,6.24,0,1,1-6.24-6.18Z"/><path class="cls-2" d="M143.13,18.16a6.09,6.09,0,0,1-6-6.36,6.22,6.22,0,0,1,12.44.23A6.14,6.14,0,0,1,143.13,18.16Z"/><path class="cls-2" d="M165.66,33.1a6.23,6.23,0,1,1,6.15-6.26A6.14,6.14,0,0,1,165.66,33.1Z"/></g></g></svg>