<svg xmlns="http://www.w3.org/2000/svg" viewBox="0 0 89.68 87.93"><defs><style>.cls-1{fill:#111;}</style></defs><title>icon-procurement</title><g id="Layer_2" data-name="Layer 2"><g id="Layer_1-2" data-name="Layer 1"><path class="cls-1" d="M89.66,43.44c0,7.42,0,14.84,0,22.26a2,2,0,0,1-1.07,2C77.37,74.3,66.17,81,54.92,87.63a2.62,2.62,0,0,1-2,.19Q27,78.32,1,68.77a1.34,1.34,0,0,1-1-1.51q0-22.61,0-45.2a1.77,1.77,0,0,1,1-1.72C12.28,13.66,23.53,6.94,34.81.28A2.46,2.46,0,0,1,36.67.11q25.86,9.45,51.68,19a1.76,1.76,0,0,1,1.33,2C89.64,28.5,89.66,36,89.66,43.44ZM5.44,25.67c-.07.58-.14.89-.14,1.2q0,18.3,0,36.59A1.51,1.51,0,0,0,6.51,65.1q21.95,8,43.85,16.1c.4.14.82.22,1.32.36,0-.41.06-.63.06-.85,0-12.33,0-24.66,0-37,0-1-.58-1.27-1.33-1.55L10.05,27.32C8.58,26.78,7.09,26.26,5.44,25.67ZM55.69,80.88c.61-.31,1-.48,1.38-.7q13.08-7.79,26.15-15.54a2.18,2.18,0,0,0,1.18-2.19q0-17.61,0-35.22c0-.52-.07-1-.12-1.81-2.83,1.68-5.4,3.3-8.07,4.74-1.43.78-2.26,1.65-2,3.38.14.79-.11,1.66,0,2.45.55,2.81-.62,4.48-3.18,5.54A38.55,38.55,0,0,0,66.74,44V35.94c-.57.29-.93.46-1.28.66-2.81,1.67-5.6,3.39-8.45,5A2.36,2.36,0,0,0,55.66,44c.05,11.78,0,23.57,0,35.35Zm8.7-48.25c-.63-.29-1-.49-1.36-.63q-21.4-7.86-42.82-15.68a3,3,0,0,0-2.25.21c-2.89,1.61-5.72,3.36-8.56,5.07a11.94,11.94,0,0,0-1,.76,9,9,0,0,0,.86.44q21.78,8,43.57,16a1.71,1.71,0,0,0,1.26,0C57.43,36.81,60.77,34.79,64.39,32.63ZM26.48,11.41c.6.3.86.47,1.14.57Q49.28,20,71,27.89a2.18,2.18,0,0,0,1.62-.17C75.31,26.18,78,24.54,80.69,23a7.87,7.87,0,0,1,.83-.39c-4.48-1.94-8.69-3.49-12.91-5q-15.53-5.7-31.06-11.4c-.52-.19-1.26-.46-1.65-.24C32.81,7.61,29.79,9.44,26.48,11.41Z"/><path class="cls-1" d="M45.89,76.66a2.45,2.45,0,0,1-2.34-2.37A2.38,2.38,0,0,1,46,71.92a2.46,2.46,0,0,1,2.3,2.41A2.5,2.5,0,0,1,45.89,76.66Z"/><path class="cls-1" d="M40.84,71.76a2.48,2.48,0,0,1-2.31,2.41,2.4,2.4,0,0,1-2.38-2.3,2.26,2.26,0,0,1,2.19-2.42A2.36,2.36,0,0,1,40.84,71.76Z"/></g></g></svg>