<svg xmlns="http://www.w3.org/2000/svg" viewBox="0 0 45.95 36.3"><defs><style>.cls-1{fill:#222;}</style></defs><title>icon-screen</title><g id="Layer_2" data-name="Layer 2"><g id="Layer_1-2" data-name="Layer 1"><path class="cls-1" d="M29,30.62c-.21.28-.27.32-.27.37-.31,3.12-.19,3.24,3,3.25.77,0,1.55,0,2.32,0a.69.69,0,0,1,.29.13c.33,1.78.28,1.87-1.35,1.88q-10,0-20.09,0c-1.56,0-1.56,0-1.48-2,1.06,0,2.13,0,3.21,0,2.55,0,2.64-.09,2.57-2.58,0-.26,0-.53-.07-.95-.65,0-1.23-.09-1.82-.09-3.71,0-7.42,0-11.12,0a9.54,9.54,0,0,1-2.13-.25A2.66,2.66,0,0,1,0,27.88c0-.39,0-.77,0-1.16Q0,15.41,0,4.1C0,1,1,0,4,0H41.88a7.47,7.47,0,0,1,1.64.15,2.71,2.71,0,0,1,2.36,2.6c.06.6,0,1.21,0,1.81,0,7.44-.07,14.87,0,22.3,0,2.29-1,3.73-3.72,3.74-3.82,0-7.64,0-11.46,0Zm-27-7.94H43.86c0-.51.06-.89.06-1.27,0-5.84,0-11.67,0-17.51,0-1.77-.16-1.92-2-1.92Q23,2,4,2c-1.85,0-2,.16-2,2C2,9.71,2,15.49,2,21.27,2,21.7,2,22.13,2.07,22.68ZM43.8,24.91H2.1c0,.35-.05.57-.06.79C2,28.43,2,28.43,4.69,28.43c12,0,24,0,36.05,0C43.93,28.42,44.06,29.09,43.8,24.91ZM26.64,30.74H19.27c-.06,1.19-.12,2.28-.18,3.42h7.74C26.77,33,26.7,31.89,26.64,30.74Z"/></g></g></svg>