<svg xmlns="http://www.w3.org/2000/svg" viewBox="0 0 234 151"><defs><style>.cls-1{fill:none;}.cls-2{fill:#222;}</style></defs><title>icon-gps</title><g id="Layer_2" data-name="Layer 2"><g id="Layer_1-2" data-name="Layer 1"><rect class="cls-1" width="234" height="151"/><path class="cls-2" d="M57.7,57.89A31.39,31.39,0,0,1,89.09,90.15a33.14,33.14,0,0,1-3.83,13.63c-5.27,10.69-12.6,19.91-20.59,28.65-1.87,2-3.87,4-5.78,6-.74.78-1.39,1-2.26.13-10.21-10.24-19.54-21.15-26.17-34.12-2.43-4.76-4.18-9.76-4.18-15.18A31.41,31.41,0,0,1,57.7,57.89Zm0,43.84A12.38,12.38,0,0,0,70.17,89.25a12.47,12.47,0,1,0-24.93,0A12.37,12.37,0,0,0,57.69,101.73Z"/><path class="cls-2" d="M159.26,24.28c.27-13,10.3-23.12,23.47-23.75,12.23-.6,23.18,8.83,24.8,21.19A24,24,0,0,1,205,35.38C201,44,195.1,51.3,188.73,58.25c-1.38,1.52-2.87,2.93-4.27,4.42-.68.73-1.23.78-2,0-8.15-8.28-15.69-17-20.73-27.63A23.27,23.27,0,0,1,159.26,24.28Zm33.83.56a9.55,9.55,0,0,0-9.57-9.68,9.63,9.63,0,1,0-.09,19.26A9.54,9.54,0,0,0,193.09,24.84Z"/><path class="cls-2" d="M138.77,88.9l-8.64,10.59-6.57-4.22,9.89-12.15Z"/><path class="cls-2" d="M120.36,117.45l-6.76-3.88c2.36-4.33,4.65-8.52,7-12.85l6.74,3.84Z"/><path class="cls-2" d="M107.36,135l-5.26-5.8,8.72-10.51,6.54,4.25Z"/><path class="cls-2" d="M160.54,77.69c-.63-2.35-1.26-4.71-2-7.51l15-2.64c.28,2.79.52,5.3.77,7.78Z"/><path class="cls-2" d="M152.46,71.87c1,2.8,1.83,5.09,2.64,7.36L143,85.41l-4.56-6.36Z"/><path class="cls-2" d="M85.68,138.67l12.13-6.07,4.5,6.4-14,7.08Z"/><path class="cls-2" d="M67.19,150.26l-.8-7.77,13.84-2.3,2,7.53Z"/><path class="cls-2" d="M180.21,67.24h7.86v7.52h-7.52C180.44,72.42,180.33,70,180.21,67.24Z"/><path class="cls-2" d="M60.59,143,61,150.5H53.09V143Z"/></g></g></svg>