<svg xmlns="http://www.w3.org/2000/svg" viewBox="0 0 234 151.47"><defs><style>.cls-1{fill:#222;}.cls-2{fill:none;}</style></defs><title>icon-anc</title><g id="Layer_2" data-name="Layer 2"><g id="Layer_1-2" data-name="Layer 1"><path class="cls-1" d="M125.68,151.47H115V1.47h10.69Z"/><path class="cls-1" d="M79.2,133.57l-7.92-8c13.12-13.7,20.31-30,20.3-49.08S84.62,41,71.3,27.18l7.82-7.52C107.52,45.2,113.79,98.75,79.2,133.57Z"/><path class="cls-1" d="M62.82,117.09l-7.84-8c8.47-9.16,13.33-20,13.3-32.75S63.61,53,55,43.87l8.11-7.73C85.23,55.58,85.37,95.22,62.82,117.09Z"/><path class="cls-1" d="M46.52,100.45l-7.81-7.7C47.5,81.19,47.52,71.37,38.66,60l8-7.52C60,64,60,87.94,46.52,100.45Z"/><path class="cls-1" d="M161.3,66.16h10.84V88.83H161.3Z"/><path class="cls-1" d="M195.34,88.9h-11V66.22h11Z"/><path class="cls-1" d="M148.91,88.91H138.2V66.24h10.71Z"/><rect class="cls-2" width="234" height="151"/></g></g></svg>