<svg xmlns="http://www.w3.org/2000/svg" viewBox="0 0 104.05 104.05"><defs><style>.cls-1{fill:#111;}</style></defs><title>icon-global-sourcing</title><g id="Layer_2" data-name="Layer 2"><g id="Layer_1-2" data-name="Layer 1"><path class="cls-1" d="M52.1,0H52A51.84,51.84,0,0,0,15.21,15.34,51.47,51.47,0,0,0,0,52.06a52.14,52.14,0,0,0,52,52h.06A52,52,0,0,0,88.71,15.23,51.5,51.5,0,0,0,52.1,0ZM68.79,8.13a46.19,46.19,0,0,1,15.75,10.1l.44.43H80c-1.6,0-3.08,0-4.59,0a1.73,1.73,0,0,1-1.19-.78c-1.45-2.3-2.88-4.64-4.4-7.13L68.08,7.85Zm6.92,36.41c2,4.71,3.89,9.5,5.77,14.14l1.6,4a4,4,0,0,1,.35,2.14l-.08.54L83,64.9l-.32-.36c-.23-.26-.47-.53-.68-.82q-5-6.63-10-13.28c-1.12-1.5-1.89-2.14-2.66-2.21s-1.66.41-3.07,1.68S63.44,52.5,62,53.8c-2.71,2.48-5.51,5-8.33,7.49-2.09,1.81-3.13,3.46-1.84,6.08l.61,1.25-1-1c-1.71-1.62-3.27-1.43-5.56.68l-1.32,1.21L45.51,68c2.08-3.39,2.09-3.61.37-5.83l-.42-.54.67.14.67.13a7.7,7.7,0,0,1,1.19.28,2.69,2.69,0,0,0,3.08-.82L54,58.17c3.48-3.81,7.08-7.75,10.58-11.67a2.84,2.84,0,0,0,.9-2.13A3.37,3.37,0,0,0,64,42.18L55,35.48l-4.22-3.16a6.44,6.44,0,0,1-1.93-2l-.31-.57.61.21.55.18c.39.12.8.25,1.19.41L68.51,37.7c2.67,1.09,3.14,1,5-1.09.83-.9,1.65-1.81,2.47-2.72,1-1.14,2.07-2.29,3.12-3.42A3.86,3.86,0,0,1,81.84,29a2.72,2.72,0,0,1,2,.9,2.81,2.81,0,0,1,.87,2A3.87,3.87,0,0,1,83.2,34.6c-1.93,1.79-4.23,3.9-6.56,5.95A3.14,3.14,0,0,0,75.71,44.54Zm-22.19-39a1.65,1.65,0,0,1,1.25-.4h.06c2.66,0,5.37.43,7.17,3.43,1.32,2.19,2.84,4.3,4.45,6.52.74,1,1.5,2.07,2.28,3.18l.28.4h-6.2c-2.9,0-5.7,0-8.47-.06-.51,0-1.13-1-1.14-1.46-.05-2.26-.06-4.56-.06-6.78,0-1.19,0-2.37,0-3.55A1.71,1.71,0,0,1,53.52,5.53ZM37.32,15.4C39,13,41,10.17,43,7.43c1.5-2,1.81-2.09,4.7-2H48v.24c0,.75,0,1.51,0,2.27,0,1.77,0,3.61,0,5.41,0,.41,0,.84,0,1.3.06,1.39.13,2.81-.58,3.6a2.65,2.65,0,0,1-2,.56c-.44,0-.92,0-1.38-.07s-1-.07-1.43-.06c-1.48,0-3,0-4.55,0h-2.7l.23-.38.61-1.07C36.6,16.55,36.93,16,37.32,15.4ZM20.15,18c3.81-4,8.57-7.07,15-9.78l.72-.3L34,11c-1.42,2.32-2.75,4.51-4.1,6.65a2.12,2.12,0,0,1-1.46,1l-2.48,0c-2,0-3.83-.07-5.64-.22l-.53,0ZM5.29,48.66c.06-.56.11-1.08.15-1.58.1-1,.18-2,.35-3a48,48,0,0,1,7.52-18.56,3.13,3.13,0,0,1,3-1.64c2.25.1,4.47.08,6.82.06l2.92,0h.35l-.11.34c-.37,1.06-.76,2.1-1.15,3.14a62.69,62.69,0,0,0-2.26,6.83c-.65,2.67-1.13,5.43-1.59,8.1-.28,1.6-.57,3.26-.89,4.88-.11.55-.75,1.61-1.32,1.63-2.57.06-5.13.07-7.77.07H5.26ZM14.52,79c-.81,0-1.6-1.18-1.68-1.31A47.13,47.13,0,0,1,5.32,56.47a2.29,2.29,0,0,1,.36-1.89,2.32,2.32,0,0,1,1.86-.5c3,.09,6,0,8.93,0l2.12,0c.83,0,1.76.09,1.82,1.49A67.36,67.36,0,0,0,25.7,78.09a1.29,1.29,0,0,1,.08.45c0,.08,0,.17,0,.27l0,.28H20.27C18.36,79.1,16.43,79.08,14.52,79ZM34.61,95.54A39.42,39.42,0,0,1,19.08,84.7l-.35-.41h2.54c2.1,0,4.27,0,6.41,0a1.66,1.66,0,0,1,1.26.65c1.53,2.55,3,5.15,4.63,7.91l1.72,2.95Zm13.32.27v2.81l-.23,0-.81,0a4.91,4.91,0,0,1-4.54-2.41c-1.45-2.26-3-4.52-4.48-6.7L35.58,86.2a8.38,8.38,0,0,1-.48-.91l-.31-.63-.18-.36h2.88c3.21,0,6.24,0,9.29,0a1.46,1.46,0,0,1,1.11,1.12C47.94,88.9,47.94,92.25,47.93,95.81Zm-.82-16.63H40.6c-2.37,0-4.78,0-7.15,0a2.71,2.71,0,0,1-2.1-1.1,60.43,60.43,0,0,1-5.82-22.26,5.11,5.11,0,0,1,0-1,.75.75,0,0,1,.14-.34c0-.07.08-.15.14-.26l.07-.13H47.59V49H25.39l0-.29c.11-.8.18-1.59.25-2.36a25.64,25.64,0,0,1,.75-4.74C27.58,37.71,28.9,33.8,30.18,30c.53-1.56,1.06-3.12,1.57-4.69a2.13,2.13,0,0,1,2.3-1.57h0q15.12,0,30.23,0H76.51a9.73,9.73,0,0,1,1,.06l.32,0,.53,0-.36.38-1.92,2c-1.53,1.6-3.12,3.25-4.61,4.93A2.44,2.44,0,0,1,68.2,32c-5.74-2.45-11.6-4.82-17.42-7.07a5.62,5.62,0,0,0-3.17,0,23.5,23.5,0,0,0-3.24,1.14c-.52.21-1,.42-1.58.61-1.37.51-2.32,1.13-2.5,2.54s.5,2.06,1.7,3q7,5.27,14,10.54l1,.78c.33.24.66.5,1,.79l.74.59-.15.19-.33.46a10.75,10.75,0,0,1-.7.9l-2.75,3c-1.75,1.91-3.55,3.89-5.28,5.87-.8.92-1.84,1.75-3.48,1a3.26,3.26,0,0,0-.73-.2,4.27,4.27,0,0,1-.86-.26c-3.12-1.48-5.91-.08-8.38,1.16A2.57,2.57,0,0,0,34.7,58.9a2.72,2.72,0,0,0,.86,2.37,13.55,13.55,0,0,0,1.78,1.4l.49.35c1.6,1.12,3,2.08,2.55,4.9a4.28,4.28,0,0,0,1.19,3.68,6.27,6.27,0,0,0,5.28,1.65,2.52,2.52,0,0,1,2.82,1.22c.6.94,1.25,1.82,2,2.84.35.46.71,1,1.08,1.48l.29.39Zm12,18.88c-1.68.24-3.42.49-5.13.67h-.11l-.13-.09a2.67,2.67,0,0,1-.51-1.4c0-4.25-.07-7.82,0-11.43,0-.54.76-1.47,1.32-1.48,3.75-.06,7.57-.06,11.27,0h3l.62.82L60.28,97.89ZM85.13,84.71a40,40,0,0,1-16,11l-.68.26,1.77-3c1.63-2.76,3.18-5.38,4.75-8a1.7,1.7,0,0,1,1.21-.73c2.26,0,4.56,0,6.77,0h2.55Zm6-58.63A47.18,47.18,0,0,1,98.72,46.6a10.88,10.88,0,0,1,.06,1.14,3.06,3.06,0,0,1-.06.56c0,.12,0,.26-.07.43l0,.21H98.4l-2.18,0c-1.69,0-3.45,0-5.17-.05a1.74,1.74,0,0,0-1.35.31,1.66,1.66,0,0,0-.26,1.3c.07.8,0,1.61,0,2.46,0,.33,0,.67,0,1h9.71l0,.29c-.16,1-.31,2-.45,3-.31,2.07-.6,4-1,6a42.84,42.84,0,0,1-6.36,14.54,3.15,3.15,0,0,1-2.18,1.37c-5.51,0-11.08,0-16.6,0h-15a4.24,4.24,0,0,1-.68-.07L56.42,79l-.33,0,.13-.3c.14-.34.27-.68.4-1a17.66,17.66,0,0,1,.89-2.07,6.57,6.57,0,0,0,.33-6.16c-1.23-2.68-.69-4.64,1.82-6.56a78.89,78.89,0,0,0,6.17-5.43c.89-.84,1.8-1.69,2.73-2.53l.2-.18L71,57.66l5.84,7.75c.53.7,1.06,1.41,1.58,2.12,1.07,1.44,2.18,2.93,3.31,4.36a3.2,3.2,0,0,0,2.73,1.53c1-.1,1.92-1,2.62-2.4,2.23-4.59,2.23-8.51,0-12.69a71.28,71.28,0,0,1-3.42-7.95c-.61-1.59-1.24-3.23-1.93-4.82-.54-1.25-.62-2.23.7-3.27,1-.81,2-1.73,2.92-2.61l.9-.84c2.55-2.36,3.81-4.91,3.66-7.39s-1.72-4.84-4.51-6.85L85,24.31l.48-.15C88.47,23.2,89.49,23.54,91.17,26.08Z"/></g></g></svg>