<svg xmlns="http://www.w3.org/2000/svg" viewBox="0 0 234 151"><defs><style>.cls-1{fill:none;}.cls-2{fill:#222;}</style></defs><title>icon-wifi</title><g id="Layer_2" data-name="Layer 2"><g id="Layer_1-2" data-name="Layer 1"><rect class="cls-1" width="234" height="151"/><path class="cls-2" d="M119.78.5c32.06.47,62.11,12.66,87.1,37.09a12.26,12.26,0,0,1,.44,17.5c-4.82,5-12.48,4.95-17.64-.11C173.3,38.89,153.81,28.86,131,26,98,21.85,69.17,31.35,45,54.37c-3.76,3.58-7.87,5.37-13,3.88a12.18,12.18,0,0,1-5.07-20.46,121.22,121.22,0,0,1,20-16.33C68.18,7.52,91.57.67,119.78.5Z"/><path class="cls-2" d="M117.42,58.15c18.71.34,35.13,7,48.76,20.3A12.23,12.23,0,1,1,149.11,96c-18.64-17.83-45.48-17.82-64.24,0a12.23,12.23,0,1,1-17-17.54C81.53,65.07,98,58.43,117.42,58.15Z"/><path class="cls-2" d="M117,150.5a18.34,18.34,0,1,1,18.37-18.29A18.3,18.3,0,0,1,117,150.5Z"/></g></g></svg>