<svg xmlns="http://www.w3.org/2000/svg" viewBox="0 0 234 151"><defs><style>.cls-1{fill:none;}</style></defs><title>icon-phone</title><g id="Layer_2" data-name="Layer 2"><g id="Layer_1-2" data-name="Layer 1"><rect class="cls-1" width="234" height="151"/><path d="M77.72,12.64c.36-1,.66-2,1.1-2.88C81.62,3.92,86.14.56,92.73.54q24.19-.09,48.39,0a14.9,14.9,0,0,1,15.15,15.23q0,48,0,96c0,7.76,0,15.52,0,23.27,0,7.51-4.16,13-11.42,15.1a3.34,3.34,0,0,0-.6.35H89.92a18.45,18.45,0,0,1-8-4.55,19,19,0,0,1-4.16-7.65ZM85,31v87.28h64V31Zm-.14,94.64c0,3.37,0,6.51,0,9.64,0,5.76,2.43,8.16,8.24,8.16h47.65a17,17,0,0,0,2.94-.22c2.9-.48,5.05-2.3,5.24-5.16.28-4.09.07-8.2.07-12.41Zm.09-102h64.17c0-2.75,0-5.38,0-8,0-5.58-2.28-7.87-7.82-7.88q-14.4,0-28.8,0c-6.84,0-13.67,0-20.5,0-4.19,0-6.67,2.07-7,6C84.7,17,84.92,20.27,84.92,23.63Z"/><path d="M111.66,134.39a5.35,5.35,0,0,1,5.23-5.32,5.36,5.36,0,1,1,.11,10.71A5.31,5.31,0,0,1,111.66,134.39Z"/></g></g></svg>