<svg xmlns="http://www.w3.org/2000/svg" viewBox="0 0 193.32 98.65"><defs><style>.cls-1{fill:#1d4a82;}.cls-2{fill:#fff;}.cls-3{fill:#3e7098;}.cls-4{fill:#01c7ff;}</style></defs><title>intel-rect</title><g id="Layer_2" data-name="Layer 2"><g id="Layer_1-2" data-name="Layer 1"><rect class="cls-1" width="193.32" height="98.65"/><path class="cls-2" d="M139.23,59.11H114.8c.07.26.11.46.18.65a8,8,0,0,0,7.31,5.56,11,11,0,0,0,9-3.22,1.86,1.86,0,0,1,.23-.18l5.88,4.46a17.6,17.6,0,0,1-3.84,3.34,18.26,18.26,0,0,1-20.33-.54,15.12,15.12,0,0,1-6-10.18A15.89,15.89,0,0,1,110,46.81a15.61,15.61,0,0,1,10.57-6.54,16,16,0,0,1,12.16,2.64,15.31,15.31,0,0,1,6.49,11.24A45.4,45.4,0,0,1,139.23,59.11Zm-24.39-5.82h16.6c0-.25,0-.45-.08-.64a6.17,6.17,0,0,0-2-3.35,9.29,9.29,0,0,0-8.24-2,7.84,7.84,0,0,0-5.32,3.34A5,5,0,0,0,114.84,53.29Z"/><path class="cls-2" d="M86,71.79H77.61v-.71c0-5.23,0-10.46,0-15.69a10.84,10.84,0,0,0-.87-4.63,5.88,5.88,0,0,0-4.09-3.37,7.34,7.34,0,0,0-8.47,3.39A10.57,10.57,0,0,0,63,55.9c0,5.09,0,10.18,0,15.27v.68H54.88V40.69H63V45.1l.44-.5A11.59,11.59,0,0,1,72.85,40a13.22,13.22,0,0,1,7.92,2.2,11.73,11.73,0,0,1,4.78,7.88,24.56,24.56,0,0,1,.39,4.19c0,5.65,0,11.3,0,17Z"/><path class="cls-2" d="M104.64,64.61v7.57c-.29,0-.56,0-.83,0a26.15,26.15,0,0,1-6.17-.6A8.17,8.17,0,0,1,91,64.68a34.32,34.32,0,0,1-.56-6c-.06-9.89,0-19.79,0-29.69,0-.14,0-.28,0-.47h8.19V40.62h6v7.09h-6v.65c0,3.62,0,7.24,0,10.86a16.73,16.73,0,0,0,.25,2.64,2.73,2.73,0,0,0,2.37,2.4C102.38,64.44,103.49,64.5,104.64,64.61Z"/><path class="cls-2" d="M151.8,71.86h-8.15V26.1h8.15Z"/><path class="cls-2" d="M41.81,71.84V40.71H50V71.84Z"/><path class="cls-3" d="M41.64,35.33a1.69,1.69,0,0,1-.12-.36v-7.9c0-.09,0-.19,0-.32h8.65v8.57c-.07,0-.1.06-.14.06H41.75s-.07,0-.11-.06h8.45c0-2.69,0-5.27,0-7.84,0-.49-.34-.61-.78-.61-2.27,0-4.55,0-6.82,0-.72,0-.84.13-.85.85Z"/><path class="cls-4" d="M41.64,35.33v-7.6c0-.72.13-.85.85-.85,2.27,0,4.55,0,6.82,0,.44,0,.78.12.78.61,0,2.57,0,5.15,0,7.84Z"/></g></g></svg>