<svg xmlns="http://www.w3.org/2000/svg" viewBox="0 0 110.28 46.45"><defs><style>.cls-1{fill:#020202;}.cls-2{fill:#040404;}.cls-3{fill:#3e7098;}.cls-4{fill:#0168b6;}</style></defs><title>intel</title><g id="Layer_2" data-name="Layer 2"><g id="Layer_1-2" data-name="Layer 1"><path class="cls-1" d="M97.71,33H73.28c.07.26.11.46.18.66a8,8,0,0,0,7.31,5.55,10.93,10.93,0,0,0,9-3.22l.23-.18,5.88,4.46A17.65,17.65,0,0,1,92,43.63a18.26,18.26,0,0,1-20.33-.54,15.15,15.15,0,0,1-6-10.19,15.89,15.89,0,0,1,2.79-12.19A15.6,15.6,0,0,1,79,14.18a15.9,15.9,0,0,1,12.16,2.64,15.27,15.27,0,0,1,6.49,11.23A45.43,45.43,0,0,1,97.71,33ZM73.32,27.19h16.6c0-.24,0-.44-.08-.63a6.16,6.16,0,0,0-2-3.36,9.31,9.31,0,0,0-8.24-2.05,7.87,7.87,0,0,0-5.32,3.34A5,5,0,0,0,73.32,27.19Z"/><path class="cls-1" d="M44.44,45.7H36.09V45c0-5.23,0-10.46,0-15.69a10.9,10.9,0,0,0-.88-4.64,5.86,5.86,0,0,0-4.09-3.36,7.33,7.33,0,0,0-8.47,3.38,10.57,10.57,0,0,0-1.13,5.12c0,5.09,0,10.18,0,15.27v.68H13.36V14.6h8.07V19l.44-.5a11.61,11.61,0,0,1,9.46-4.57,13.14,13.14,0,0,1,7.92,2.19A11.8,11.8,0,0,1,44,24a25.7,25.7,0,0,1,.38,4.19c0,5.66,0,11.31,0,17Z"/><path class="cls-1" d="M63.12,38.51v7.57h-.83a26,26,0,0,1-6.16-.59,8.18,8.18,0,0,1-6.64-6.9,34.41,34.41,0,0,1-.56-6c-.06-9.9,0-19.8,0-29.69,0-.14,0-.28,0-.48h8.19v12.1h6v7.08h-6v.66c0,3.62,0,7.24,0,10.86a16.5,16.5,0,0,0,.25,2.63,2.75,2.75,0,0,0,2.37,2.41C60.86,38.35,62,38.4,63.12,38.51Z"/><path class="cls-1" d="M110.28,45.76h-8.14V0h8.14Z"/><path class="cls-2" d="M.29,45.74V14.61H8.5V45.74Z"/><path class="cls-3" d="M.12,9.24A1.24,1.24,0,0,1,0,8.88q0-4,0-7.9c0-.1,0-.2,0-.32H8.69V9.22c-.07,0-.1.06-.14.06H.23s-.07,0-.11,0H8.57c0-2.7,0-5.27,0-7.85,0-.49-.34-.61-.78-.61H1C.26.79.13.91.13,1.63.12,4.17.12,6.7.12,9.24Z"/><path class="cls-4" d="M.12,9.24c0-2.54,0-5.07,0-7.61C.13.91.26.79,1,.79H7.79c.44,0,.78.12.78.61,0,2.58,0,5.15,0,7.85Z"/></g></g></svg>