<svg xmlns="http://www.w3.org/2000/svg" viewBox="0 0 193.32 193.32"><defs><style>.cls-1{fill:#1d4a82;}.cls-2{fill:#fff;}.cls-3{fill:#3e7098;}.cls-4{fill:#01c7ff;}</style></defs><title>intel-circle</title><g id="Layer_2" data-name="Layer 2"><g id="Layer_1-2" data-name="Layer 1"><circle class="cls-1" cx="96.66" cy="96.66" r="96.66"/><path class="cls-2" d="M139.23,106.44H114.8c.07.26.11.47.18.66a8,8,0,0,0,7.31,5.55,10.92,10.92,0,0,0,9-3.21,1.86,1.86,0,0,1,.23-.18l5.88,4.46a17.87,17.87,0,0,1-3.84,3.34,18.26,18.26,0,0,1-20.33-.54,15.12,15.12,0,0,1-6-10.18A15.87,15.87,0,0,1,110,94.15a15.61,15.61,0,0,1,10.57-6.54,16,16,0,0,1,12.16,2.64,15.31,15.31,0,0,1,6.49,11.23A45.43,45.43,0,0,1,139.23,106.44Zm-24.39-5.81h16.6c0-.25,0-.45-.08-.64a6.23,6.23,0,0,0-2-3.36,9.32,9.32,0,0,0-8.24-2,7.87,7.87,0,0,0-5.32,3.34A5.08,5.08,0,0,0,114.84,100.63Z"/><path class="cls-2" d="M86,119.13H77.61v-.71c0-5.23,0-10.46,0-15.69a10.84,10.84,0,0,0-.87-4.63,5.88,5.88,0,0,0-4.09-3.37,7.34,7.34,0,0,0-8.47,3.39A10.57,10.57,0,0,0,63,103.24c0,5.09,0,10.18,0,15.27v.68H54.88V88H63v4.4l.44-.49a11.59,11.59,0,0,1,9.46-4.58,13.15,13.15,0,0,1,7.92,2.2,11.73,11.73,0,0,1,4.78,7.88,24.46,24.46,0,0,1,.39,4.19c0,5.65,0,11.3,0,17Z"/><path class="cls-2" d="M104.64,112v7.56h-.83a26.14,26.14,0,0,1-6.17-.59A8.17,8.17,0,0,1,91,112a34.32,34.32,0,0,1-.56-6c-.06-9.9,0-19.79,0-29.69,0-.14,0-.28,0-.48h8.19V88h6v7.09h-6v.65c0,3.62,0,7.24,0,10.86a16.73,16.73,0,0,0,.25,2.64,2.73,2.73,0,0,0,2.37,2.4C102.38,111.78,103.49,111.83,104.64,112Z"/><path class="cls-2" d="M151.8,119.2h-8.15V73.43h8.15Z"/><path class="cls-2" d="M41.81,119.18V88H50v31.14Z"/><path class="cls-3" d="M41.64,82.67a1.69,1.69,0,0,1-.12-.36v-7.9c0-.09,0-.19,0-.32h8.65v8.56c-.07,0-.1.07-.14.07-2.78,0-5.55,0-8.32,0,0,0-.07,0-.11,0h8.45c0-2.69,0-5.27,0-7.84,0-.5-.34-.62-.78-.61H42.49c-.72,0-.84.13-.85.85Z"/><path class="cls-4" d="M41.64,82.67v-7.6c0-.72.13-.85.85-.85h6.82c.44,0,.78.11.78.61,0,2.57,0,5.15,0,7.84Z"/></g></g></svg>