<svg xmlns="http://www.w3.org/2000/svg" viewBox="0 0 256.67 131.12"><defs><style>.cls-1{fill:#fff;}.cls-2{fill:#010101;}</style></defs><title>koti</title><g id="Layer_2" data-name="Layer 2"><g id="Layer_1-2" data-name="Layer 1"><path class="cls-1" d="M0,4.19A4.33,4.33,0,0,1,4.19,0H11a4.34,4.34,0,0,1,4.19,4.19V74.26L52.67,43.41c1.76-1.54,3.53-2.64,5.29-2.64h11.9c3.74,0,3.52,4.18,2,5.51L30,79.77l48.7,43.64c1.77,1.54,1.54,5.51-2.2,5.51H64.35a7.42,7.42,0,0,1-4.41-1.77L15.21,84.62v40.11A4.35,4.35,0,0,1,11,128.92H4.19A4.34,4.34,0,0,1,0,124.73Z"/><path class="cls-1" d="M116.37,38.56c24.46,0,43.85,21.16,43.85,46.06,0,25.34-19.39,46.5-43.85,46.5S72.51,110,72.51,84.62C72.51,59.72,91.91,38.56,116.37,38.56Zm0,78.24c16.08,0,28.65-14.33,28.65-32.18,0-17.41-12.57-31.51-28.65-31.51S87.72,67.21,87.72,84.62C87.72,102.47,100.28,116.8,116.37,116.8Z"/><path class="cls-1" d="M174.1,54H162.87a4.18,4.18,0,0,1-4.19-4.19V45a4,4,0,0,1,4.19-4.18H174.1V4.63A4.34,4.34,0,0,1,178.29.44L185.34,0a4.14,4.14,0,0,1,4,4.19V40.77h25.56A4,4,0,0,1,219.06,45V49.8A4.18,4.18,0,0,1,214.87,54H189.31v51.57c0,8.81,2.2,10.57,7.27,10.57,5.51,0,13.22-3.3,16.09-4.84,3.31-1.77,4.19-.44,5.29,1.32l3.3,5.51c1.55,2.64.88,4-1.54,5.51-3.08,2-15,7.49-25.34,7.49-17.63,0-20.28-10.58-20.28-24.24Z"/><path class="cls-1" d="M234.12,45a4.33,4.33,0,0,1,4.19-4.18h6.83A4.34,4.34,0,0,1,249.33,45v79.78a4.35,4.35,0,0,1-4.19,4.19h-6.83a4.34,4.34,0,0,1-4.19-4.19Z"/><path class="cls-2" d="M226.34,15.32a15.17,15.17,0,1,1,30.33,0,15.17,15.17,0,0,1-30.33,0Z"/></g></g></svg>