<svg xmlns="http://www.w3.org/2000/svg" viewBox="0 0 200.32 49.98"><defs><style>.cls-1{fill:#f79b1e;}</style></defs><title>mediatek</title><g id="Layer_2" data-name="Layer 2"><g id="Layer_1-2" data-name="Layer 1"><path class="cls-1" d="M114.8,0h81.07c.63,0,1.25,0,1.87,0,2.3.14,3.18,1.59,2.14,3.66-.74,1.47-1.64,2.86-2.48,4.28q-11,18.57-21.92,37.14A9.14,9.14,0,0,1,167,50Q85.52,50,4,50H3C.22,49.86-.76,48.26.62,45.86c2.71-4.71,5.5-9.37,8.27-14C14.24,22.75,19.62,13.71,25,4.63A8.77,8.77,0,0,1,33.11,0Q74,0,114.8,0ZM46.65,23.86l.58.09v8.5h4.46V16.35a17.38,17.38,0,0,1-2.62,0c-2-.33-3.2.43-4.06,2.25s-2,3.48-3,5.21l-.43-.15V16.45a19.14,19.14,0,0,1-2-.11c-2.42-.41-3.87.48-5,2.74-2,3.93-4.38,7.64-6.58,11.46-.35.6-.63,1.24-.93,1.83,3.21.94,5-.16,6.25-2.93a60.53,60.53,0,0,1,3.41-5.93l.41.15v8.77c4.37.54,4.37.54,6.32-2.89ZM72.8,32.68c2.87,0,5.56.07,8.23,0,5.81-.18,8.15-2.62,8-8.38-.08-3-.49-6-3.77-7.15-4.05-1.47-8.26-.64-12.46-.73ZM108,22l.46.07V32.52H113v-16c-6.11-.8-6.11-.8-9,4.07l-.43.71c-2.12,3.66-4.23,7.33-6.39,11.07,4.39.64,4.39.64,6.38-2.8ZM136.2,29.2c0-2.51,0-4.71,0-6.9a2.24,2.24,0,0,1,2.6-2.48c1.31,0,2.62,0,3.94,0,3,0,3.12-.13,4.1-3.34-3.41,0-6.77-.1-10.13,0-3.06.12-4.8,1.65-5,4.71-.24,3.74-.06,7.51-.06,11.47h11.64c2.75,0,3.2-.39,3.91-3.49ZM70,29.21H58.92c0-2.57,0-4.89,0-7.22a2,2,0,0,1,2.23-2.15c1.59,0,3.18,0,4.77,0,2.31,0,3.09-.77,3.34-3.3-3.46,0-6.91-.11-10.35,0-2.48.12-4.26,1.58-4.4,3.9-.23,4-.06,8-.06,12.23h11C68.74,32.69,68.74,32.69,70,29.21Zm55.1,3.33V19.84c2.86.36,5.35.25,5.84-3.41h-11.3c-3.22,0-3.22,0-4.47,3.49h5.6V32.54Zm-33.63,0H96v-16H91.49Zm57.88-16.06v16h4.37v-16Zm15.62.22c-4.07-.8-4-.5-6.13,2.31-2.92,3.8-3.06,7.07-.08,10.93,2.21,2.87,2.21,3.24,6.15,2.37-1.12-2-2.06-3.93-3.32-5.69-1.12-1.55-1-2.77,0-4.25C162.85,20.59,163.82,18.68,165,16.67ZM60.23,25.91c1.88,0,3.46-.13,5,0,2.12.23,3.12-.73,3.69-3.2C66,24.35,62.15,21,60.23,25.91Zm77.23,0a45.82,45.82,0,0,1,4.87,0c2.12.25,3.23-.61,3.69-3C143.2,24.22,139.34,21.06,137.46,25.91Z"/><path class="cls-1" d="M77.32,29.2V19.83c2.26.23,5.1-1,6.22,1.41a8.57,8.57,0,0,1,0,6.43C82.42,30.07,79.6,29.09,77.32,29.2Z"/></g></g></svg>