<svg xmlns="http://www.w3.org/2000/svg" viewBox="0 0 358.65 77.91"><defs><style>.cls-1{fill:#db4017;}.cls-2{fill:#dc431c;}.cls-3{fill:#dc4018;}.cls-4{fill:#dc4119;}.cls-5{fill:#db3f17;}.cls-6{fill:#dc421a;}</style></defs><title>office-vertical</title><g id="Layer_2" data-name="Layer 2"><g id="Layer_1-2" data-name="Layer 1"><path class="cls-1" d="M.92,62.47a4.65,4.65,0,0,1-.86-.63c-.12-.14,0-.45,0-.69Q0,39,0,16.89a1.63,1.63,0,0,1,1.23-1.84C14.5,10.13,27.73,5.15,41,.25A5,5,0,0,1,43.84.17c6.95,1.92,13.88,3.94,20.82,5.91.81.23,1.21.55,1.21,1.51q0,31.68,0,63.37c0,.23,0,.46,0,.79L53.63,75.13c-3.25.9-6.49,1.85-9.77,2.63a5.39,5.39,0,0,1-3-.13q-19.55-7.08-39-14.29c-.07,0-.1-.14-.14-.21a18.36,18.36,0,0,1,2.1,0c4.47.58,8.93,1.19,13.39,1.8l25,3.43V12.2a8.3,8.3,0,0,0-1,.12c-8.43,2-16.86,4.05-25.3,6-1.16.27-1.45.73-1.44,1.87,0,11.75,0,23.51.05,35.26a1.87,1.87,0,0,1-1.41,2.13C9.05,59.12,5,60.83.92,62.47Z"/><path class="cls-2" d="M167.58,33.5V62.42h-5.46V33.67H149V62.43h-5.48V33.61h-5.63V29h5.59c0-2,0-3.78,0-5.59,0-3.93,1.35-7.29,4.68-9.57a11.1,11.1,0,0,1,9.17-1.39,1.24,1.24,0,0,1,.76.9c.09,1.29,0,2.6,0,3.9a28.53,28.53,0,0,0-3.41-.54,5,5,0,0,0-5.61,4.72,22.18,22.18,0,0,0-.14,2.94c0,1.45,0,2.89,0,4.41h13.11c0-1.69-.14-3.41,0-5.11a19,19,0,0,1,1.06-5.45c2.37-5.54,7.93-6.95,12.77-5.77a1.25,1.25,0,0,1,.76.91c.08,1.29,0,2.6,0,3.9a26.6,26.6,0,0,0-3.42-.55,5,5,0,0,0-5.62,4.85c-.15,1.35-.1,2.71-.12,4.07,0,1,0,2.05,0,3.22h7.73V33.5Z"/><path class="cls-3" d="M134.33,37.75A34.64,34.64,0,0,1,132.24,50c-4.36,11-14.37,14.23-23.31,13.23-12.41-1.4-18.52-10.72-19.29-21.31a30.66,30.66,0,0,1,1.52-12.6c3.72-10.61,12.43-15,22.36-14.59,10.78.41,18.66,7.62,20.32,18.3C134.12,34.87,134.23,36.74,134.33,37.75ZM95.42,39.18l-.42.08a73.86,73.86,0,0,0,2,8.68c2.49,7,8.22,10.62,15.8,10.4,7.07-.21,12.48-4.33,14.57-11.32a27.48,27.48,0,0,0-.31-17c-4.44-13.12-20.79-12.55-26.83-5.17A21.36,21.36,0,0,0,95.42,39.18Z"/><path class="cls-3" d="M302.61,39.36c.41-.61.79-1.24,1.22-1.82a10.29,10.29,0,0,1,6.9-4.21c10.83-1.59,16.84,6.16,16,15.89a15,15,0,0,1-6.43,11.66,14.11,14.11,0,0,1-20.51-4.73,24.65,24.65,0,0,1-2.9-10.46c-.53-6.85,0-13.58,3-19.9,2.68-5.75,6.85-9.83,13.37-10.86a21,21,0,0,1,9.47.67c.76.23,1.19.54,1.12,1.44-.09,1.26,0,2.52,0,3.81-1.86-.47-3.63-1.05-5.44-1.35-5.33-.88-9.46,1.1-12.39,5.58C303.2,29.39,302.47,34.26,302.61,39.36Zm19,9-.28-.12c-.13-1-.2-2-.41-3-.87-4.23-3.47-6.83-7.27-7.34a9.11,9.11,0,0,0-9.7,4.71,12.08,12.08,0,0,0,2.59,14.15,8.57,8.57,0,0,0,13.22-2.4A36.72,36.72,0,0,0,321.63,48.31Z"/><path class="cls-3" d="M339.3,20.31c-.33,4.69-.64,9.16-.95,13.74,1.11,0,2.07,0,3,0a20.68,20.68,0,0,1,9.12,1.32c6.08,2.58,8.62,7.48,8.06,14.15C357.88,57.79,352,63,343.28,63.34a25.08,25.08,0,0,1-9.72-1.18A1.93,1.93,0,0,1,332,59.9c.13-1.29,0-2.61,0-4.13.89.45,1.65.87,2.44,1.21,4.88,2.13,9.75,2.82,14.5-.27,3.31-2.15,4.29-5.46,4-9.16a8.49,8.49,0,0,0-5.73-7.79c-3.38-1.33-6.91-1.11-10.43-1-1.25.06-2.49.17-3.9.26.54-7.88,1.06-15.57,1.59-23.37h21.82v4.63Z"/><path class="cls-3" d="M250.13,47.13H226.46c-1.15,5.33,3.3,11,8.91,11.5a16.41,16.41,0,0,0,10.85-2.58c.39-.25.79-.46,1.42-.83,0,1.58.08,3,0,4.32a1.94,1.94,0,0,1-1,1.25c-5.89,3-12,3.71-18.13.94a12.34,12.34,0,0,1-6.73-8.07c-2.12-7-1.84-13.71,2.62-19.79a14.89,14.89,0,0,1,18.83-4.07c3.89,2.15,5.7,5.76,6.4,9.91A72.27,72.27,0,0,1,250.13,47.13Zm-5.9-4.68A8.25,8.25,0,0,0,237,32.77a10,10,0,0,0-10.52,9.68Z"/><path class="cls-4" d="M268.6,35.91c1,0,2,.06,3,0a39.05,39.05,0,0,0,5.85-.61c4.74-1.1,6.79-4.28,6.34-9.42-.35-4-3.08-6.26-7.78-6.55a14.62,14.62,0,0,0-8.35,2c-.61.34-1.2.72-2.08,1.25,0-1.75,0-3.31,0-4.86,0-.26.45-.57.76-.72,5.41-2.56,11-3.26,16.61-.92a10,10,0,0,1,6.43,9.69c.09,5.17-2,9-6.86,11.22-.34.15-.7.26-1.05.41l-1.24.56c1,.26,1.82.41,2.59.65a11.73,11.73,0,0,1,5.7,18.8,14.85,14.85,0,0,1-9.47,5.56A24,24,0,0,1,265,61.54a1.83,1.83,0,0,1-1.28-2c.1-1.38,0-2.77,0-4.16,1.88.88,3.59,1.83,5.41,2.51a16.1,16.1,0,0,0,10,.26,8.26,8.26,0,0,0,6.4-8.06c.12-4.32-1.75-7.35-5.9-8.45-2.81-.75-5.82-.77-8.75-1.07a21.76,21.76,0,0,0-2.29,0Z"/><path class="cls-3" d="M216.69,56.09v2.56c0,2.56,0,2.56-2.36,3.47-6.61,2.56-14.08,1.19-18.54-3.44-2.79-2.9-3.94-6.53-4.39-10.41a19.69,19.69,0,0,1,1.34-9.62c3.2-8,9.68-10.76,17.17-10.49a32.7,32.7,0,0,1,5.62,1.12A1.38,1.38,0,0,1,216.76,31c-.1,1.34,0,2.69,0,4.07a40.16,40.16,0,0,0-5-1.91c-7.63-1.78-14.15,3.19-14.66,11.18a20.83,20.83,0,0,0,.37,5.85c1.61,7,8.5,10.43,15.49,7.77C214.16,57.44,215.32,56.75,216.69,56.09Z"/><path class="cls-5" d="M185.71,62.51h-5.18V29.1h5.18Z"/><path class="cls-6" d="M183.21,20.42a3.41,3.41,0,0,1-3.55-3.5,3.48,3.48,0,0,1,3.6-3.49,3.5,3.5,0,1,1,0,7Z"/></g></g></svg>