<svg xmlns="http://www.w3.org/2000/svg" viewBox="0 0 177.7 122.64"><defs><style>.cls-1{fill:#db4017;}.cls-2{fill:#dc431c;}.cls-3{fill:#dc4018;}.cls-4{fill:#dc4119;}.cls-5{fill:#db3f17;}.cls-6{fill:#dc421a;}</style></defs><title>office-portriat</title><g id="Layer_2" data-name="Layer 2"><g id="Layer_1-2" data-name="Layer 1"><path class="cls-1" d="M59.58,57.12a4.24,4.24,0,0,1-.79-.58c-.11-.12,0-.41,0-.62q0-20.23,0-40.47a1.49,1.49,0,0,1,1.12-1.69C72,9.26,84.1,4.71,96.23.23A4.4,4.4,0,0,1,98.82.16c6.36,1.75,12.69,3.6,19,5.4.75.21,1.11.5,1.11,1.38q0,29,0,58c0,.21,0,.42,0,.72L107.77,68.7c-3,.82-5.93,1.69-8.93,2.41A5.13,5.13,0,0,1,96.12,71q-17.88-6.48-35.7-13.07c-.06,0-.09-.13-.13-.19a15.36,15.36,0,0,1,1.92,0c4.09.53,8.17,1.09,12.24,1.65l22.91,3.14V11.16c-.38,0-.64.05-.89.1C88.76,13.1,81.06,15,73.34,16.76,72.28,17,72,17.42,72,18.47c0,10.75,0,21.5,0,32.25a1.71,1.71,0,0,1-1.29,1.94C67,54.06,63.31,55.62,59.58,57.12Z"/><path class="cls-2" d="M51.54,102.85V122H47.93V103H39.28v19H35.66v-19H32V99.88h3.68c0-1.3,0-2.5,0-3.7a7.24,7.24,0,0,1,3.09-6.31A7.36,7.36,0,0,1,44.78,89a.83.83,0,0,1,.5.59c.06.86,0,1.72,0,2.58a20.26,20.26,0,0,0-2.26-.36,3.33,3.33,0,0,0-3.7,3.12,15.75,15.75,0,0,0-.09,1.94c0,1,0,1.91,0,2.91h8.66c0-1.11-.09-2.25,0-3.37a12.37,12.37,0,0,1,.7-3.6c1.57-3.66,5.24-4.59,8.43-3.81a.82.82,0,0,1,.5.6c.06.85,0,1.72,0,2.57a18.07,18.07,0,0,0-2.26-.35A3.33,3.33,0,0,0,51.61,95c-.1.88-.06,1.79-.08,2.68,0,.68,0,1.36,0,2.13h5.11v3.07Z"/><path class="cls-3" d="M29.58,105.65a22.8,22.8,0,0,1-1.38,8.09c-2.88,7.25-9.49,9.4-15.39,8.74C4.61,121.56.58,115.4.07,108.41a20.27,20.27,0,0,1,1-8.32c2.46-7,8.21-9.89,14.77-9.64,7.12.28,12.32,5,13.41,12.09C29.44,103.76,29.51,105,29.58,105.65Zm-25.7.95-.27.05a47.78,47.78,0,0,0,1.31,5.74c1.64,4.61,5.43,7,10.43,6.86A10,10,0,0,0,25,111.78a18.15,18.15,0,0,0-.21-11.22c-2.93-8.67-13.72-8.29-17.72-3.41A14.09,14.09,0,0,0,3.88,106.6Z"/><path class="cls-3" d="M140.7,106.72c.27-.4.52-.82.81-1.2a6.74,6.74,0,0,1,4.56-2.78c7.15-1,11.11,4.07,10.57,10.49a9.86,9.86,0,0,1-4.24,7.7,9.32,9.32,0,0,1-13.55-3.12,16.29,16.29,0,0,1-1.91-6.91,25.72,25.72,0,0,1,2-13.14c1.77-3.8,4.52-6.49,8.82-7.17A13.85,13.85,0,0,1,154,91c.5.15.78.35.74,1-.06.83,0,1.67,0,2.52-1.23-.31-2.4-.7-3.59-.9A7.65,7.65,0,0,0,143,97.29,15.91,15.91,0,0,0,140.7,106.72Zm12.56,5.91-.18-.08c-.09-.67-.14-1.35-.27-2-.58-2.79-2.3-4.51-4.81-4.85a6,6,0,0,0-6.4,3.11,8,8,0,0,0,1.71,9.35,5.67,5.67,0,0,0,8.73-1.59A24.56,24.56,0,0,0,153.26,112.63Z"/><path class="cls-3" d="M164.93,94.14c-.22,3.1-.42,6-.63,9.07.73,0,1.37,0,2,0a13.71,13.71,0,0,1,6,.87c4,1.7,5.69,4.94,5.32,9.34-.45,5.47-4.32,8.88-10.09,9.14a16.83,16.83,0,0,1-6.42-.78,1.29,1.29,0,0,1-1-1.5,27.22,27.22,0,0,0,0-2.73c.6.3,1.1.58,1.62.81,3.22,1.4,6.44,1.86,9.57-.18,2.19-1.42,2.84-3.61,2.67-6.05a5.62,5.62,0,0,0-3.78-5.15c-2.24-.88-4.57-.73-6.89-.63-.83,0-1.65.1-2.58.17.36-5.21.7-10.28,1.06-15.44h14.4v3.06Z"/><path class="cls-3" d="M106,111.85H90.42c-.76,3.52,2.17,7.26,5.88,7.6a10.93,10.93,0,0,0,7.17-1.71c.25-.16.52-.3.93-.54,0,1,.06,2,0,2.84a1.26,1.26,0,0,1-.64.83c-3.89,2-7.9,2.45-12,.62a8.15,8.15,0,0,1-4.44-5.33c-1.4-4.59-1.21-9,1.73-13.07a9.84,9.84,0,0,1,12.44-2.68,8.63,8.63,0,0,1,4.22,6.54A47.57,47.57,0,0,1,106,111.85Zm-3.89-3.09a5.44,5.44,0,0,0-4.8-6.39,6.6,6.6,0,0,0-6.95,6.39Z"/><path class="cls-4" d="M118.25,104.44c.69,0,1.33,0,2,0a26,26,0,0,0,3.87-.41c3.13-.72,4.48-2.82,4.18-6.22-.23-2.61-2-4.13-5.13-4.32a9.61,9.61,0,0,0-5.52,1.31c-.4.22-.79.47-1.37.82,0-1.16,0-2.18,0-3.21,0-.17.3-.37.51-.47a13,13,0,0,1,11-.61,6.59,6.59,0,0,1,4.25,6.4,7.32,7.32,0,0,1-4.53,7.41c-.22.1-.46.17-.69.27l-.82.37c.68.17,1.2.27,1.71.43a7.75,7.75,0,0,1,3.76,12.42,9.83,9.83,0,0,1-6.25,3.67,15.9,15.9,0,0,1-9.29-.92A1.21,1.21,0,0,1,115,120c.07-.91,0-1.83,0-2.75,1.24.58,2.37,1.21,3.57,1.65a10.65,10.65,0,0,0,6.58.18,5.47,5.47,0,0,0,4.23-5.33c.08-2.85-1.15-4.85-3.9-5.58a37.9,37.9,0,0,0-5.77-.7c-.49,0-1,0-1.51,0Z"/><path class="cls-3" d="M84,117.77v1.69c0,1.69,0,1.69-1.55,2.29-4.37,1.69-9.3.78-12.25-2.27a11.36,11.36,0,0,1-2.89-6.87,13,13,0,0,1,.88-6.36c2.11-5.27,6.39-7.11,11.34-6.93a22.15,22.15,0,0,1,3.71.74.91.91,0,0,1,.81,1.11c-.07.88,0,1.77,0,2.68a27.42,27.42,0,0,0-3.33-1.26c-5-1.17-9.34,2.11-9.67,7.39a13.5,13.5,0,0,0,.24,3.86c1.07,4.64,5.61,6.89,10.23,5.13C82.29,118.66,83.06,118.21,84,117.77Z"/><path class="cls-5" d="M63.51,122H60.09V99.94h3.42Z"/><path class="cls-6" d="M61.86,94.21a2.25,2.25,0,0,1-2.35-2.31,2.31,2.31,0,0,1,2.38-2.31,2.31,2.31,0,1,1,0,4.62Z"/></g></g></svg>