<svg xmlns="http://www.w3.org/2000/svg" viewBox="0 0 642.01 177.33"><defs><style>.cls-1{fill:#fff;}</style></defs><title>prizm-logo</title><g id="Layer_2" data-name="Layer 2"><g id="Layer_1-2" data-name="Layer 1"><path class="cls-1" d="M192.57,133V44.33h49.15c12.5,0,20.91,3.53,26.75,9.78a26.75,26.75,0,0,1-1.22,37.74c-5.57,5.3-13.44,8.56-25.53,8.56H212V133ZM212,60.76V84H242.4c3.4,0,7.2-.54,10.19-3.4a11.78,11.78,0,0,0,3.53-8.14,11.51,11.51,0,0,0-3.26-8c-3-3.13-6.93-3.67-10.46-3.67Z"/><path class="cls-1" d="M291.42,133V44.33h49.16c12.62,0,20.91,3.67,26.61,9.64a26.49,26.49,0,0,1,7.33,18.33c0,11.41-7.06,20.23-17.92,25L377.37,133H355.1l-17.92-32.58H310.84V133Zm19.42-72.23V84h31.77C349.4,84,355,79.09,355,72.3a10.81,10.81,0,0,0-3.12-7.74c-3.13-3.39-7.07-3.8-10.6-3.8Z"/><path class="cls-1" d="M400.6,133V44.33H420V133Z"/><path class="cls-1" d="M522.12,133H443.64v-11.4l50.24-60.42H446.22V44.33h75.9V55.87l-50.24,60.42h50.24Z"/><path class="cls-1" d="M622.46,133V81.53h-.68L596.94,123H591.5L566.66,81.53H566V133H547.11V44.33h18.6l29,48.61H595L624,44.33h18V133Z"/><path class="cls-1" d="M76.78,0,0,44.33V133l76.78,44.34L153.57,133V44.33Zm-27,40.5L69.56,52.17V84.54L41.44,101.15l-20-11.82L49.8,72.57Zm-1.13,73.17L76.78,97.06l28.11,16.61v22.24L76.78,119.3,48.67,135.91Zm63.45-12.52L84,84.54V52.17L103.77,40.5V72.57l28.36,16.76Zm27-24.49L118.23,64.32V40.62l20.88,12.06ZM96.44,28,76.78,39.65,57.13,28,76.78,16.69ZM35.34,40.62v23.7L14.46,76.66v-24ZM14.46,102l19.76,11.68v22.39L14.46,124.65ZM55.78,148.5l21-12.41,21,12.41-21,12.13Zm63.57-12.44V113.67L139.11,102v22.66Z"/></g></g></svg>