<svg xmlns="http://www.w3.org/2000/svg" viewBox="0 0 495.5 572.15"><defs><style>.cls-1{opacity:0.19;}.cls-2{fill:#fff;}</style></defs><title>prizm-overlay</title><g id="Layer_2" data-name="Layer 2"><g id="Layer_1-2" data-name="Layer 1"><g class="cls-1"><path class="cls-2" d="M247.75,0,0,143V429.12l247.75,143,247.75-143V143ZM160.67,130.67l63.76,37.68V272.77l-90.71,53.59L69.17,288.22l91.5-54.07Zm-3.62,236.09,90.7-53.59,90.7,53.59v71.76l-90.7-53.6-90.7,53.6Zm204.72-40.4-90.7-53.59V168.35l63.76-37.68V234.15l91.5,54.07Zm87.08-79-67.38-39.82V131.07L448.85,170ZM311.16,90.48,247.75,128,184.34,90.48l63.41-36.62ZM114,131.07v76.46L46.65,247.35V170Zm-67.37,198,63.75,37.67V439L46.65,402.18ZM180,479.16l67.78-40.06,67.78,40.06-67.78,39.13ZM385.1,439V366.76l63.75-37.67v73.09Z"/></g></g></g></svg>