<svg xmlns="http://www.w3.org/2000/svg" viewBox="0 0 79.36 49.75"><defs><style>.cls-1{fill:#fff;}</style></defs><title>prizm</title><g id="Layer_2" data-name="Layer 2"><g id="Layer_1-2" data-name="Layer 1"><path class="cls-1" d="M0,49.75V34.1H8.68a6.07,6.07,0,0,1,4.72,1.72,4.74,4.74,0,0,1-.21,6.67A6.21,6.21,0,0,1,8.68,44H3.43v5.75ZM3.43,37v4.1H8.8a2.51,2.51,0,0,0,1.8-.6,2.1,2.1,0,0,0,.62-1.44,2.07,2.07,0,0,0-.58-1.42A2.39,2.39,0,0,0,8.8,37Z"/><path class="cls-1" d="M17.45,49.75V34.1h8.68a6.07,6.07,0,0,1,4.7,1.7A4.65,4.65,0,0,1,32.13,39,4.81,4.81,0,0,1,29,43.45l3.67,6.3H28.7L25.53,44H20.88v5.75ZM20.88,37v4.1h5.61A2.09,2.09,0,0,0,28.67,39a1.9,1.9,0,0,0-.55-1.36A2.33,2.33,0,0,0,26.25,37Z"/><path class="cls-1" d="M36.73,49.75V34.1h3.43V49.75Z"/><path class="cls-1" d="M58.19,49.75H44.33v-2L53.2,37.07H44.79v-3h13.4v2L49.32,46.8h8.87Z"/><path class="cls-1" d="M75.91,49.75V40.66h-.12L71.4,48h-1l-4.39-7.32h-.12v9.09H62.6V34.1h3.28L71,42.68h0l5.11-8.58h3.19V49.75Z"/><path class="cls-1" d="M38.4,0,24.84,7.83V23.48L38.4,31.31,52,23.48V7.83ZM33.64,7.15l3.49,2.06v5.72l-5,2.93-3.53-2.09,5-3Zm-.2,12.92,5-2.93,5,2.93V24l-5-2.94-5,2.94Zm11.2-2.21-5-2.93V9.21l3.49-2.06v5.66l5,3Zm4.77-4.32-3.69-2.18V7.17L49.41,9.3ZM41.87,5,38.4,7,34.93,5,38.4,3ZM31.08,7.17v4.19L27.4,13.54V9.3ZM27.4,18l3.49,2.06V24L27.4,22Zm7.29,8.21L38.4,24l3.71,2.19L38.4,28.36ZM45.92,24V20.07L49.41,18v4Z"/></g></g></svg>