<svg xmlns="http://www.w3.org/2000/svg" viewBox="0 0 411.5 113.66"><defs><style>.cls-1{fill:#222;}</style></defs><title>prizm-logo-dark</title><g id="Layer_2" data-name="Layer 2"><g id="Layer_1-2" data-name="Layer 1"><path class="cls-1" d="M123.43,85.24V28.41h31.5c8,0,13.4,2.27,17.15,6.27a17.15,17.15,0,0,1-.79,24.19c-3.56,3.4-8.61,5.49-16.36,5.49H135.87V85.24Zm12.44-46.3V53.83h19.5a9,9,0,0,0,6.52-2.18,7.52,7.52,0,0,0,2.27-5.22,7.44,7.44,0,0,0-2.09-5.14c-1.92-2-4.44-2.35-6.7-2.35Z"/><path class="cls-1" d="M186.79,85.24V28.41h31.5c8.09,0,13.4,2.35,17.06,6.18a17,17,0,0,1,4.7,11.75c0,7.31-4.53,13-11.49,16l13.31,22.89H227.6L216.11,64.36H199.23V85.24Zm12.44-46.3V53.83h20.36c4.36,0,7.92-3.14,7.92-7.49a6.89,6.89,0,0,0-2-5c-2-2.17-4.52-2.44-6.78-2.44Z"/><path class="cls-1" d="M256.76,85.24V28.41H269.2V85.24Z"/><path class="cls-1" d="M334.65,85.24h-50.3V77.93l32.2-38.72H286V28.41h48.65v7.4l-32.2,38.73h32.2Z"/><path class="cls-1" d="M399,85.24v-33h-.43L382.6,78.8h-3.48L363.2,52.26h-.44v33h-12.1V28.41h11.93l18.62,31.16h.17l18.54-31.16H411.5V85.24Z"/><path class="cls-1" d="M49.21,0,0,28.41V85.24l49.21,28.42L98.43,85.24V28.41ZM31.92,26l12.66,7.48V54.18l-18,10.65L13.74,57.25,31.92,46.51Zm-.72,46.9,18-10.65,18,10.65V87.11l-18-10.65-18,10.65Zm40.67-8-18-10.65V33.44L66.51,26V46.51L84.69,57.25Zm17.29-15.7-13.38-7.9V26l13.38,7.72ZM61.81,18l-12.6,7.45L36.62,18,49.21,10.7ZM22.65,26V41.23L9.27,49.13V33.76ZM9.27,65.37l12.66,7.49V87.2L9.27,79.89ZM35.75,95.18l13.46-8,13.47,8L49.21,103Zm40.75-8V72.86l12.66-7.49V79.89Z"/></g></g></svg>