<svg xmlns="http://www.w3.org/2000/svg" viewBox="0 0 146.08 137"><defs><style>.cls-1{fill:#222;}</style></defs><title>procure_1</title><g id="Layer_2" data-name="Layer 2"><g id="Layer_1-2" data-name="Layer 1"><path class="cls-1" d="M146.08,128.7c-2.4,2.43-4.78,4.87-7.2,7.28-1.41,1.41-2.51,1.36-4-.15-7-7-14-14-21-21a1.86,1.86,0,0,0-2.63-.45,38.4,38.4,0,0,1-31.61,1.77,4.25,4.25,0,0,0-2.54-.12A59.37,59.37,0,1,1,47.37,1.22c32-6.61,63.68,14.24,70.07,46.16a6.61,6.61,0,0,0,2.23,3.89,38.69,38.69,0,0,1,4.82,52.06c-.26.33-.5.68-.8,1.1.38.4.72.79,1.08,1.15l18.76,18.76c.86.87,1.7,1.76,2.55,2.65ZM36.52,59.36v2a6.91,6.91,0,0,1-7.2,7.17c-1.43,0-2.86-.06-4.28,0A2.17,2.17,0,0,0,23.28,72a3.45,3.45,0,0,0,2.32,1c5.09.09,10.18-.05,15.26.12a8.92,8.92,0,0,1,4.34,1.43A6.43,6.43,0,0,1,47.57,82a6.8,6.8,0,0,1-6.47,4.71c-9.17,0-18.35,0-27.52,0H12C25.48,110.19,52.61,118,72.33,112.4l-1.3-.94C61.11,104.12,55.57,94.28,54.87,82a38.52,38.52,0,0,1,26-38.68c1.15-.41,1.68-.93,1.19-2.13-4.38-.73-7-3.63-6.69-7.45.27-3.31,3-6.5,7.87-6.37,6.32.17,12.65,0,19,0h1.63A55,55,0,0,0,82.17,9.6c0,2.29,0,4.37,0,6.44a6.76,6.76,0,0,1-6.42,6.76c-4.84.12-9.7.1-14.54,0a6.76,6.76,0,0,1-6.29-5.49A6.68,6.68,0,0,1,58.42,10a13.82,13.82,0,0,1,3.4-.88,2.35,2.35,0,0,0,2.07-2.34,2,2,0,0,0-2.24-2.17,90.11,90.11,0,0,0-10.8.65C34.92,7.93,22.48,16.12,13.48,29.51c-1.46,2.17-2.62,4.54-4,7h2q13.55,0,27.1,0a6.88,6.88,0,0,1,7.14,7.08v1.89a2.23,2.23,0,0,0,.43.13,54.57,54.57,0,0,1,6.27.08,10.26,10.26,0,0,1,4.33,1.49A6.43,6.43,0,0,1,59,54.72a6.8,6.8,0,0,1-6.38,4.63C47.3,59.39,42,59.36,36.52,59.36ZM25.7,82.19c5,0,10,0,15,0,1.82,0,3-1.22,2.65-2.71a2.38,2.38,0,0,0-2.66-1.86c-5.23,0-10.46,0-15.69,0A6.84,6.84,0,0,1,25,63.94c1.37,0,2.75,0,4.13,0,2,0,2.78-.82,2.81-2.75,0-.9,0-1.8,0-2.71,0-3.13.53-3.67,3.6-3.67,5.47,0,10.93,0,16.4,0,1.78,0,2.83-.88,2.82-2.3s-1.06-2.25-2.87-2.26c-2.71,0-5.41,0-8.12,0-1.86,0-2.67-.84-2.69-2.72,0-1.14,0-2.28,0-3.42,0-2.22-.76-3-3-3-9.7,0-19.39,0-29.09,0-1.07,0-1.45.38-1.75,1.33a54.77,54.77,0,0,0,1.82,38.7,1.52,1.52,0,0,0,1.67,1.1C15.72,82.17,20.71,82.19,25.7,82.19Zm67.82,32A34.24,34.24,0,1,0,59.34,79.76,34.25,34.25,0,0,0,93.52,114.14Zm18.93-68.21a57.58,57.58,0,0,0-5-12.85A1.78,1.78,0,0,0,105.55,32c-5.32,0-10.64,0-16,0-2.47,0-4.94,0-7.4,0a2.22,2.22,0,0,0-2.29,2.24,2.26,2.26,0,0,0,2.24,2.29c.57,0,1.14,0,1.71,0,2.06,0,2.86.8,2.88,2.82,0,.75,0,1.5,0,2.25C99.85,40.89,101.94,41.24,112.45,45.93ZM68.65,5.28c-.14.35-.22.44-.21.52a7,7,0,0,1-6.94,8,2.16,2.16,0,0,0-2.14,2.36,2.2,2.2,0,0,0,2.24,2.14c4.6,0,9.2,0,13.8,0a2.08,2.08,0,0,0,2.17-2.18c.07-2.75,0-5.5,0-8.47Zm48.28,105.64L137,131l3.22-3.11L120.35,108Z"/><path class="cls-1" d="M38.68,32c-1.52,0-3,0-4.55,0a6.84,6.84,0,0,1-.05-13.67q4.7-.09,9.39,0A6.84,6.84,0,0,1,43.52,32C41.91,32,40.3,32,38.68,32Zm0-4.56c1.47,0,2.95,0,4.42,0a2.28,2.28,0,1,0,0-4.54q-4.35,0-8.7,0a2.28,2.28,0,1,0,0,4.54C35.85,27.44,37.28,27.41,38.71,27.41Z"/><path class="cls-1" d="M43.51,91.33c1.52,0,3,0,4.55,0a6.84,6.84,0,0,1,0,13.67q-4.7.09-9.4,0a6.84,6.84,0,0,1,0-13.67C40.28,91.29,41.89,91.33,43.51,91.33Zm-.22,9.12c1.48,0,3,0,4.43,0a2.28,2.28,0,1,0,0-4.54q-4.35,0-8.7,0a2.28,2.28,0,1,0,0,4.54C40.44,100.48,41.87,100.45,43.29,100.45Z"/><path class="cls-1" d="M123.25,79.91A29.67,29.67,0,1,1,93.71,50.24,29.74,29.74,0,0,1,123.25,79.91Zm-54.78,0a25.11,25.11,0,1,0,25-25.07A25.18,25.18,0,0,0,68.47,79.87Z"/><path class="cls-1" d="M93.54,100.45c-4.34,0-6.81-2-7.68-6.27-.08-.37-.2-.74-.25-1.11a10.42,10.42,0,0,0-3.47-6.77c-5-4.57-5.89-12.19-2.74-18.25a15.93,15.93,0,0,1,29.89,4.64c.94,6.21-1.15,11.27-5.93,15.29a3.84,3.84,0,0,0-1.13,1.83c-.4,1.41-.62,2.87-.92,4.31C100.41,98.47,98,100.46,93.54,100.45Zm.19-36.52a11.44,11.44,0,0,0-11,7.95,11.25,11.25,0,0,0,4.38,12.81,4.47,4.47,0,0,1,2.12,3.17c.34,2,.77,3.91,1.21,5.86.38,1.68,1.12,2.17,3.13,2.17s2.77-.49,3.15-2.15c.42-1.9.86-3.8,1.17-5.72a4.79,4.79,0,0,1,2.24-3.41A11.22,11.22,0,0,0,104.48,72,11.39,11.39,0,0,0,93.73,63.93Z"/><path class="cls-1" d="M100.42,75.33a6.84,6.84,0,1,1-6.93-6.83A6.91,6.91,0,0,1,100.42,75.33Zm-7,2.29a2.32,2.32,0,0,0,2.38-2.17,2.27,2.27,0,1,0-2.38,2.17Z"/></g></g></svg>