<svg xmlns="http://www.w3.org/2000/svg" viewBox="0 0 168.31 171.17"><defs><style>.cls-1{fill:#222;}</style></defs><title>sizes</title><g id="Layer_2" data-name="Layer 2"><g id="Layer_1-2" data-name="Layer 1"><path class="cls-1" d="M79.88,111.45v50.26c0,5.9-3.53,9.45-9.39,9.45H9.36c-5.78,0-9.36-3.56-9.36-9.3V60.63C0,55,3.58,51.36,9.21,51.36q30.74,0,61.48,0c5.55,0,9.18,3.61,9.18,9.13Q79.88,86,79.88,111.45Zm-74.17-.38v50.45c0,3,.89,3.94,3.9,3.94h60.6c3.06,0,4-.87,4-3.88V61c0-3.13-.86-4-4-4A41.17,41.17,0,0,1,64.25,57c-4.33-.62-7.71.67-10.25,4.27a4,4,0,0,1-3.61,1.51c-5.4-.06-10.83-.33-16.21.06-4.84.36-8.68-.76-11.61-4.76a3.5,3.5,0,0,0-2.43-1c-3.45-.1-6.89,0-10.34,0-3.26,0-4.09.83-4.09,4.11Z"/><path class="cls-1" d="M134.11,171.17v-5.71h24.73c2.8,0,3.76-1,3.76-3.73V9.5c0-2.88-.94-3.79-3.88-3.79H49.63c-3.13,0-4,.87-4,4,0,3.32,0,6.64,0,10.09H40c0-4.19-.31-8.42.09-12.57C40.53,2.84,44.34,0,49,0h87.88c7.37,0,14.74,0,22.11,0,5.67,0,9.28,3.58,9.28,9.21q0,76.38,0,152.76c0,5.54-3.61,9.17-9.13,9.18-7.84,0-15.68,0-23.53,0Z"/><path class="cls-1" d="M22.82,45.58H17.21c0-4.27-.29-8.49.08-12.65a8.24,8.24,0,0,1,8.4-7.24q47.07,0,94.12,0c5,0,8.55,3.86,8.56,9q0,36.27,0,72.55v54.36c0,6-3.5,9.53-9.49,9.53H85.67v-5.7h33.05c3,0,3.94-.89,3.94-3.91q0-63.11,0-126.2c0-3.12-.87-4-4.06-4H27.16c-3.61,0-4.34.74-4.34,4.41Z"/><path class="cls-1" d="M148.27,28.53a8.56,8.56,0,1,1,8.62-8.4A8.63,8.63,0,0,1,148.27,28.53Zm.12-11.4A2.84,2.84,0,1,0,151.17,20,2.88,2.88,0,0,0,148.39,17.13Z"/><path class="cls-1" d="M114,159.67h-8.34v-5.48H114Z"/><path class="cls-1" d="M151.18,37.06a2.84,2.84,0,1,1-2.82-2.81A2.87,2.87,0,0,1,151.18,37.06Z"/><path class="cls-1" d="M22.76,151.34v5.45h-8.4v-5.45Z"/><path class="cls-1" d="M65.52,156.83H57.18V151.3h8.34Z"/></g></g></svg>