<svg xmlns="http://www.w3.org/2000/svg" viewBox="0 0 172.12 113.49"><defs><style>.cls-1{fill:#222;}</style></defs><title>windows-grey</title><g id="Layer_2" data-name="Layer 2"><g id="Layer_1-2" data-name="Layer 1"><path class="cls-1" d="M118.79,0V31.06H83.4V5.14L94.85,3.47,116.52.33c.19,0,.35-.22.53-.33Z"/><path class="cls-1" d="M53.33,34H80V59.75L53.33,56.16Z"/><path class="cls-1" d="M53.33,9.36,80,5.67V31.14a6.87,6.87,0,0,1-1.07.16H54.19a6.3,6.3,0,0,1-.86-.1Z"/><path class="cls-1" d="M83.34,60.23V34.49h35.31V65.21Z"/><path class="cls-1" d="M32.43,87.87c-1.53,5.44-3,10.74-4.5,16-.76,2.72-1.56,5.44-2.29,8.17-.17.63-.39.9-1.1.9-2.56,0-2.57,0-3.26-2.41Q19,102.31,16.66,94c-.11-.38-.17-.78-.29-1.41-.43,1.58-.8,2.94-1.18,4.3-1.39,5-2.81,10-4.16,15a1.18,1.18,0,0,1-1.34,1.05c-2.36.08-2.36.12-3-2.11q-3.22-11-6.43-22c-.08-.27-.14-.55-.25-1a23.23,23.23,0,0,1,2.79,0c.24,0,.51.53.6.86q2.25,8,4.45,16c.39,1.39.72,2.79,1.14,4.45.93-3.33,1.77-6.39,2.64-9.44,1-3.67,2.14-7.33,3.17-11a1.07,1.07,0,0,1,1.3-.92c1.78.07,1.78,0,2.24,1.7,1.79,6.47,3.57,12.94,5.4,19.6.23-1,.41-1.76.62-2.57,1.57-6,3.15-11.92,4.69-17.89.16-.61.36-.88,1-.83S31.53,87.87,32.43,87.87Z"/><path class="cls-1" d="M99.55,94.93c.81,0,1.48,0,2.13,0s.94.19,1.12.86c1.24,4.67,2.53,9.34,3.78,13.91,1.27-4.15,2.56-8.42,3.86-12.69.7-2.28.7-2.28,3.29-2,1.31,4.84,2.62,9.72,4,14.73a6.58,6.58,0,0,0,.29-.69c1.17-4.44,2.34-8.87,3.48-13.31.15-.55.34-.84,1-.8s1.32,0,2.12,0c-.35,1.17-.67,2.26-1,3.34-1.35,4.53-2.72,9.06-4,13.61a1.22,1.22,0,0,1-1.45,1.07c-1.84-.07-1.85,0-2.32-1.74l-3.33-12a2.69,2.69,0,0,0-.24-.48c-1.37,4.46-2.76,8.86-4.08,13.29a1,1,0,0,1-1.22.9c-1.89,0-1.9,0-2.46-1.87C102.81,105.79,101.2,100.46,99.55,94.93Z"/><path class="cls-1" d="M74.31,86.4H77.1v26.41H74.37l-.19-2.6a7.16,7.16,0,0,1-4.67,3.06,6.89,6.89,0,0,1-8.17-4.75,12.59,12.59,0,0,1,.56-9.85A7.46,7.46,0,0,1,71,94.79a19,19,0,0,1,3.29,2Zm.2,17.16-.19,0c0-.55,0-1.1,0-1.65a5.15,5.15,0,0,0-10-1.54,10.57,10.57,0,0,0-.13,7A4.88,4.88,0,0,0,68.89,111a5,5,0,0,0,4.93-3.54A29.43,29.43,0,0,0,74.51,103.56Z"/><path class="cls-1" d="M155.43,99.59a65.32,65.32,0,0,1,1.85-7.54,7.24,7.24,0,0,1,10.3-3.92,7.52,7.52,0,0,1,3.69,5.25,26,26,0,0,1-.14,13.72,11,11,0,0,1-1.53,3.15,7,7,0,0,1-12.13-.7c-1.24-2.34-1.88-6-1.73-9.89Zm13.51.77a15.82,15.82,0,0,0,0-3.08,24,24,0,0,0-1.52-5.46,3.8,3.8,0,0,0-6.45-.72,6.07,6.07,0,0,0-1.45,2.78,56.12,56.12,0,0,0-.79,7.86,22,22,0,0,0,.75,5.32,6.27,6.27,0,0,0,1.29,2.51,4,4,0,0,0,6.71-.64C169,106.26,169,103.31,168.94,100.36Z"/><path class="cls-1" d="M98,103.82c0,3.77-1.15,7-4.79,8.72a8.72,8.72,0,0,1-12.73-7.45,10.46,10.46,0,0,1,2.12-7.66c2.19-2.68,6.3-3.69,10-2.51A8,8,0,0,1,98,102.28C98.08,102.79,98,103.31,98,103.82Zm-2.71.29a32.35,32.35,0,0,0-.57-3.23,5.21,5.21,0,0,0-5.11-4.1,5.61,5.61,0,0,0-5.56,3.59,9.24,9.24,0,0,0,.13,7.5,5.43,5.43,0,0,0,5.36,3.2,4.93,4.93,0,0,0,4.93-3.39A27.11,27.11,0,0,0,95.33,104.11Z"/><path class="cls-1" d="M57.27,112.84H54.39c0-1.47,0-2.9,0-4.32,0-2.31,0-4.63-.06-6.94-.15-3.16-1.78-4.92-4.29-4.83a5.19,5.19,0,0,0-4.73,5.2c0,3.19,0,6.39,0,9.59v1.28H42.48V95h2.75v2.65c.38-.43.6-.69.84-.94a6.79,6.79,0,0,1,6.63-2.11A5.39,5.39,0,0,1,57,99.68c.22,2.29.2,4.61.24,6.93C57.3,108.66,57.27,110.71,57.27,112.84Z"/><path class="cls-1" d="M125.92,109.49a42.66,42.66,0,0,0,4.33,1.41,6.6,6.6,0,0,0,2.61-.13,2.19,2.19,0,0,0,2-1.94,2.34,2.34,0,0,0-1.26-2.58c-.91-.49-1.86-.89-2.79-1.34a24.47,24.47,0,0,1-2.47-1.2,4.63,4.63,0,0,1,0-8.09,9.13,9.13,0,0,1,8-.61,1.49,1.49,0,0,1,.66,1,12.81,12.81,0,0,1,0,2,18.77,18.77,0,0,0-3.5-1,8.68,8.68,0,0,0-3.22.4,2.07,2.07,0,0,0-1.41,2,2.17,2.17,0,0,0,1.2,2.19c1,.51,2,.92,3,1.4a21.71,21.71,0,0,1,2.46,1.23,4.62,4.62,0,0,1-.24,8.06,10.08,10.08,0,0,1-8.85.28,1.12,1.12,0,0,1-.53-.8C125.87,111,125.92,110.18,125.92,109.49Z"/><path class="cls-1" d="M149.74,91.76l-5.83,2.86c0-1.1,0-1.86,0-2.62,0-.23.34-.49.59-.62,2.11-1.19,4.22-2.37,6.35-3.53.47-.25,1-.44,1.59-.71v25.67h-2.73Z"/><path class="cls-1" d="M37.49,112.85H34.75V95h2.74Z"/><path class="cls-1" d="M34.24,88.07a1.9,1.9,0,0,1,2.06-1.71,1.85,1.85,0,0,1,1.72,2,1.88,1.88,0,0,1-2,1.73A1.93,1.93,0,0,1,34.24,88.07Z"/></g></g></svg>