<svg xmlns="http://www.w3.org/2000/svg" viewBox="0 0 355.93 65.21"><defs><style>.cls-1{fill:#0278d5;}.cls-2{fill:#0279d6;}.cls-3{fill:#0178d5;}.cls-4{fill:#057ad6;}.cls-5{fill:#067bd6;}.cls-6{fill:#0379d6;}.cls-7{fill:#087cd6;}</style></defs><title>windows-vertical</title><g id="Layer_2" data-name="Layer 2"><g id="Layer_1-2" data-name="Layer 1"><path class="cls-1" d="M65.46,0V31.06H30.06V5.14L41.51,3.47,63.18.33c.19,0,.36-.22.54-.33Z"/><path class="cls-2" d="M0,34H26.66V59.75L0,56.16Z"/><path class="cls-3" d="M0,9.36,26.63,5.67V31.14a6.82,6.82,0,0,1-1.08.16H.86A6.3,6.3,0,0,1,0,31.2Z"/><path class="cls-1" d="M30,60.23V34.49H65.32V65.21Z"/><path class="cls-4" d="M136.45,12.76c-2.39,8.55-4.72,16.88-7.06,25.2-1.2,4.28-2.45,8.54-3.6,12.83-.27,1-.61,1.42-1.72,1.42-4,0-4,.07-5.13-3.78q-3.64-13-7.27-26c-.16-.61-.25-1.23-.45-2.22-.68,2.48-1.25,4.63-1.85,6.77-2.19,7.83-4.42,15.65-6.54,23.5a1.85,1.85,0,0,1-2.09,1.65C97,52.26,97,52.32,96,48.81Q90.95,31.54,85.9,14.27c-.12-.43-.22-.87-.39-1.57a39.4,39.4,0,0,1,4.38.07c.37,0,.8.84,1,1.36q3.54,12.58,7,25.17c.6,2.19,1.13,4.4,1.79,7,1.46-5.24,2.77-10.05,4.14-14.84,1.64-5.77,3.37-11.52,5-17.29a1.69,1.69,0,0,1,2.05-1.46c2.79.11,2.8,0,3.52,2.68l8.48,30.8c.36-1.49.64-2.77,1-4,2.46-9.37,5-18.74,7.37-28.12.25-.95.57-1.38,1.6-1.3S135,12.76,136.45,12.76Z"/><path class="cls-5" d="M241.91,23.86c1.28,0,2.32.06,3.35,0s1.48.29,1.76,1.34C249,32.53,251,39.86,253,47L259,27.1c1.09-3.57,1.1-3.57,5.17-3.07,2.06,7.62,4.12,15.28,6.24,23.15a11.11,11.11,0,0,0,.45-1.08q2.76-10.45,5.48-20.91c.22-.87.53-1.32,1.48-1.26s2.08,0,3.33,0c-.55,1.84-1.05,3.54-1.56,5.24-2.12,7.13-4.27,14.24-6.34,21.39A1.92,1.92,0,0,1,271,52.25c-2.91-.1-2.91,0-3.66-2.73q-2.61-9.41-5.23-18.82a4.34,4.34,0,0,0-.37-.75c-2.16,7-4.33,13.92-6.41,20.87a1.63,1.63,0,0,1-1.91,1.42c-3,0-3,0-3.88-2.93C247,40.92,244.51,32.53,241.91,23.86Z"/><path class="cls-5" d="M202.26,10.45h4.38V51.94h-4.3c-.08-1.2-.17-2.43-.29-4.08a11.27,11.27,0,0,1-7.34,4.81c-5.93,1.06-10.92-1.76-12.84-7.46a19.83,19.83,0,0,1,.9-15.49,11.71,11.71,0,0,1,14.32-6.09c1.87.67,3.48,2.07,5.17,3.1Zm.31,27-.29,0c0-.86,0-1.73,0-2.6-.23-4.28-2.84-7.3-6.84-8a8,8,0,0,0-9,5.55,16.6,16.6,0,0,0-.2,11c1.22,3.63,3.88,5.62,7.46,5.67a7.83,7.83,0,0,0,7.74-5.56A45.35,45.35,0,0,0,202.57,37.41Z"/><path class="cls-4" d="M329.7,31.17c.94-4,1.51-8.06,2.91-11.85a11.38,11.38,0,0,1,16.17-6.16c3.36,1.75,5,4.84,5.81,8.26A40.83,40.83,0,0,1,354.37,43a17.92,17.92,0,0,1-2.4,5,11,11,0,0,1-19.06-1.11c-2-3.67-3-9.43-2.72-15.53Zm21.23,1.22a25.19,25.19,0,0,0-.05-4.84A37.11,37.11,0,0,0,348.49,19a6,6,0,0,0-10.12-1.14,9.61,9.61,0,0,0-2.29,4.38,88.19,88.19,0,0,0-1.24,12.34A35.12,35.12,0,0,0,336,42.91a9.87,9.87,0,0,0,2,4,6.36,6.36,0,0,0,10.54-1C351,41.65,351.06,37,350.93,32.39Z"/><path class="cls-4" d="M239.54,37.82c0,5.92-1.81,11-7.53,13.7C222.7,56,212.68,50,212,39.81c-.28-4.41.46-8.52,3.33-12,3.45-4.21,9.9-5.79,15.73-3.94,4.85,1.54,8,5.89,8.46,11.56C239.59,36.2,239.54,37,239.54,37.82Zm-4.27.46a48.3,48.3,0,0,0-.88-5.08c-1.17-4.09-4-6.26-8-6.44a8.82,8.82,0,0,0-8.74,5.64,14.52,14.52,0,0,0,.21,11.78c1.58,3.52,4.64,5,8.42,5A7.76,7.76,0,0,0,234,43.89,42.88,42.88,0,0,0,235.27,38.28Z"/><path class="cls-6" d="M175.48,52H171c0-2.33,0-4.56,0-6.8,0-3.63.07-7.28-.1-10.9-.23-5-2.79-7.73-6.74-7.58s-7.38,3.83-7.43,8.16c-.05,5,0,10,0,15.06v2h-4.41v-28h4.32v4.16c.6-.68.94-1.09,1.32-1.48a10.73,10.73,0,0,1,10.41-3.32c3.76.76,6.35,3.67,6.78,8,.36,3.61.33,7.25.39,10.89C175.53,45.42,175.48,48.64,175.48,52Z"/><path class="cls-4" d="M283.34,46.73c2.36.79,4.53,1.71,6.8,2.22a10.8,10.8,0,0,0,4.11-.21,3.46,3.46,0,0,0,3.11-3.05,3.7,3.7,0,0,0-2-4.06c-1.43-.76-2.91-1.4-4.37-2.1a35.81,35.81,0,0,1-3.89-1.89c-5-3.15-5-9.65.06-12.71,4-2.42,8.26-2.4,12.55-.95a2.25,2.25,0,0,1,1,1.56,19.75,19.75,0,0,1,0,3.08A29.7,29.7,0,0,0,295.29,27a13.9,13.9,0,0,0-5.05.63A3.23,3.23,0,0,0,288,30.81a3.44,3.44,0,0,0,1.89,3.45c1.53.79,3.14,1.44,4.71,2.18a36.79,36.79,0,0,1,3.87,1.94,7.27,7.27,0,0,1-.38,12.67c-4.53,2.49-9.23,2.23-13.91.43a1.71,1.71,0,0,1-.82-1.25A34.4,34.4,0,0,1,283.34,46.73Z"/><path class="cls-5" d="M320.77,18.87l-9.16,4.5c0-1.73-.08-2.93,0-4.11,0-.37.54-.78.92-1q5-2.81,10-5.54c.73-.4,1.53-.69,2.51-1.12V52h-4.29Z"/><path class="cls-1" d="M144.4,52h-4.3V24h4.3Z"/><path class="cls-7" d="M139.3,13.07a3,3,0,0,1,3.24-2.69,2.9,2.9,0,0,1,2.69,3.2,2.94,2.94,0,0,1-3.2,2.71A3,3,0,0,1,139.3,13.07Z"/></g></g></svg>